<?xml version="1.0" encoding="UTF-8" standalone="no"?>
<!-- Maṇipūra-chakra image created by Holger Koch http://www.premaloka.de/kontakt License: public domain -->

<svg
   xmlns:dc="http://purl.org/dc/elements/1.1/"
   xmlns:cc="http://creativecommons.org/ns#"
   xmlns:rdf="http://www.w3.org/1999/02/22-rdf-syntax-ns#"
   xmlns:svg="http://www.w3.org/2000/svg"
   xmlns="http://www.w3.org/2000/svg"
   xmlns:xlink="http://www.w3.org/1999/xlink"
   xmlns:sodipodi="http://sodipodi.sourceforge.net/DTD/sodipodi-0.dtd"
   xmlns:inkscape="http://www.inkscape.org/namespaces/inkscape"
   version="1.1"
   width="700px"
   height="700px"
   id="svg3658"
   inkscape:version="0.48.4 r9939"
   sodipodi:docname="chakra3.svg">
  <metadata
     id="metadata3745">
    <rdf:RDF>
      <cc:Work
         rdf:about="">
        <dc:format>image/svg+xml</dc:format>
        <dc:type
           rdf:resource="http://purl.org/dc/dcmitype/StillImage" />
        <dc:title>Maṇipūra Chakra</dc:title>
      </cc:Work>
    </rdf:RDF>
  </metadata>
  <sodipodi:namedview
     pagecolor="#ffffff"
     bordercolor="#666666"
     borderopacity="1"
     objecttolerance="10"
     gridtolerance="10"
     guidetolerance="10"
     inkscape:pageopacity="0"
     inkscape:pageshadow="2"
     inkscape:window-width="640"
     inkscape:window-height="480"
     id="namedview3743"
     showgrid="false"
     inkscape:zoom="0.33714286"
     inkscape:cx="350"
     inkscape:cy="350"
     inkscape:window-x="0"
     inkscape:window-y="0"
     inkscape:window-maximized="0"
     inkscape:current-layer="svg3658" />
  <title
     id="title3660">Maṇipūra Chakra</title>
  <defs
     id="defs3662">
    <filter
       id="blur"
       x="-40%"
       y="-40%"
       width="200%"
       height="200%">
      <feGaussianBlur
         in="SourceGraphic"
         stdDeviation="14"
         id="feGaussianBlur3665" />
    </filter>
    <radialGradient
       id="grad1"
       gradientUnits="userSpaceOnUse"
       cx="350"
       cy="350"
       r="350">
      <stop
         offset="70%"
         stop-color="#e9e296"
         id="stop3668" />
      <stop
         offset="84.5%"
         stop-color="#bdb128"
         id="stop3670" />
    </radialGradient>
    <path
       id="petal1"
       stroke-linejoin="round"
       stroke-width="4"
       stroke="#7e761b"
       fill="url(#grad1)"
       d="M 274.29083637814 116.99115350769 C 274.29083637814,45.941153507687 350,64.4 350,3.5 C 350,64.4 425.70916362186,45.941153507687 425.70916362186,116.99115350769 L 350 350 Z" />
  </defs>
  <use
     xlink:href="#petal1"
     id="use3673" />
  <use
     xlink:href="#petal1"
     transform="rotate(36 350 350)"
     id="use3675" />
  <use
     xlink:href="#petal1"
     transform="rotate(72 350 350)"
     id="use3677" />
  <use
     xlink:href="#petal1"
     transform="rotate(108 350 350)"
     id="use3679" />
  <use
     xlink:href="#petal1"
     transform="rotate(144 350 350)"
     id="use3681" />
  <use
     xlink:href="#petal1"
     transform="rotate(180 350 350)"
     id="use3683" />
  <use
     xlink:href="#petal1"
     transform="rotate(216 350 350)"
     id="use3685" />
  <use
     xlink:href="#petal1"
     transform="rotate(252 350 350)"
     id="use3687" />
  <use
     xlink:href="#petal1"
     transform="rotate(288 350 350)"
     id="use3689" />
  <use
     xlink:href="#petal1"
     transform="rotate(324 350 350)"
     id="use3691" />
  <path
     style="fill:#d2c52d;stroke:#7e761b;stroke-width:7"
     d="M 595,350 C 595,485.30976 485.30976,595 350,595 214.69024,595 105,485.30976 105,350 105,214.69024 214.69024,105 350,105 c 135.30976,0 245,109.69024 245,245 z"
     id="circle3693" />
  <path
     transform="rotate(60 350 350)"
     style="fill:none;stroke:#7e761b;stroke-width:4;stroke-linejoin:round"
     d="m 350,105 212.17622,367.5 -424.35244,0 z"
     id="polygon3695" />
  <g
     style="font-size:245px;fill:#ffffff;stroke:#fbf9ea;stroke-width:7;filter:url(#blur);font-family:Sanskrit 2003"
     id="text3697">
    <path
       d="m 386.89014,329.15381 -32.06055,0 c -7e-5,2.39271 0.0797,4.82517 0.23926,7.29736 0.15943,1.75469 0.39869,4.94479 0.71777,9.57031 l 1.07666,16.62842 c 0.15944,2.47244 0.23919,4.46625 0.23926,5.98145 -7e-5,15.39234 -3.82819,28.63125 -11.48438,39.71679 -3.1104,4.54596 -4.66558,8.73297 -4.66552,12.56104 -6e-5,3.1104 0.99685,5.74223 2.99072,7.89551 5.98138,6.6195 11.84319,11.88316 17.58545,15.79101 l 19.02099,13.03955 c 4.22679,2.87111 6.34024,6.69923 6.34034,11.48438 -10e-5,3.90787 -1.63503,5.86181 -4.90479,5.86182 -2.07366,-10e-6 -4.30673,-0.99692 -6.69922,-2.99073 l -21.17431,-17.58545 -20.6958,-18.18359 c -5.66248,-4.94462 -12.12243,-11.88309 -19.37989,-20.81543 -0.8773,-1.03673 -2.71161,-3.50906 -5.50293,-7.41699 -2.95086,-3.66856 -6.89861,-9.49049 -11.84326,-17.46582 -0.63803,-1.35572 -1.15642,-2.67163 -1.55517,-3.94776 l -1.07666,-6.93847 c -10e-6,-8.9322 3.42935,-13.39834 10.28808,-13.39844 2.23305,1e-4 5.62254,1.03689 10.16846,3.11035 4.54586,1.99391 7.97522,2.99082 10.28808,2.99072 1.91403,1e-4 3.4692,-0.31891 4.66553,-0.95703 3.42932,-5.02431 5.144,-12.12228 5.14404,-21.29394 -4e-5,-5.3433 -0.39881,-10.16833 -1.19628,-14.4751 -0.15956,-2.31269 -0.55832,-4.46601 -1.19629,-6.45996 l -45.21973,0 0,-18.66211 99.89014,0 0,18.66211"
       style="font-size:245px;fill:#ffffff;stroke:#fbf9ea;stroke-width:7;filter:url(#blur);font-family:Sanskrit 2003"
       id="path3858" />
    <path
       d="m 361.40918,283.45557 -7.65625,9.33105 -6.2207,6.93848 c -1.75452,0.9572 -3.11032,1.43571 -4.06739,1.43554 -1.276,1.7e-4 -4.6256,-3.18993 -10.04882,-9.57031 l -7.53663,-8.61328 0,-4.42627 8.97217,-12.20215 c 2.23312,-3.03039 4.46619,-5.18371 6.69922,-6.45996 2.23311,2.1e-4 8.85257,6.22091 19.8584,18.66211 l 0.23926,2.51221 -0.23926,2.39258"
       style="font-size:245px;fill:#ffffff;stroke:#fbf9ea;stroke-width:7;filter:url(#blur);font-family:Sanskrit 2003"
       id="path3860" />
  </g>
  <g
     style="font-size:245px;stroke:#f2edc0;stroke-width:4;font-family:Sanskrit 2003"
     id="text3699">
    <path
       d="m 386.89014,329.15381 -32.06055,0 c -7e-5,2.39271 0.0797,4.82517 0.23926,7.29736 0.15943,1.75469 0.39869,4.94479 0.71777,9.57031 l 1.07666,16.62842 c 0.15944,2.47244 0.23919,4.46625 0.23926,5.98145 -7e-5,15.39234 -3.82819,28.63125 -11.48438,39.71679 -3.1104,4.54596 -4.66558,8.73297 -4.66552,12.56104 -6e-5,3.1104 0.99685,5.74223 2.99072,7.89551 5.98138,6.6195 11.84319,11.88316 17.58545,15.79101 l 19.02099,13.03955 c 4.22679,2.87111 6.34024,6.69923 6.34034,11.48438 -10e-5,3.90787 -1.63503,5.86181 -4.90479,5.86182 -2.07366,-10e-6 -4.30673,-0.99692 -6.69922,-2.99073 l -21.17431,-17.58545 -20.6958,-18.18359 c -5.66248,-4.94462 -12.12243,-11.88309 -19.37989,-20.81543 -0.8773,-1.03673 -2.71161,-3.50906 -5.50293,-7.41699 -2.95086,-3.66856 -6.89861,-9.49049 -11.84326,-17.46582 -0.63803,-1.35572 -1.15642,-2.67163 -1.55517,-3.94776 l -1.07666,-6.93847 c -10e-6,-8.9322 3.42935,-13.39834 10.28808,-13.39844 2.23305,1e-4 5.62254,1.03689 10.16846,3.11035 4.54586,1.99391 7.97522,2.99082 10.28808,2.99072 1.91403,1e-4 3.4692,-0.31891 4.66553,-0.95703 3.42932,-5.02431 5.144,-12.12228 5.14404,-21.29394 -4e-5,-5.3433 -0.39881,-10.16833 -1.19628,-14.4751 -0.15956,-2.31269 -0.55832,-4.46601 -1.19629,-6.45996 l -45.21973,0 0,-18.66211 99.89014,0 0,18.66211"
       style="font-size:245px;stroke:#f2edc0;stroke-width:4;font-family:Sanskrit 2003"
       id="path3853" />
    <path
       d="m 361.40918,283.45557 -7.65625,9.33105 -6.2207,6.93848 c -1.75452,0.9572 -3.11032,1.43571 -4.06739,1.43554 -1.276,1.7e-4 -4.6256,-3.18993 -10.04882,-9.57031 l -7.53663,-8.61328 0,-4.42627 8.97217,-12.20215 c 2.23312,-3.03039 4.46619,-5.18371 6.69922,-6.45996 2.23311,2.1e-4 8.85257,6.22091 19.8584,18.66211 l 0.23926,2.51221 -0.23926,2.39258"
       style="font-size:245px;stroke:#f2edc0;stroke-width:4;font-family:Sanskrit 2003"
       id="path3855" />
  </g>
  <g
     style="font-size:245px;fill:#3f3b0d;font-family:Sanskrit 2003"
     id="text3701">
    <path
       d="m 386.89014,329.15381 -32.06055,0 c -7e-5,2.39271 0.0797,4.82517 0.23926,7.29736 0.15943,1.75469 0.39869,4.94479 0.71777,9.57031 l 1.07666,16.62842 c 0.15944,2.47244 0.23919,4.46625 0.23926,5.98145 -7e-5,15.39234 -3.82819,28.63125 -11.48438,39.71679 -3.1104,4.54596 -4.66558,8.73297 -4.66552,12.56104 -6e-5,3.1104 0.99685,5.74223 2.99072,7.89551 5.98138,6.6195 11.84319,11.88316 17.58545,15.79101 l 19.02099,13.03955 c 4.22679,2.87111 6.34024,6.69923 6.34034,11.48438 -10e-5,3.90787 -1.63503,5.86181 -4.90479,5.86182 -2.07366,-10e-6 -4.30673,-0.99692 -6.69922,-2.99073 l -21.17431,-17.58545 -20.6958,-18.18359 c -5.66248,-4.94462 -12.12243,-11.88309 -19.37989,-20.81543 -0.8773,-1.03673 -2.71161,-3.50906 -5.50293,-7.41699 -2.95086,-3.66856 -6.89861,-9.49049 -11.84326,-17.46582 -0.63803,-1.35572 -1.15642,-2.67163 -1.55517,-3.94776 l -1.07666,-6.93847 c -10e-6,-8.9322 3.42935,-13.39834 10.28808,-13.39844 2.23305,1e-4 5.62254,1.03689 10.16846,3.11035 4.54586,1.99391 7.97522,2.99082 10.28808,2.99072 1.91403,1e-4 3.4692,-0.31891 4.66553,-0.95703 3.42932,-5.02431 5.144,-12.12228 5.14404,-21.29394 -4e-5,-5.3433 -0.39881,-10.16833 -1.19628,-14.4751 -0.15956,-2.31269 -0.55832,-4.46601 -1.19629,-6.45996 l -45.21973,0 0,-18.66211 99.89014,0 0,18.66211"
       style="font-size:245px;fill:#3f3b0d;font-family:Sanskrit 2003"
       id="path3848" />
    <path
       d="m 361.40918,283.45557 -7.65625,9.33105 -6.2207,6.93848 c -1.75452,0.9572 -3.11032,1.43571 -4.06739,1.43554 -1.276,1.7e-4 -4.6256,-3.18993 -10.04882,-9.57031 l -7.53663,-8.61328 0,-4.42627 8.97217,-12.20215 c 2.23312,-3.03039 4.46619,-5.18371 6.69922,-6.45996 2.23311,2.1e-4 8.85257,6.22091 19.8584,18.66211 l 0.23926,2.51221 -0.23926,2.39258"
       style="font-size:245px;fill:#3f3b0d;font-family:Sanskrit 2003"
       id="path3850" />
  </g>
  <g
     style="font-size:70px;stroke:#3f3b0d;stroke-width:2;font-family:Sanskrit 2003"
     id="text3703">
    <path
       d="m 366.29785,58.078125 -6.63086,0 0,3.486328 c -3e-5,2.483758 0.34177,5.092805 1.02539,7.827149 -3e-5,0.911486 -0.28486,1.583685 -0.85449,2.016601 -0.70641,0.36461 -1.50394,0.524115 -2.39258,0.478516 l -3.34961,-0.205078 -4.64843,-0.273438 c -4.94468,-0.318983 -7.41701,1.446965 -7.417,5.297852 0.18228,1.139343 1.29881,1.709004 3.34961,1.708984 0.31899,-0.02277 1.74315,-0.148092 4.27246,-0.375977 l 4.44336,-0.375976 c 2.50648,-0.205058 4.86488,0.877298 7.0752,3.24707 2.02796,2.164729 3.04195,4.614271 3.04199,7.348633 -4e-5,3.440762 -1.60648,5.958663 -4.81934,7.553711 -1.7318,0.8431 -3.72561,1.264649 -5.98144,1.264648 -2.66604,1e-6 -5.26369,-0.5013 -7.79297,-1.503906 -2.80275,-1.116533 -4.97886,-2.631831 -6.52832,-4.545898 -1.27605,-1.549471 -3.23569,-4.021799 -5.87891,-7.416992 -0.52409,-0.683579 -1.33301,-2.187484 -2.42675,-4.511719 -0.61524,-1.230449 -1.60645,-3.554665 -2.97364,-6.972656 l -0.27343,-0.717774 -0.0684,-0.786133 c 0,-1.093721 0.44433,-1.640596 1.333,-1.640625 1.07096,2.9e-5 1.91406,0.740588 2.5293,2.22168 0.43294,1.070989 0.93424,2.66604 1.50391,4.785156 0.52408,1.86851 1.05956,3.269876 1.60644,4.204102 2.23307,3.577488 4.50032,6.186535 6.80176,7.827148 2.73436,1.914071 6.12954,2.871101 10.18555,2.871094 1.91403,7e-6 3.73695,-0.546867 5.46875,-1.640625 1.9596,-1.230459 2.93942,-2.734364 2.93945,-4.511719 -3e-5,-1.139308 -0.50133,-1.971013 -1.50391,-2.495117 -0.56969,-0.296208 -1.10517,-0.44432 -1.60644,-0.444336 -0.52412,1.6e-5 -1.4014,0.33042 -2.63184,0.991211 -1.43557,0.774754 -2.55211,1.18491 -3.34961,1.230469 l -1.43554,0.06836 c -3.69143,0.205092 -7.22333,-2.141911 -10.59571,-7.041015 -1.04819,-1.503884 -1.57227,-3.064755 -1.57226,-4.682618 -1e-5,-1.868462 0.62661,-3.406546 1.87988,-4.614257 1.25324,-1.207651 2.80272,-1.765919 4.64844,-1.674805 l 6.76758,0.341797 c 1.00258,0.0456 2.07354,-0.07972 3.21289,-0.375977 l 0,-7.963867 -27.65137,0 0,-5.366211 40.29785,0 0,5.366211"
       style="font-size:70px;stroke:#3f3b0d;stroke-width:2;font-family:Sanskrit 2003"
       id="path3843" />
    <path
       d="m 361.54687,44.987305 -2.1875,2.666015 -1.77734,1.982422 c -0.50129,0.273485 -0.88866,0.410204 -1.16211,0.410156 -0.36457,4.8e-5 -1.3216,-0.911409 -2.87109,-2.734375 l -2.15332,-2.460937 0,-1.264649 2.56347,-3.486328 c 0.63804,-0.865827 1.27606,-1.48106 1.91407,-1.845703 0.63803,6e-5 2.5293,1.777402 5.67382,5.332031 l 0.0684,0.717774 -0.0684,0.683594"
       style="font-size:70px;stroke:#3f3b0d;stroke-width:2;font-family:Sanskrit 2003"
       id="path3845" />
  </g>
  <g
     style="font-size:70px;fill:#fbf9ea;font-family:Sanskrit 2003"
     id="text3705">
    <path
       d="m 366.29785,58.078125 -6.63086,0 0,3.486328 c -3e-5,2.483758 0.34177,5.092805 1.02539,7.827149 -3e-5,0.911486 -0.28486,1.583685 -0.85449,2.016601 -0.70641,0.36461 -1.50394,0.524115 -2.39258,0.478516 l -3.34961,-0.205078 -4.64843,-0.273438 c -4.94468,-0.318983 -7.41701,1.446965 -7.417,5.297852 0.18228,1.139343 1.29881,1.709004 3.34961,1.708984 0.31899,-0.02277 1.74315,-0.148092 4.27246,-0.375977 l 4.44336,-0.375976 c 2.50648,-0.205058 4.86488,0.877298 7.0752,3.24707 2.02796,2.164729 3.04195,4.614271 3.04199,7.348633 -4e-5,3.440762 -1.60648,5.958663 -4.81934,7.553711 -1.7318,0.8431 -3.72561,1.264649 -5.98144,1.264648 -2.66604,1e-6 -5.26369,-0.5013 -7.79297,-1.503906 -2.80275,-1.116533 -4.97886,-2.631831 -6.52832,-4.545898 -1.27605,-1.549471 -3.23569,-4.021799 -5.87891,-7.416992 -0.52409,-0.683579 -1.33301,-2.187484 -2.42675,-4.511719 -0.61524,-1.230449 -1.60645,-3.554665 -2.97364,-6.972656 l -0.27343,-0.717774 -0.0684,-0.786133 c 0,-1.093721 0.44433,-1.640596 1.333,-1.640625 1.07096,2.9e-5 1.91406,0.740588 2.5293,2.22168 0.43294,1.070989 0.93424,2.66604 1.50391,4.785156 0.52408,1.86851 1.05956,3.269876 1.60644,4.204102 2.23307,3.577488 4.50032,6.186535 6.80176,7.827148 2.73436,1.914071 6.12954,2.871101 10.18555,2.871094 1.91403,7e-6 3.73695,-0.546867 5.46875,-1.640625 1.9596,-1.230459 2.93942,-2.734364 2.93945,-4.511719 -3e-5,-1.139308 -0.50133,-1.971013 -1.50391,-2.495117 -0.56969,-0.296208 -1.10517,-0.44432 -1.60644,-0.444336 -0.52412,1.6e-5 -1.4014,0.33042 -2.63184,0.991211 -1.43557,0.774754 -2.55211,1.18491 -3.34961,1.230469 l -1.43554,0.06836 c -3.69143,0.205092 -7.22333,-2.141911 -10.59571,-7.041015 -1.04819,-1.503884 -1.57227,-3.064755 -1.57226,-4.682618 -1e-5,-1.868462 0.62661,-3.406546 1.87988,-4.614257 1.25324,-1.207651 2.80272,-1.765919 4.64844,-1.674805 l 6.76758,0.341797 c 1.00258,0.0456 2.07354,-0.07972 3.21289,-0.375977 l 0,-7.963867 -27.65137,0 0,-5.366211 40.29785,0 0,5.366211"
       style="font-size:70px;fill:#fbf9ea;font-family:Sanskrit 2003"
       id="path3838" />
    <path
       d="m 361.54687,44.987305 -2.1875,2.666015 -1.77734,1.982422 c -0.50129,0.273485 -0.88866,0.410204 -1.16211,0.410156 -0.36457,4.8e-5 -1.3216,-0.911409 -2.87109,-2.734375 l -2.15332,-2.460937 0,-1.264649 2.56347,-3.486328 c 0.63804,-0.865827 1.27606,-1.48106 1.91407,-1.845703 0.63803,6e-5 2.5293,1.777402 5.67382,5.332031 l 0.0684,0.717774 -0.0684,0.683594"
       style="font-size:70px;fill:#fbf9ea;font-family:Sanskrit 2003"
       id="path3840" />
  </g>
  <g
     style="font-size:70px;stroke:#3f3b0d;stroke-width:2;font-family:Sanskrit 2003"
     id="text3707">
    <path
       d="m 532.30762,114.04395 -7.62207,0 c -0.3874,4e-5 -0.58108,0.41019 -0.58106,1.23046 l 0.20508,1.84571 0.37598,2.11914 0.37597,2.59765 0.30762,2.90528 c -3e-5,1.45836 -0.36461,2.46096 -1.09375,3.00781 -0.66083,0.45575 -1.75458,0.66083 -3.28125,0.61523 l -4.30664,-0.17089 c -3.25848,-0.0911 -5.97007,0.61526 -8.13477,2.11914 -2.41537,1.709 -3.62305,4.13576 -3.62304,7.28027 -10e-6,5.30926 2.30142,8.6019 6.90429,9.87793 0.54686,1e-5 0.8203,-0.26204 0.82032,-0.78613 l -0.10254,-1.43555 -0.30762,-3.38379 c -10e-6,-1.98241 0.43293,-3.5091 1.29883,-4.58008 1.50389,-1.89125 3.4977,-2.83689 5.98144,-2.83691 3.80532,2e-5 6.65362,1.5495 8.54493,4.64844 1.13929,1.84571 1.70895,3.80535 1.70898,5.8789 -3e-5,4.056 -1.97106,6.77898 -5.91309,8.16895 -1.25328,0.29622 -2.38121,0.44433 -3.38378,0.44433 -1.18492,0 -2.42678,-0.12532 -3.72559,-0.37597 -0.72919,0 -1.89129,-0.33041 -3.48633,-0.99121 -1.48113,-0.61524 -2.5521,-1.15072 -3.21289,-1.60645 -0.63803,-0.47851 -1.61785,-1.36718 -2.93945,-2.66601 -2.16472,-2.14192 -3.94207,-4.55729 -5.33203,-7.2461 -1.54949,-3.00779 -2.32422,-5.8561 -2.32422,-8.54492 0,-4.35219 1.94824,-7.21189 5.84472,-8.5791 1.54947,-0.56963 3.1787,-0.82028 4.8877,-0.75195 l 5.70801,0.23925 1.81152,-0.23925 c 0.34178,-0.41013 0.61521,-1.04815 0.82031,-1.91407 l 0.37598,-1.5039 0,-1.02539 -0.1709,-4.34082 -21.73828,0 0,-5.33204 35.30762,0 0,5.33204 m -9.02344,25.5664 c -2.36982,2e-5 -4.26109,0.66082 -5.67383,1.98242 -1.91408,1.80014 -2.87111,3.40659 -2.87109,4.81934 -2e-5,0.66081 0.19366,1.17351 0.58105,1.53809 0.1367,0.13672 0.4785,0.20508 1.02539,0.20507 2.98501,1e-5 5.42316,-0.61522 7.31446,-1.8457 0.86585,-0.59244 1.53805,-1.1621 2.0166,-1.70898 0.66078,-0.6608 0.99118,-1.38997 0.99121,-2.1875 -3e-5,-1.86848 -1.12796,-2.80272 -3.38379,-2.80274"
       style="font-size:70px;stroke:#3f3b0d;stroke-width:2;font-family:Sanskrit 2003"
       id="path3833" />
    <path
       d="m 526.32617,101.1582 -2.1875,2.66602 -1.77734,1.98242 c -0.50129,0.27349 -0.88866,0.4102 -1.16211,0.41016 -0.36457,4e-5 -1.3216,-0.91141 -2.8711,-2.73438 l -2.15332,-2.46094 0,-1.264644 2.56348,-3.486328 c 0.63803,-0.865827 1.27606,-1.481061 1.91406,-1.845703 0.63804,5.9e-5 2.52931,1.777401 5.67383,5.332031 l 0.0684,0.717774 -0.0684,0.68359"
       style="font-size:70px;stroke:#3f3b0d;stroke-width:2;font-family:Sanskrit 2003"
       id="path3835" />
  </g>
  <g
     style="font-size:70px;fill:#fbf9ea;font-family:Sanskrit 2003"
     id="text3709">
    <path
       d="m 532.30762,114.04395 -7.62207,0 c -0.3874,4e-5 -0.58108,0.41019 -0.58106,1.23046 l 0.20508,1.84571 0.37598,2.11914 0.37597,2.59765 0.30762,2.90528 c -3e-5,1.45836 -0.36461,2.46096 -1.09375,3.00781 -0.66083,0.45575 -1.75458,0.66083 -3.28125,0.61523 l -4.30664,-0.17089 c -3.25848,-0.0911 -5.97007,0.61526 -8.13477,2.11914 -2.41537,1.709 -3.62305,4.13576 -3.62304,7.28027 -10e-6,5.30926 2.30142,8.6019 6.90429,9.87793 0.54686,1e-5 0.8203,-0.26204 0.82032,-0.78613 l -0.10254,-1.43555 -0.30762,-3.38379 c -10e-6,-1.98241 0.43293,-3.5091 1.29883,-4.58008 1.50389,-1.89125 3.4977,-2.83689 5.98144,-2.83691 3.80532,2e-5 6.65362,1.5495 8.54493,4.64844 1.13929,1.84571 1.70895,3.80535 1.70898,5.8789 -3e-5,4.056 -1.97106,6.77898 -5.91309,8.16895 -1.25328,0.29622 -2.38121,0.44433 -3.38378,0.44433 -1.18492,0 -2.42678,-0.12532 -3.72559,-0.37597 -0.72919,0 -1.89129,-0.33041 -3.48633,-0.99121 -1.48113,-0.61524 -2.5521,-1.15072 -3.21289,-1.60645 -0.63803,-0.47851 -1.61785,-1.36718 -2.93945,-2.66601 -2.16472,-2.14192 -3.94207,-4.55729 -5.33203,-7.2461 -1.54949,-3.00779 -2.32422,-5.8561 -2.32422,-8.54492 0,-4.35219 1.94824,-7.21189 5.84472,-8.5791 1.54947,-0.56963 3.1787,-0.82028 4.8877,-0.75195 l 5.70801,0.23925 1.81152,-0.23925 c 0.34178,-0.41013 0.61521,-1.04815 0.82031,-1.91407 l 0.37598,-1.5039 0,-1.02539 -0.1709,-4.34082 -21.73828,0 0,-5.33204 35.30762,0 0,5.33204 m -9.02344,25.5664 c -2.36982,2e-5 -4.26109,0.66082 -5.67383,1.98242 -1.91408,1.80014 -2.87111,3.40659 -2.87109,4.81934 -2e-5,0.66081 0.19366,1.17351 0.58105,1.53809 0.1367,0.13672 0.4785,0.20508 1.02539,0.20507 2.98501,1e-5 5.42316,-0.61522 7.31446,-1.8457 0.86585,-0.59244 1.53805,-1.1621 2.0166,-1.70898 0.66078,-0.6608 0.99118,-1.38997 0.99121,-2.1875 -3e-5,-1.86848 -1.12796,-2.80272 -3.38379,-2.80274"
       style="font-size:70px;fill:#fbf9ea;font-family:Sanskrit 2003"
       id="path3828" />
    <path
       d="m 526.32617,101.1582 -2.1875,2.66602 -1.77734,1.98242 c -0.50129,0.27349 -0.88866,0.4102 -1.16211,0.41016 -0.36457,4e-5 -1.3216,-0.91141 -2.8711,-2.73438 l -2.15332,-2.46094 0,-1.264644 2.56348,-3.486328 c 0.63803,-0.865827 1.27606,-1.481061 1.91406,-1.845703 0.63804,5.9e-5 2.52931,1.777401 5.67383,5.332031 l 0.0684,0.717774 -0.0684,0.68359"
       style="font-size:70px;fill:#fbf9ea;font-family:Sanskrit 2003"
       id="path3830" />
  </g>
  <g
     style="font-size:70px;stroke:#3f3b0d;stroke-width:2;font-family:Sanskrit 2003"
     id="text3711">
    <path
       d="m 633.66406,258.00977 -4.58008,0 0,38.3496 c -4e-5,1.16211 -0.17093,1.74317 -0.51269,1.74317 -0.54692,0 -1.67484,-0.83171 -3.38379,-2.49512 -1.02543,-1.0026 -1.70902,-1.93684 -2.05078,-2.80273 -0.29626,-0.79752 -0.44437,-1.94824 -0.44434,-3.45215 l 0,-31.34277 -8.68164,0 0,17.67089 c -2e-5,3.00784 -0.29625,5.22951 -0.88867,6.66504 -0.75198,1.82293 -2.16474,3.01922 -4.23828,3.58887 l -1.16211,0.1709 -1.09375,0.0684 c -1.73179,0.11394 -3.50913,-0.43293 -5.33203,-1.64063 l -3.48633,-2.29004 c -2.23308,-1.4811 -3.85092,-2.8141 -4.85352,-3.99902 -1.38997,-1.66339 -2.08496,-3.56606 -2.08496,-5.70801 l 0,-14.52636 -2.87109,0 0,-5.29786 45.66406,0 0,5.29786 m -26.04492,14.2871 0,-14.2871 -10.11719,0 0,18.55957 c -10e-6,1.34442 0.3304,2.32423 0.99121,2.93945 0.86588,0.61525 1.76594,0.92287 2.7002,0.92285 0.56965,2e-5 0.9912,-0.0455 1.26465,-0.13672 l 1.6748,-0.54687 c 1.98241,-0.66079 3.04198,-1.81151 3.17871,-3.45215 l 0.30762,-3.99903"
       style="font-size:70px;stroke:#3f3b0d;stroke-width:2;font-family:Sanskrit 2003"
       id="path3823" />
    <path
       d="m 630.99805,244.9873 -2.1875,2.66602 -1.77735,1.98242 c -0.50129,0.27349 -0.88866,0.41021 -1.16211,0.41016 -0.36457,5e-5 -1.3216,-0.91141 -2.87109,-2.73438 l -2.15332,-2.46093 0,-1.26465 2.56348,-3.48633 c 0.63803,-0.86583 1.27605,-1.48106 1.91406,-1.8457 0.63803,6e-5 2.5293,1.7774 5.67383,5.33203 l 0.0684,0.71777 -0.0684,0.68359"
       style="font-size:70px;stroke:#3f3b0d;stroke-width:2;font-family:Sanskrit 2003"
       id="path3825" />
  </g>
  <g
     style="font-size:70px;fill:#fbf9ea;font-family:Sanskrit 2003"
     id="text3713">
    <path
       d="m 633.66406,258.00977 -4.58008,0 0,38.3496 c -4e-5,1.16211 -0.17093,1.74317 -0.51269,1.74317 -0.54692,0 -1.67484,-0.83171 -3.38379,-2.49512 -1.02543,-1.0026 -1.70902,-1.93684 -2.05078,-2.80273 -0.29626,-0.79752 -0.44437,-1.94824 -0.44434,-3.45215 l 0,-31.34277 -8.68164,0 0,17.67089 c -2e-5,3.00784 -0.29625,5.22951 -0.88867,6.66504 -0.75198,1.82293 -2.16474,3.01922 -4.23828,3.58887 l -1.16211,0.1709 -1.09375,0.0684 c -1.73179,0.11394 -3.50913,-0.43293 -5.33203,-1.64063 l -3.48633,-2.29004 c -2.23308,-1.4811 -3.85092,-2.8141 -4.85352,-3.99902 -1.38997,-1.66339 -2.08496,-3.56606 -2.08496,-5.70801 l 0,-14.52636 -2.87109,0 0,-5.29786 45.66406,0 0,5.29786 m -26.04492,14.2871 0,-14.2871 -10.11719,0 0,18.55957 c -10e-6,1.34442 0.3304,2.32423 0.99121,2.93945 0.86588,0.61525 1.76594,0.92287 2.7002,0.92285 0.56965,2e-5 0.9912,-0.0455 1.26465,-0.13672 l 1.6748,-0.54687 c 1.98241,-0.66079 3.04198,-1.81151 3.17871,-3.45215 l 0.30762,-3.99903"
       style="font-size:70px;fill:#fbf9ea;font-family:Sanskrit 2003"
       id="path3818" />
    <path
       d="m 630.99805,244.9873 -2.1875,2.66602 -1.77735,1.98242 c -0.50129,0.27349 -0.88866,0.41021 -1.16211,0.41016 -0.36457,5e-5 -1.3216,-0.91141 -2.87109,-2.73438 l -2.15332,-2.46093 0,-1.26465 2.56348,-3.48633 c 0.63803,-0.86583 1.27605,-1.48106 1.91406,-1.8457 0.63803,6e-5 2.5293,1.7774 5.67383,5.33203 l 0.0684,0.71777 -0.0684,0.68359"
       style="font-size:70px;fill:#fbf9ea;font-family:Sanskrit 2003"
       id="path3820" />
  </g>
  <g
     style="font-size:70px;stroke:#3f3b0d;stroke-width:2;font-family:Sanskrit 2003"
     id="text3715">
    <path
       d="m 637.00781,419.04395 -4.23828,0 0,37.83691 c -3e-5,1.52669 -0.13675,2.31282 -0.41016,2.3584 -0.15953,0 -1.19632,-0.78613 -3.11035,-2.3584 l -2.15332,-1.77734 c -0.63805,-0.68359 -0.95706,-1.45833 -0.95703,-2.32422 l 0.10254,-18.1836 -10.21973,0 c -5.69662,0.68362 -8.54493,3.52053 -8.54492,8.51075 -10e-6,3.2129 1.15071,5.78777 3.45215,7.7246 l 2.97363,2.49512 c 2.02798,1.70899 3.19009,2.8711 3.48633,3.48633 0.25063,0.52409 0.41014,1.07096 0.47852,1.64062 -2e-5,0.54688 -0.26207,0.83171 -0.78614,0.8545 -0.56967,0.0228 -1.37859,-0.33041 -2.42675,-1.05957 -2.25588,-1.54948 -4.02182,-3.16732 -5.29785,-4.85352 l -4.44336,-5.84473 c -2.14193,-2.8255 -3.2129,-5.92446 -3.21289,-9.29687 -10e-6,-2.77992 1.17349,-5.08135 3.5205,-6.9043 1.98242,-1.52666 4.16991,-2.31279 6.5625,-2.3584 l 3.82813,-0.0684 10.45898,0.10254 0,-9.98046 -27.07031,0 0,-5.33204 38.00781,0 0,5.33204"
       style="font-size:70px;stroke:#3f3b0d;stroke-width:2;font-family:Sanskrit 2003"
       id="path3813" />
    <path
       d="m 634.3418,405.9873 -2.1875,2.66602 -1.77735,1.98242 c -0.50129,0.27349 -0.88866,0.41021 -1.16211,0.41016 -0.36457,5e-5 -1.3216,-0.91141 -2.87109,-2.73438 l -2.15332,-2.46093 0,-1.26465 2.56348,-3.48633 c 0.63803,-0.86583 1.27605,-1.48106 1.91406,-1.8457 0.63803,6e-5 2.5293,1.7774 5.67383,5.33203 l 0.0684,0.71777 -0.0684,0.68359"
       style="font-size:70px;stroke:#3f3b0d;stroke-width:2;font-family:Sanskrit 2003"
       id="path3815" />
  </g>
  <g
     style="font-size:70px;fill:#fbf9ea;font-family:Sanskrit 2003"
     id="text3717">
    <path
       d="m 637.00781,419.04395 -4.23828,0 0,37.83691 c -3e-5,1.52669 -0.13675,2.31282 -0.41016,2.3584 -0.15953,0 -1.19632,-0.78613 -3.11035,-2.3584 l -2.15332,-1.77734 c -0.63805,-0.68359 -0.95706,-1.45833 -0.95703,-2.32422 l 0.10254,-18.1836 -10.21973,0 c -5.69662,0.68362 -8.54493,3.52053 -8.54492,8.51075 -10e-6,3.2129 1.15071,5.78777 3.45215,7.7246 l 2.97363,2.49512 c 2.02798,1.70899 3.19009,2.8711 3.48633,3.48633 0.25063,0.52409 0.41014,1.07096 0.47852,1.64062 -2e-5,0.54688 -0.26207,0.83171 -0.78614,0.8545 -0.56967,0.0228 -1.37859,-0.33041 -2.42675,-1.05957 -2.25588,-1.54948 -4.02182,-3.16732 -5.29785,-4.85352 l -4.44336,-5.84473 c -2.14193,-2.8255 -3.2129,-5.92446 -3.21289,-9.29687 -10e-6,-2.77992 1.17349,-5.08135 3.5205,-6.9043 1.98242,-1.52666 4.16991,-2.31279 6.5625,-2.3584 l 3.82813,-0.0684 10.45898,0.10254 0,-9.98046 -27.07031,0 0,-5.33204 38.00781,0 0,5.33204"
       style="font-size:70px;fill:#fbf9ea;font-family:Sanskrit 2003"
       id="path3808" />
    <path
       d="m 634.3418,405.9873 -2.1875,2.66602 -1.77735,1.98242 c -0.50129,0.27349 -0.88866,0.41021 -1.16211,0.41016 -0.36457,5e-5 -1.3216,-0.91141 -2.87109,-2.73438 l -2.15332,-2.46093 0,-1.26465 2.56348,-3.48633 c 0.63803,-0.86583 1.27605,-1.48106 1.91406,-1.8457 0.63803,6e-5 2.5293,1.7774 5.67383,5.33203 l 0.0684,0.71777 -0.0684,0.68359"
       style="font-size:70px;fill:#fbf9ea;font-family:Sanskrit 2003"
       id="path3810" />
  </g>
  <g
     style="font-size:70px;stroke:#3f3b0d;stroke-width:2;font-family:Sanskrit 2003"
     id="text3719">
    <path
       d="m 534.36621,559.04395 -3.79394,0 0,37.32421 c -4e-5,1.75456 -0.28487,2.64323 -0.8545,2.66602 -0.47855,0.0228 -2.19892,-1.33301 -5.16113,-4.06738 -0.61526,-0.72917 -0.92288,-1.69759 -0.92285,-2.90528 l 0,-4.85351 c -0.0684,-0.45572 -0.20511,-0.90005 -0.41016,-1.33301 -3.34963,2.09637 -6.2549,3.14454 -8.71582,3.14453 -4.48895,10e-6 -8.37403,-1.90266 -11.65527,-5.70801 l -3.75977,-4.375 -2.90527,-3.72558 -0.20508,-0.41016 c 0,-0.41013 0.5013,-0.82029 1.50391,-1.23047 0.79752,-0.31898 1.48111,-0.52406 2.05078,-0.61523 2.59765,-0.36456 4.60285,-1.08233 6.01562,-2.15332 l 1.12793,-0.85449 c -0.0684,-0.11391 -0.14812,-0.19366 -0.23925,-0.23926 -0.18231,-0.11391 -0.50132,-0.27341 -0.95704,-0.47852 -2.89388,-1.25322 -4.81934,-2.19886 -5.77636,-2.83691 -2.64323,-1.75452 -3.96485,-3.89645 -3.96485,-6.42578 0,-1.91402 0.78613,-3.45211 2.3584,-4.61426 1.41276,-1.07092 3.11035,-1.6064 5.09278,-1.60645 4.80792,5e-5 8.47654,2.48377 11.00586,7.45118 1.20766,2.36982 1.8115,4.45478 1.81152,6.25488 -2e-5,3.2357 -1.80015,5.91311 -5.40039,8.03222 l -5.29785,2.29004 c -0.59246,0.25068 -1.00262,0.50133 -1.23047,0.75196 -0.13673,0.2051 -0.23927,0.48993 -0.30762,0.85449 -1e-5,0.41017 0.20507,0.91148 0.61523,1.50391 0.56966,0.66082 1.37857,1.26466 2.42676,1.81152 0.97981,0.3646 2.06216,0.54689 3.24707,0.54687 2.46092,2e-5 4.99022,-0.69497 7.58789,-2.08496 1.95961,-1.04816 3.29262,-1.84568 3.99903,-2.39258 1.20765,-0.93422 2.03936,-1.99379 2.49511,-3.17871 l 0,-16.54296 -6.01562,0 -4.16992,-5.33204 20.40527,0 0,5.33204 m -23.07129,3.6914 c -2e-5,-1.20764 -0.45574,-2.23303 -1.36719,-3.07617 -0.91147,-0.84306 -1.97104,-1.26461 -3.17871,-1.26465 -1.13933,4e-5 -2.07357,0.4102 -2.80273,1.23047 -0.72918,0.79756 -1.09376,1.77738 -1.09375,2.93945 -10e-6,2.57491 1.89126,4.38643 5.67383,5.43457 1.84568,-1.00257 2.76853,-2.75712 2.76855,-5.26367"
       style="font-size:70px;stroke:#3f3b0d;stroke-width:2;font-family:Sanskrit 2003"
       id="path3803" />
    <path
       d="m 532.62305,545.9873 -2.1875,2.66602 -1.77735,1.98242 c -0.50129,0.27349 -0.88866,0.41021 -1.16211,0.41016 -0.36457,5e-5 -1.3216,-0.91141 -2.87109,-2.73438 l -2.15332,-2.46093 0,-1.26465 2.56348,-3.48633 c 0.63803,-0.86583 1.27605,-1.48106 1.91406,-1.8457 0.63803,6e-5 2.5293,1.7774 5.67383,5.33203 l 0.0684,0.71777 -0.0684,0.68359"
       style="font-size:70px;stroke:#3f3b0d;stroke-width:2;font-family:Sanskrit 2003"
       id="path3805" />
  </g>
  <g
     style="font-size:70px;fill:#fbf9ea;font-family:Sanskrit 2003"
     id="text3721">
    <path
       d="m 534.36621,559.04395 -3.79394,0 0,37.32421 c -4e-5,1.75456 -0.28487,2.64323 -0.8545,2.66602 -0.47855,0.0228 -2.19892,-1.33301 -5.16113,-4.06738 -0.61526,-0.72917 -0.92288,-1.69759 -0.92285,-2.90528 l 0,-4.85351 c -0.0684,-0.45572 -0.20511,-0.90005 -0.41016,-1.33301 -3.34963,2.09637 -6.2549,3.14454 -8.71582,3.14453 -4.48895,10e-6 -8.37403,-1.90266 -11.65527,-5.70801 l -3.75977,-4.375 -2.90527,-3.72558 -0.20508,-0.41016 c 0,-0.41013 0.5013,-0.82029 1.50391,-1.23047 0.79752,-0.31898 1.48111,-0.52406 2.05078,-0.61523 2.59765,-0.36456 4.60285,-1.08233 6.01562,-2.15332 l 1.12793,-0.85449 c -0.0684,-0.11391 -0.14812,-0.19366 -0.23925,-0.23926 -0.18231,-0.11391 -0.50132,-0.27341 -0.95704,-0.47852 -2.89388,-1.25322 -4.81934,-2.19886 -5.77636,-2.83691 -2.64323,-1.75452 -3.96485,-3.89645 -3.96485,-6.42578 0,-1.91402 0.78613,-3.45211 2.3584,-4.61426 1.41276,-1.07092 3.11035,-1.6064 5.09278,-1.60645 4.80792,5e-5 8.47654,2.48377 11.00586,7.45118 1.20766,2.36982 1.8115,4.45478 1.81152,6.25488 -2e-5,3.2357 -1.80015,5.91311 -5.40039,8.03222 l -5.29785,2.29004 c -0.59246,0.25068 -1.00262,0.50133 -1.23047,0.75196 -0.13673,0.2051 -0.23927,0.48993 -0.30762,0.85449 -1e-5,0.41017 0.20507,0.91148 0.61523,1.50391 0.56966,0.66082 1.37857,1.26466 2.42676,1.81152 0.97981,0.3646 2.06216,0.54689 3.24707,0.54687 2.46092,2e-5 4.99022,-0.69497 7.58789,-2.08496 1.95961,-1.04816 3.29262,-1.84568 3.99903,-2.39258 1.20765,-0.93422 2.03936,-1.99379 2.49511,-3.17871 l 0,-16.54296 -6.01562,0 -4.16992,-5.33204 20.40527,0 0,5.33204 m -23.07129,3.6914 c -2e-5,-1.20764 -0.45574,-2.23303 -1.36719,-3.07617 -0.91147,-0.84306 -1.97104,-1.26461 -3.17871,-1.26465 -1.13933,4e-5 -2.07357,0.4102 -2.80273,1.23047 -0.72918,0.79756 -1.09376,1.77738 -1.09375,2.93945 -10e-6,2.57491 1.89126,4.38643 5.67383,5.43457 1.84568,-1.00257 2.76853,-2.75712 2.76855,-5.26367"
       style="font-size:70px;fill:#fbf9ea;font-family:Sanskrit 2003"
       id="path3798" />
    <path
       d="m 532.62305,545.9873 -2.1875,2.66602 -1.77735,1.98242 c -0.50129,0.27349 -0.88866,0.41021 -1.16211,0.41016 -0.36457,5e-5 -1.3216,-0.91141 -2.87109,-2.73438 l -2.15332,-2.46093 0,-1.26465 2.56348,-3.48633 c 0.63803,-0.86583 1.27605,-1.48106 1.91406,-1.8457 0.63803,6e-5 2.5293,1.7774 5.67383,5.33203 l 0.0684,0.71777 -0.0684,0.68359"
       style="font-size:70px;fill:#fbf9ea;font-family:Sanskrit 2003"
       id="path3800" />
  </g>
  <g
     style="font-size:70px;stroke:#3f3b0d;stroke-width:2;font-family:Sanskrit 2003"
     id="text3723">
    <path
       d="m 363.04297,615.04395 -6.01563,0 c -0.29625,0.75199 -0.44436,1.43558 -0.44433,2.05078 -3e-5,0.59248 0.20505,1.98245 0.61523,4.16992 0.25062,1.32165 0.37595,2.32425 0.37598,3.00781 l 0,1.02539 c -0.11396,0.68362 -0.42158,1.77737 -0.92285,3.28125 -0.41019,0.15953 -1.03681,0.22789 -1.87989,0.20508 l -5.50293,-0.13672 c -5.30926,-0.13669 -8.95508,0.96845 -10.9375,3.31543 -1.45834,1.73179 -2.1875,3.61167 -2.1875,5.63965 0,2.14194 0.70638,3.98764 2.11915,5.53711 1.43553,1.5267 3.22427,2.29005 5.36621,2.29004 l 1.74316,-0.1709 c 0.66079,-0.13671 1.28742,-0.37597 1.87988,-0.71777 0.29621,-0.22786 0.43293,-0.67219 0.41016,-1.33301 l -0.0684,-1.87989 c -0.0912,-2.75714 1.49249,-4.39776 4.75098,-4.92187 1.54945,2e-5 3.04196,0.7064 4.47754,2.11914 1.4583,1.41278 2.18747,2.89389 2.1875,4.44336 -3e-5,0.79754 -0.17093,1.56088 -0.5127,2.29004 -0.13675,0.31902 -0.67223,0.93425 -1.60645,1.8457 -0.84312,0.82032 -1.26467,1.37859 -1.26464,1.67481 l 0.47851,1.05957 c 0.61521,0.91146 1.8115,2.44954 3.58887,4.61425 2.57484,3.14453 3.86227,5.48014 3.8623,7.00684 -3e-5,0.86588 -0.33043,1.72037 -0.99121,2.56348 -0.3874,0.36457 -0.86591,0.54686 -1.43554,0.54687 -0.97985,-10e-6 -2.23311,-0.46713 -3.75977,-1.40136 -1.64065,-1.00262 -2.46096,-1.94825 -2.46094,-2.83692 -2e-5,-0.6836 0.31899,-1.31022 0.95703,-1.87988 0.66078,-0.56967 1.02537,-1.03679 1.09375,-1.40137 -2e-5,-1.0026 -1.11656,-3.05338 -3.34961,-6.15234 l -0.61523,-0.64942 c -0.34182,-0.27343 -0.79755,-0.45572 -1.36719,-0.54687 l -0.85449,0.13672 -2.05078,0.1709 c -0.27346,0.0228 -0.56968,0.0342 -0.88867,0.0342 -3.19012,0 -6.64227,-1.46972 -10.35645,-4.40918 -3.94206,-3.12174 -6.16374,-6.93846 -6.66504,-11.4502 0,-3.50909 1.23047,-6.1865 3.69141,-8.03223 2.21028,-1.68616 5.12694,-2.50648 8.75,-2.46093 l 3.52051,0.0342 c 1.73175,0.0228 2.77992,-0.0456 3.14453,-0.20508 0.66078,-0.27341 1.17348,-1.09372 1.53808,-2.46094 l 0,-6.01562 -22.45605,0 0,-5.33204 34.04297,0 0,5.33204"
       style="font-size:70px;stroke:#3f3b0d;stroke-width:2;font-family:Sanskrit 2003"
       id="path3793" />
    <path
       d="m 359.07812,601.9873 -2.1875,2.66602 -1.77734,1.98242 c -0.50129,0.27349 -0.88866,0.41021 -1.16211,0.41016 -0.36457,5e-5 -1.3216,-0.91141 -2.87109,-2.73438 l -2.15332,-2.46093 0,-1.26465 2.56347,-3.48633 c 0.63804,-0.86583 1.27606,-1.48106 1.91407,-1.8457 0.63803,6e-5 2.5293,1.7774 5.67382,5.33203 l 0.0684,0.71777 -0.0684,0.68359"
       style="font-size:70px;stroke:#3f3b0d;stroke-width:2;font-family:Sanskrit 2003"
       id="path3795" />
  </g>
  <g
     style="font-size:70px;fill:#fbf9ea;font-family:Sanskrit 2003"
     id="text3725">
    <path
       d="m 363.04297,615.04395 -6.01563,0 c -0.29625,0.75199 -0.44436,1.43558 -0.44433,2.05078 -3e-5,0.59248 0.20505,1.98245 0.61523,4.16992 0.25062,1.32165 0.37595,2.32425 0.37598,3.00781 l 0,1.02539 c -0.11396,0.68362 -0.42158,1.77737 -0.92285,3.28125 -0.41019,0.15953 -1.03681,0.22789 -1.87989,0.20508 l -5.50293,-0.13672 c -5.30926,-0.13669 -8.95508,0.96845 -10.9375,3.31543 -1.45834,1.73179 -2.1875,3.61167 -2.1875,5.63965 0,2.14194 0.70638,3.98764 2.11915,5.53711 1.43553,1.5267 3.22427,2.29005 5.36621,2.29004 l 1.74316,-0.1709 c 0.66079,-0.13671 1.28742,-0.37597 1.87988,-0.71777 0.29621,-0.22786 0.43293,-0.67219 0.41016,-1.33301 l -0.0684,-1.87989 c -0.0912,-2.75714 1.49249,-4.39776 4.75098,-4.92187 1.54945,2e-5 3.04196,0.7064 4.47754,2.11914 1.4583,1.41278 2.18747,2.89389 2.1875,4.44336 -3e-5,0.79754 -0.17093,1.56088 -0.5127,2.29004 -0.13675,0.31902 -0.67223,0.93425 -1.60645,1.8457 -0.84312,0.82032 -1.26467,1.37859 -1.26464,1.67481 l 0.47851,1.05957 c 0.61521,0.91146 1.8115,2.44954 3.58887,4.61425 2.57484,3.14453 3.86227,5.48014 3.8623,7.00684 -3e-5,0.86588 -0.33043,1.72037 -0.99121,2.56348 -0.3874,0.36457 -0.86591,0.54686 -1.43554,0.54687 -0.97985,-10e-6 -2.23311,-0.46713 -3.75977,-1.40136 -1.64065,-1.00262 -2.46096,-1.94825 -2.46094,-2.83692 -2e-5,-0.6836 0.31899,-1.31022 0.95703,-1.87988 0.66078,-0.56967 1.02537,-1.03679 1.09375,-1.40137 -2e-5,-1.0026 -1.11656,-3.05338 -3.34961,-6.15234 l -0.61523,-0.64942 c -0.34182,-0.27343 -0.79755,-0.45572 -1.36719,-0.54687 l -0.85449,0.13672 -2.05078,0.1709 c -0.27346,0.0228 -0.56968,0.0342 -0.88867,0.0342 -3.19012,0 -6.64227,-1.46972 -10.35645,-4.40918 -3.94206,-3.12174 -6.16374,-6.93846 -6.66504,-11.4502 0,-3.50909 1.23047,-6.1865 3.69141,-8.03223 2.21028,-1.68616 5.12694,-2.50648 8.75,-2.46093 l 3.52051,0.0342 c 1.73175,0.0228 2.77992,-0.0456 3.14453,-0.20508 0.66078,-0.27341 1.17348,-1.09372 1.53808,-2.46094 l 0,-6.01562 -22.45605,0 0,-5.33204 34.04297,0 0,5.33204"
       style="font-size:70px;fill:#fbf9ea;font-family:Sanskrit 2003"
       id="path3788" />
    <path
       d="m 359.07812,601.9873 -2.1875,2.66602 -1.77734,1.98242 c -0.50129,0.27349 -0.88866,0.41021 -1.16211,0.41016 -0.36457,5e-5 -1.3216,-0.91141 -2.87109,-2.73438 l -2.15332,-2.46093 0,-1.26465 2.56347,-3.48633 c 0.63804,-0.86583 1.27606,-1.48106 1.91407,-1.8457 0.63803,6e-5 2.5293,1.7774 5.67382,5.33203 l 0.0684,0.71777 -0.0684,0.68359"
       style="font-size:70px;fill:#fbf9ea;font-family:Sanskrit 2003"
       id="path3790" />
  </g>
  <g
     style="font-size:70px;stroke:#3f3b0d;stroke-width:2;font-family:Sanskrit 2003"
     id="text3727">
    <path
       d="m 201.33203,559.04395 -3.96484,0 0,37.63183 c -4e-5,1.61784 -0.14815,2.42676 -0.44434,2.42676 -0.31904,0 -1.45837,-0.93424 -3.41797,-2.80274 -1.32164,-1.25325 -2.13056,-2.27864 -2.42676,-3.07617 -0.2051,-0.84309 -0.30764,-2.99641 -0.30761,-6.45996 l -3.65723,1.8457 c -1.84573,0.93426 -3.78257,1.40138 -5.81055,1.40137 -2.25587,10e-6 -4.11297,-0.34179 -5.57128,-1.02539 -1.29885,-0.59244 -2.81414,-1.74315 -4.5459,-3.45215 -2.64324,-2.57485 -3.96485,-5.36619 -3.96485,-8.37402 0,-1.29881 0.35319,-2.34698 1.05957,-3.14453 l 2.11914,-2.39258 c -0.36459,-0.63799 -0.97982,-1.28741 -1.8457,-1.94824 l -1.57226,-0.92285 c -0.50131,-0.2962 -0.8545,-0.53545 -1.05958,-0.71778 -0.79753,-0.52405 -1.40137,-1.37855 -1.81152,-2.56347 -0.27344,-1.48109 -0.41016,-2.84827 -0.41015,-4.10157 l 0,-0.75195 c -1e-5,-1.04814 -0.90007,-1.57222 -2.7002,-1.57226 l 0,-5.33204 7.92969,0 3.24707,5.33204 -1.53809,0 -0.99121,3.11035 c -0.20509,0.66084 -0.30762,1.46976 -0.30762,2.42675 0,2.18754 1.05956,4.11299 3.17871,5.77637 1.95963,-0.75192 3.6914,-1.1279 5.19532,-1.12793 1.54946,3e-5 2.89386,0.68363 4.0332,2.05078 l 0.99121,1.19629 c 0.47849,0.56969 0.71775,1.01403 0.71777,1.33301 -2e-5,0.59247 -0.75197,0.8887 -2.25585,0.88867 -2.41539,3e-5 -4.42059,0.47854 -6.01563,1.43555 -1.91407,1.16213 -2.8711,2.87111 -2.87109,5.12695 -1e-5,2.71161 1.43553,3.99904 4.30664,3.86231 l 1.46972,-0.0684 c 2.666,-0.11392 5.38898,-1.00259 8.16895,-2.66602 2.39255,-1.43553 4.12432,-2.985 5.19531,-4.64844 l 0,-18.69628 -11.89453,0 -3.48633,-5.33204 25.25879,0 0,5.33204"
       style="font-size:70px;stroke:#3f3b0d;stroke-width:2;font-family:Sanskrit 2003"
       id="path3783" />
    <path
       d="m 199.24707,546.1582 -2.1875,2.66602 -1.77734,1.98242 c -0.5013,0.27349 -0.88866,0.4102 -1.16211,0.41016 -0.36457,4e-5 -1.32161,-0.91141 -2.8711,-2.73438 l -2.15332,-2.46094 0,-1.26464 2.56348,-3.48633 c 0.63803,-0.86583 1.27605,-1.48106 1.91406,-1.84571 0.63803,6e-5 2.52931,1.77741 5.67383,5.33204 l 0.0684,0.71777 -0.0684,0.68359"
       style="font-size:70px;stroke:#3f3b0d;stroke-width:2;font-family:Sanskrit 2003"
       id="path3785" />
  </g>
  <g
     style="font-size:70px;fill:#fbf9ea;font-family:Sanskrit 2003"
     id="text3729">
    <path
       d="m 201.33203,559.04395 -3.96484,0 0,37.63183 c -4e-5,1.61784 -0.14815,2.42676 -0.44434,2.42676 -0.31904,0 -1.45837,-0.93424 -3.41797,-2.80274 -1.32164,-1.25325 -2.13056,-2.27864 -2.42676,-3.07617 -0.2051,-0.84309 -0.30764,-2.99641 -0.30761,-6.45996 l -3.65723,1.8457 c -1.84573,0.93426 -3.78257,1.40138 -5.81055,1.40137 -2.25587,10e-6 -4.11297,-0.34179 -5.57128,-1.02539 -1.29885,-0.59244 -2.81414,-1.74315 -4.5459,-3.45215 -2.64324,-2.57485 -3.96485,-5.36619 -3.96485,-8.37402 0,-1.29881 0.35319,-2.34698 1.05957,-3.14453 l 2.11914,-2.39258 c -0.36459,-0.63799 -0.97982,-1.28741 -1.8457,-1.94824 l -1.57226,-0.92285 c -0.50131,-0.2962 -0.8545,-0.53545 -1.05958,-0.71778 -0.79753,-0.52405 -1.40137,-1.37855 -1.81152,-2.56347 -0.27344,-1.48109 -0.41016,-2.84827 -0.41015,-4.10157 l 0,-0.75195 c -1e-5,-1.04814 -0.90007,-1.57222 -2.7002,-1.57226 l 0,-5.33204 7.92969,0 3.24707,5.33204 -1.53809,0 -0.99121,3.11035 c -0.20509,0.66084 -0.30762,1.46976 -0.30762,2.42675 0,2.18754 1.05956,4.11299 3.17871,5.77637 1.95963,-0.75192 3.6914,-1.1279 5.19532,-1.12793 1.54946,3e-5 2.89386,0.68363 4.0332,2.05078 l 0.99121,1.19629 c 0.47849,0.56969 0.71775,1.01403 0.71777,1.33301 -2e-5,0.59247 -0.75197,0.8887 -2.25585,0.88867 -2.41539,3e-5 -4.42059,0.47854 -6.01563,1.43555 -1.91407,1.16213 -2.8711,2.87111 -2.87109,5.12695 -1e-5,2.71161 1.43553,3.99904 4.30664,3.86231 l 1.46972,-0.0684 c 2.666,-0.11392 5.38898,-1.00259 8.16895,-2.66602 2.39255,-1.43553 4.12432,-2.985 5.19531,-4.64844 l 0,-18.69628 -11.89453,0 -3.48633,-5.33204 25.25879,0 0,5.33204"
       style="font-size:70px;fill:#fbf9ea;font-family:Sanskrit 2003"
       id="path3778" />
    <path
       d="m 199.24707,546.1582 -2.1875,2.66602 -1.77734,1.98242 c -0.5013,0.27349 -0.88866,0.4102 -1.16211,0.41016 -0.36457,4e-5 -1.32161,-0.91141 -2.8711,-2.73438 l -2.15332,-2.46094 0,-1.26464 2.56348,-3.48633 c 0.63803,-0.86583 1.27605,-1.48106 1.91406,-1.84571 0.63803,6e-5 2.52931,1.77741 5.67383,5.33204 l 0.0684,0.71777 -0.0684,0.68359"
       style="font-size:70px;fill:#fbf9ea;font-family:Sanskrit 2003"
       id="path3780" />
  </g>
  <g
     style="font-size:70px;stroke:#3f3b0d;stroke-width:2;font-family:Sanskrit 2003"
     id="text3731">
    <path
       d="m 100.3584,419.07812 -3.041994,0 0,37.3584 c 0.02275,1.6862 -0.250685,2.54069 -0.820312,2.56348 -0.592481,0.0228 -1.697623,-0.80892 -3.31543,-2.49512 L 91.4375,454.55664 c -0.592476,-0.6608 -0.945666,-1.32161 -1.05957,-1.98242 l 0.03418,-15.41504 -10.698242,0 c -0.797542,2e-5 -1.538101,0.28485 -2.22168,0.85449 -0.455743,0.36461 -0.72918,0.91148 -0.820312,1.64063 l 0.136719,0.61523 c 0.683579,2.11916 1.025376,3.79396 1.02539,5.02442 -1.4e-5,1.48113 -0.364597,2.34701 -1.09375,2.59765 l -2.050781,0.23926 c -1.367198,1e-5 -2.722991,-0.52408 -4.067383,-1.57227 l -2.221679,-2.1875 c -2.255863,-2.21027 -3.383791,-4.55727 -3.383789,-7.04101 -2e-6,-4.14711 3.0192,-6.12953 9.057617,-5.94727 l 17.055664,0.0342 0,-12.33887 -28.129883,0 0,-5.36621 37.3584,0 0,5.36621"
       style="font-size:70px;stroke:#3f3b0d;stroke-width:2;font-family:Sanskrit 2003"
       id="path3773" />
    <path
       d="m 99.469727,405.9873 -2.1875,2.66602 -1.777344,1.98242 c -0.501292,0.27349 -0.888661,0.41021 -1.16211,0.41016 -0.364572,5e-5 -1.321602,-0.91141 -2.871093,-2.73438 l -2.153321,-2.46093 0,-1.26465 2.563477,-3.48633 c 0.638034,-0.86583 1.276054,-1.48106 1.914062,-1.8457 0.638032,6e-5 2.529306,1.7774 5.673829,5.33203 l 0.06836,0.71777 -0.06836,0.68359"
       style="font-size:70px;stroke:#3f3b0d;stroke-width:2;font-family:Sanskrit 2003"
       id="path3775" />
  </g>
  <g
     style="font-size:70px;fill:#fbf9ea;font-family:Sanskrit 2003"
     id="text3733">
    <path
       d="m 100.3584,419.07812 -3.041994,0 0,37.3584 c 0.02275,1.6862 -0.250685,2.54069 -0.820312,2.56348 -0.592481,0.0228 -1.697623,-0.80892 -3.31543,-2.49512 L 91.4375,454.55664 c -0.592476,-0.6608 -0.945666,-1.32161 -1.05957,-1.98242 l 0.03418,-15.41504 -10.698242,0 c -0.797542,2e-5 -1.538101,0.28485 -2.22168,0.85449 -0.455743,0.36461 -0.72918,0.91148 -0.820312,1.64063 l 0.136719,0.61523 c 0.683579,2.11916 1.025376,3.79396 1.02539,5.02442 -1.4e-5,1.48113 -0.364597,2.34701 -1.09375,2.59765 l -2.050781,0.23926 c -1.367198,1e-5 -2.722991,-0.52408 -4.067383,-1.57227 l -2.221679,-2.1875 c -2.255863,-2.21027 -3.383791,-4.55727 -3.383789,-7.04101 -2e-6,-4.14711 3.0192,-6.12953 9.057617,-5.94727 l 17.055664,0.0342 0,-12.33887 -28.129883,0 0,-5.36621 37.3584,0 0,5.36621"
       style="font-size:70px;fill:#fbf9ea;font-family:Sanskrit 2003"
       id="path3768" />
    <path
       d="m 99.469727,405.9873 -2.1875,2.66602 -1.777344,1.98242 c -0.501292,0.27349 -0.888661,0.41021 -1.16211,0.41016 -0.364572,5e-5 -1.321602,-0.91141 -2.871093,-2.73438 l -2.153321,-2.46093 0,-1.26465 2.563477,-3.48633 c 0.638034,-0.86583 1.276054,-1.48106 1.914062,-1.8457 0.638032,6e-5 2.529306,1.7774 5.673829,5.33203 l 0.06836,0.71777 -0.06836,0.68359"
       style="font-size:70px;fill:#fbf9ea;font-family:Sanskrit 2003"
       id="path3770" />
  </g>
  <g
     style="font-size:70px;stroke:#3f3b0d;stroke-width:2;font-family:Sanskrit 2003"
     id="text3735">
    <path
       d="m 101.52148,258.04395 -3.828121,0 0,37.52929 c -3e-5,1.75456 -0.262074,2.63184 -0.786132,2.63184 -0.432973,0 -1.082386,-0.35319 -1.948243,-1.05957 l -1.948242,-1.60645 c -1.526717,-1.27604 -2.278669,-3.09895 -2.255859,-5.46875 l 0.03418,-2.49511 0.307618,-2.22168 -0.06836,-1.16211 c -0.0456,-0.63801 -0.136742,-1.20767 -0.273437,-1.70899 l -2.358399,0.5127 -1.640625,0.10254 -1.469726,0 c -2.005225,10e-6 -3.736994,-0.36457 -5.195313,-1.09375 -0.59246,-0.29621 -1.914073,-1.25324 -3.964843,-2.8711 -1.777352,-1.38995 -2.916673,-2.35837 -3.417969,-2.90527 -1.116541,-1.16209 -1.845707,-2.43813 -2.1875,-3.82813 l 0,-14.35546 -3.520508,0 0,-5.33204 34.52148,0 0,5.33204 m -9.946285,15.51757 0,-15.51757 -15.039062,0 0,16.44042 c 0.136709,1.13935 0.546865,1.99384 1.230469,2.56348 0.774728,0.50132 1.731758,0.75197 2.871093,0.75195 l 2.084961,-0.20507 2.084961,-0.54688 c 1.503887,-0.38735 2.643209,-0.77472 3.417969,-1.16211 1.20766,-0.59242 2.324195,-1.36716 3.349609,-2.32422"
       style="font-size:70px;stroke:#3f3b0d;stroke-width:2;font-family:Sanskrit 2003"
       id="path3763" />
    <path
       d="m 99.84668,244.9873 -2.1875,2.66602 -1.777344,1.98242 c -0.501292,0.27349 -0.888661,0.41021 -1.162109,0.41016 -0.364572,5e-5 -1.321603,-0.91141 -2.871094,-2.73438 l -2.153321,-2.46093 0,-1.26465 2.563477,-3.48633 c 0.638034,-0.86583 1.276054,-1.48106 1.914063,-1.8457 0.638031,6e-5 2.529305,1.7774 5.673828,5.33203 l 0.06836,0.71777 -0.06836,0.68359"
       style="font-size:70px;stroke:#3f3b0d;stroke-width:2;font-family:Sanskrit 2003"
       id="path3765" />
  </g>
  <g
     style="font-size:70px;fill:#fbf9ea;font-family:Sanskrit 2003"
     id="text3737">
    <path
       d="m 101.52148,258.04395 -3.828121,0 0,37.52929 c -3e-5,1.75456 -0.262074,2.63184 -0.786132,2.63184 -0.432973,0 -1.082386,-0.35319 -1.948243,-1.05957 l -1.948242,-1.60645 c -1.526717,-1.27604 -2.278669,-3.09895 -2.255859,-5.46875 l 0.03418,-2.49511 0.307618,-2.22168 -0.06836,-1.16211 c -0.0456,-0.63801 -0.136742,-1.20767 -0.273437,-1.70899 l -2.358399,0.5127 -1.640625,0.10254 -1.469726,0 c -2.005225,10e-6 -3.736994,-0.36457 -5.195313,-1.09375 -0.59246,-0.29621 -1.914073,-1.25324 -3.964843,-2.8711 -1.777352,-1.38995 -2.916673,-2.35837 -3.417969,-2.90527 -1.116541,-1.16209 -1.845707,-2.43813 -2.1875,-3.82813 l 0,-14.35546 -3.520508,0 0,-5.33204 34.52148,0 0,5.33204 m -9.946285,15.51757 0,-15.51757 -15.039062,0 0,16.44042 c 0.136709,1.13935 0.546865,1.99384 1.230469,2.56348 0.774728,0.50132 1.731758,0.75197 2.871093,0.75195 l 2.084961,-0.20507 2.084961,-0.54688 c 1.503887,-0.38735 2.643209,-0.77472 3.417969,-1.16211 1.20766,-0.59242 2.324195,-1.36716 3.349609,-2.32422"
       style="font-size:70px;fill:#fbf9ea;font-family:Sanskrit 2003"
       id="path3758" />
    <path
       d="m 99.84668,244.9873 -2.1875,2.66602 -1.777344,1.98242 c -0.501292,0.27349 -0.888661,0.41021 -1.162109,0.41016 -0.364572,5e-5 -1.321603,-0.91141 -2.871094,-2.73438 l -2.153321,-2.46093 0,-1.26465 2.563477,-3.48633 c 0.638034,-0.86583 1.276054,-1.48106 1.914063,-1.8457 0.638031,6e-5 2.529305,1.7774 5.673828,5.33203 l 0.06836,0.71777 -0.06836,0.68359"
       style="font-size:70px;fill:#fbf9ea;font-family:Sanskrit 2003"
       id="path3760" />
  </g>
  <g
     style="font-size:70px;stroke:#3f3b0d;stroke-width:2;font-family:Sanskrit 2003"
     id="text3739">
    <path
       d="m 207.24512,114.04395 -19.82422,0 0.0342,12.81738 c 1.75453,-0.54685 3.28122,-0.82029 4.58008,-0.82031 2.48369,2e-5 4.69397,0.91148 6.63086,2.73437 0.68355,0.63805 2.03934,2.42678 4.06738,5.36621 1.52665,2.21031 2.28999,5.30926 2.29004,9.29688 -5e-5,4.35222 -0.83175,7.63346 -2.49512,9.84375 -0.18233,0.25065 -0.43298,0.37597 -0.75195,0.37597 -0.50135,0 -1.2419,-0.54687 -2.22168,-1.64062 l -1.43555,-1.60645 -1.70898,-1.6748 c -0.63806,-0.75195 -0.95707,-1.32161 -0.95704,-1.70899 -3e-5,-0.27343 0.15948,-0.58104 0.47852,-0.92285 1.68616,-1.77733 2.75712,-3.15591 3.21289,-4.13574 0.56962,-1.20767 0.85445,-2.91665 0.85449,-5.12695 -4e-5,-3.37238 -1.09378,-5.11554 -3.28125,-5.2295 l -1.333,-0.0684 c -1.5723,-0.0911 -3.00785,0.13674 -4.30665,0.68359 l -3.41796,1.36719 0,19.37988 c -3e-5,0.77474 -0.20511,1.1849 -0.61524,1.23047 -0.38739,0 -1.03681,-0.30762 -1.94824,-0.92285 -1.34442,-0.93425 -2.15334,-1.66341 -2.42676,-2.1875 -1.00262,-1.11654 -1.49253,-2.27864 -1.46972,-3.48633 l 0.0342,-10.83496 c -3.25848,1e-5 -5.79916,-0.34178 -7.62207,-1.02539 -1.80014,-0.70636 -3.93067,-2.13052 -6.3916,-4.27246 -2.71159,-2.36977 -4.06738,-4.69399 -4.06738,-6.97266 l 0,-10.45898 -2.15332,0 0,-5.33204 46.24512,0 0,5.33204 m -26.0791,15.3125 0,-15.3125 -11.82618,0 0,10.39062 c -0.0228,1.41279 0.14811,2.89391 0.5127,4.44336 0.45572,1.93687 1.67479,2.9053 3.65723,2.90527 1.18488,3e-5 2.56346,-0.27341 4.13574,-0.82031 0.82029,-0.27341 1.99379,-0.80889 3.52051,-1.60644"
       style="font-size:70px;stroke:#3f3b0d;stroke-width:2;font-family:Sanskrit 2003"
       id="path3753" />
    <path
       d="m 189.19824,100.9873 -2.1875,2.66602 -1.77734,1.98242 c -0.50129,0.27349 -0.88866,0.41021 -1.16211,0.41016 -0.36457,5e-5 -1.3216,-0.91141 -2.87109,-2.73438 l -2.15333,-2.46093 0,-1.264653 2.56348,-3.486328 c 0.63804,-0.865827 1.27606,-1.48106 1.91406,-1.845703 0.63804,6e-5 2.52931,1.777402 5.67383,5.332031 l 0.0684,0.717773 -0.0684,0.68359"
       style="font-size:70px;stroke:#3f3b0d;stroke-width:2;font-family:Sanskrit 2003"
       id="path3755" />
  </g>
  <g
     style="font-size:70px;fill:#fbf9ea;font-family:Sanskrit 2003"
     id="text3741">
    <path
       d="m 207.24512,114.04395 -19.82422,0 0.0342,12.81738 c 1.75453,-0.54685 3.28122,-0.82029 4.58008,-0.82031 2.48369,2e-5 4.69397,0.91148 6.63086,2.73437 0.68355,0.63805 2.03934,2.42678 4.06738,5.36621 1.52665,2.21031 2.28999,5.30926 2.29004,9.29688 -5e-5,4.35222 -0.83175,7.63346 -2.49512,9.84375 -0.18233,0.25065 -0.43298,0.37597 -0.75195,0.37597 -0.50135,0 -1.2419,-0.54687 -2.22168,-1.64062 l -1.43555,-1.60645 -1.70898,-1.6748 c -0.63806,-0.75195 -0.95707,-1.32161 -0.95704,-1.70899 -3e-5,-0.27343 0.15948,-0.58104 0.47852,-0.92285 1.68616,-1.77733 2.75712,-3.15591 3.21289,-4.13574 0.56962,-1.20767 0.85445,-2.91665 0.85449,-5.12695 -4e-5,-3.37238 -1.09378,-5.11554 -3.28125,-5.2295 l -1.333,-0.0684 c -1.5723,-0.0911 -3.00785,0.13674 -4.30665,0.68359 l -3.41796,1.36719 0,19.37988 c -3e-5,0.77474 -0.20511,1.1849 -0.61524,1.23047 -0.38739,0 -1.03681,-0.30762 -1.94824,-0.92285 -1.34442,-0.93425 -2.15334,-1.66341 -2.42676,-2.1875 -1.00262,-1.11654 -1.49253,-2.27864 -1.46972,-3.48633 l 0.0342,-10.83496 c -3.25848,1e-5 -5.79916,-0.34178 -7.62207,-1.02539 -1.80014,-0.70636 -3.93067,-2.13052 -6.3916,-4.27246 -2.71159,-2.36977 -4.06738,-4.69399 -4.06738,-6.97266 l 0,-10.45898 -2.15332,0 0,-5.33204 46.24512,0 0,5.33204 m -26.0791,15.3125 0,-15.3125 -11.82618,0 0,10.39062 c -0.0228,1.41279 0.14811,2.89391 0.5127,4.44336 0.45572,1.93687 1.67479,2.9053 3.65723,2.90527 1.18488,3e-5 2.56346,-0.27341 4.13574,-0.82031 0.82029,-0.27341 1.99379,-0.80889 3.52051,-1.60644"
       style="font-size:70px;fill:#fbf9ea;font-family:Sanskrit 2003"
       id="path3748" />
    <path
       d="m 189.19824,100.9873 -2.1875,2.66602 -1.77734,1.98242 c -0.50129,0.27349 -0.88866,0.41021 -1.16211,0.41016 -0.36457,5e-5 -1.3216,-0.91141 -2.87109,-2.73438 l -2.15333,-2.46093 0,-1.264653 2.56348,-3.486328 c 0.63804,-0.865827 1.27606,-1.48106 1.91406,-1.845703 0.63804,6e-5 2.52931,1.777402 5.67383,5.332031 l 0.0684,0.717773 -0.0684,0.68359"
       style="font-size:70px;fill:#fbf9ea;font-family:Sanskrit 2003"
       id="path3750" />
  </g>
</svg>
