<?xml version="1.0" encoding="UTF-8" standalone="no"?>
<!-- Svādhiṣṭhāna-chakra image created by Holger Koch http://www.premaloka.de/kontakt License: public domain -->

<svg
   xmlns:dc="http://purl.org/dc/elements/1.1/"
   xmlns:cc="http://creativecommons.org/ns#"
   xmlns:rdf="http://www.w3.org/1999/02/22-rdf-syntax-ns#"
   xmlns:svg="http://www.w3.org/2000/svg"
   xmlns="http://www.w3.org/2000/svg"
   xmlns:xlink="http://www.w3.org/1999/xlink"
   xmlns:sodipodi="http://sodipodi.sourceforge.net/DTD/sodipodi-0.dtd"
   xmlns:inkscape="http://www.inkscape.org/namespaces/inkscape"
   version="1.1"
   width="700px"
   height="700px"
   id="svg3284"
   inkscape:version="0.48.4 r9939"
   sodipodi:docname="chakra2.svg">
  <metadata
     id="metadata3349">
    <rdf:RDF>
      <cc:Work
         rdf:about="">
        <dc:format>image/svg+xml</dc:format>
        <dc:type
           rdf:resource="http://purl.org/dc/dcmitype/StillImage" />
        <dc:title>Svādhiṣṭhāna Chakra</dc:title>
      </cc:Work>
    </rdf:RDF>
  </metadata>
  <sodipodi:namedview
     pagecolor="#ffffff"
     bordercolor="#666666"
     borderopacity="1"
     objecttolerance="10"
     gridtolerance="10"
     guidetolerance="10"
     inkscape:pageopacity="0"
     inkscape:pageshadow="2"
     inkscape:window-width="640"
     inkscape:window-height="480"
     id="namedview3347"
     showgrid="false"
     inkscape:zoom="0.33714286"
     inkscape:cx="350"
     inkscape:cy="350"
     inkscape:window-x="0"
     inkscape:window-y="0"
     inkscape:window-maximized="0"
     inkscape:current-layer="svg3284" />
  <title
     id="title3286">Svādhiṣṭhāna Chakra</title>
  <defs
     id="defs3288">
    <filter
       id="blur"
       x="-40%"
       y="-40%"
       width="200%"
       height="200%">
      <feGaussianBlur
         in="SourceGraphic"
         stdDeviation="14"
         id="feGaussianBlur3291" />
    </filter>
    <radialGradient
       id="grad1"
       gradientUnits="userSpaceOnUse"
       cx="350"
       cy="350"
       r="350">
      <stop
         offset="70%"
         stop-color="#e9bf96"
         id="stop3294" />
      <stop
         offset="84.5%"
         stop-color="#bd7328"
         id="stop3296" />
    </radialGradient>
    <path
       id="petal1"
       stroke-linejoin="round"
       stroke-width="4"
       stroke="#7e4d1b"
       fill="url(#grad1)"
       d="M 227.5 137.82377607281 C 227.5,66.773776072813 350,74.55 350,3.5 C 350,74.55 472.5,66.773776072813 472.5,137.82377607281 L 350 350 Z" />
  </defs>
  <use
     xlink:href="#petal1"
     id="use3299" />
  <use
     xlink:href="#petal1"
     transform="rotate(60 350 350)"
     id="use3301" />
  <use
     xlink:href="#petal1"
     transform="rotate(120 350 350)"
     id="use3303" />
  <use
     xlink:href="#petal1"
     transform="rotate(180 350 350)"
     id="use3305" />
  <use
     xlink:href="#petal1"
     transform="rotate(240 350 350)"
     id="use3307" />
  <use
     xlink:href="#petal1"
     transform="rotate(300 350 350)"
     id="use3309" />
  <path
     style="fill:#d2802d;stroke:#7e4d1b;stroke-width:7"
     d="M 595,350 C 595,485.30976 485.30976,595 350,595 214.69024,595 105,485.30976 105,350 105,214.69024 214.69024,105 350,105 c 135.30976,0 245,109.69024 245,245 z"
     id="circle3311" />
  <path
     style="fill:none;stroke:#7e4d1b;stroke-width:4"
     d="m 546,350 c 0,108.24781 -87.75219,196 -196,196 -108.24781,0 -196,-87.75219 -196,-196 0,-108.24781 87.75219,-196 196,-196 108.24781,0 196,87.75219 196,196 z"
     id="circle3313" />
  <path
     fill="#db9957"
     stroke-width="4"
     stroke="#7e4d1b"
     d="M 154 350 A 196,122.5 0 0,0 546,350 A 196,196 0 0,1 154 350"
     id="path3315" />
  <g
     style="font-size:245px;fill:#ffffff;stroke:#fbf2ea;stroke-width:7;filter:url(#blur);font-family:Sanskrit 2003"
     id="text3317">
    <path
       d="m 404.89258,280.15381 -18.1836,0 0.11963,134.104 c -1e-4,3.90788 -0.79763,5.86182 -2.39257,5.86182 -1.51541,0 -5.10427,-2.87109 -10.76661,-8.61328 -5.66252,-5.74218 -8.37411,-14.4352 -8.13476,-26.0791 l 0.23926,-11.00586 -2.15332,-0.71778 c -1.35588,0.31906 -2.27304,0.63807 -2.75147,0.95703 l -2.75146,1.67481 c -7.89558,3.74841 -15.55182,5.6226 -22.96875,5.62256 -12.44145,4e-5 -22.96879,-5.18388 -31.58204,-15.55176 -9.49057,-11.48431 -14.23584,-22.2509 -14.23584,-32.2998 0,-14.51488 7.41698,-23.52691 22.25098,-27.03614 4.78512,-1.11642 10.76656,-1.67469 17.94434,-1.6748 5.98139,1.1e-4 11.48431,1.55529 16.50879,4.66553 l 19.02099,11.72363 0,-41.63086 -85.05615,0 0,-18.66211 124.89258,0 0,18.66211 m -39.59717,66.03515 0,-19.02099 c -7.81583,-2.63174 -15.87084,-3.94766 -24.16504,-3.94776 -21.37374,10e-5 -32.89798,9.01214 -34.57275,27.03614 -3e-5,8.29433 5.14401,12.44146 15.43213,12.4414 1.91401,6e-5 4.94461,-0.3987 9.09179,-1.19629 7.49669,-1.43548 13.3585,-3.07041 17.58545,-4.90478 4.78508,-2.0735 10.32789,-5.54274 16.62842,-10.40772"
       style="font-size:245px;fill:#ffffff;stroke:#fbf2ea;stroke-width:7;filter:url(#blur);font-family:Sanskrit 2003"
       id="path3422" />
    <path
       d="m 392.21191,234.45557 -7.65625,9.33105 -6.2207,6.93848 c -1.75452,0.9572 -3.11031,1.43571 -4.06738,1.43554 -1.276,1.7e-4 -4.62561,-3.18993 -10.04883,-9.57031 l -7.53662,-8.61328 0,-4.42627 8.97217,-12.20215 c 2.23311,-3.03039 4.46619,-5.18371 6.69922,-6.45996 2.23311,2.1e-4 8.85257,6.22091 19.85839,18.66211 l 0.23926,2.51221 -0.23926,2.39258"
       style="font-size:245px;fill:#ffffff;stroke:#fbf2ea;stroke-width:7;filter:url(#blur);font-family:Sanskrit 2003"
       id="path3424" />
  </g>
  <g
     style="font-size:245px;stroke:#f2d9c0;stroke-width:4;font-family:Sanskrit 2003"
     id="text3319">
    <path
       d="m 404.89258,280.15381 -18.1836,0 0.11963,134.104 c -1e-4,3.90788 -0.79763,5.86182 -2.39257,5.86182 -1.51541,0 -5.10427,-2.87109 -10.76661,-8.61328 -5.66252,-5.74218 -8.37411,-14.4352 -8.13476,-26.0791 l 0.23926,-11.00586 -2.15332,-0.71778 c -1.35588,0.31906 -2.27304,0.63807 -2.75147,0.95703 l -2.75146,1.67481 c -7.89558,3.74841 -15.55182,5.6226 -22.96875,5.62256 -12.44145,4e-5 -22.96879,-5.18388 -31.58204,-15.55176 -9.49057,-11.48431 -14.23584,-22.2509 -14.23584,-32.2998 0,-14.51488 7.41698,-23.52691 22.25098,-27.03614 4.78512,-1.11642 10.76656,-1.67469 17.94434,-1.6748 5.98139,1.1e-4 11.48431,1.55529 16.50879,4.66553 l 19.02099,11.72363 0,-41.63086 -85.05615,0 0,-18.66211 124.89258,0 0,18.66211 m -39.59717,66.03515 0,-19.02099 c -7.81583,-2.63174 -15.87084,-3.94766 -24.16504,-3.94776 -21.37374,10e-5 -32.89798,9.01214 -34.57275,27.03614 -3e-5,8.29433 5.14401,12.44146 15.43213,12.4414 1.91401,6e-5 4.94461,-0.3987 9.09179,-1.19629 7.49669,-1.43548 13.3585,-3.07041 17.58545,-4.90478 4.78508,-2.0735 10.32789,-5.54274 16.62842,-10.40772"
       style="font-size:245px;stroke:#f2d9c0;stroke-width:4;font-family:Sanskrit 2003"
       id="path3417" />
    <path
       d="m 392.21191,234.45557 -7.65625,9.33105 -6.2207,6.93848 c -1.75452,0.9572 -3.11031,1.43571 -4.06738,1.43554 -1.276,1.7e-4 -4.62561,-3.18993 -10.04883,-9.57031 l -7.53662,-8.61328 0,-4.42627 8.97217,-12.20215 c 2.23311,-3.03039 4.46619,-5.18371 6.69922,-6.45996 2.23311,2.1e-4 8.85257,6.22091 19.85839,18.66211 l 0.23926,2.51221 -0.23926,2.39258"
       style="font-size:245px;stroke:#f2d9c0;stroke-width:4;font-family:Sanskrit 2003"
       id="path3419" />
  </g>
  <g
     style="font-size:245px;fill:#3f260d;font-family:Sanskrit 2003"
     id="text3321">
    <path
       d="m 404.89258,280.15381 -18.1836,0 0.11963,134.104 c -1e-4,3.90788 -0.79763,5.86182 -2.39257,5.86182 -1.51541,0 -5.10427,-2.87109 -10.76661,-8.61328 -5.66252,-5.74218 -8.37411,-14.4352 -8.13476,-26.0791 l 0.23926,-11.00586 -2.15332,-0.71778 c -1.35588,0.31906 -2.27304,0.63807 -2.75147,0.95703 l -2.75146,1.67481 c -7.89558,3.74841 -15.55182,5.6226 -22.96875,5.62256 -12.44145,4e-5 -22.96879,-5.18388 -31.58204,-15.55176 -9.49057,-11.48431 -14.23584,-22.2509 -14.23584,-32.2998 0,-14.51488 7.41698,-23.52691 22.25098,-27.03614 4.78512,-1.11642 10.76656,-1.67469 17.94434,-1.6748 5.98139,1.1e-4 11.48431,1.55529 16.50879,4.66553 l 19.02099,11.72363 0,-41.63086 -85.05615,0 0,-18.66211 124.89258,0 0,18.66211 m -39.59717,66.03515 0,-19.02099 c -7.81583,-2.63174 -15.87084,-3.94766 -24.16504,-3.94776 -21.37374,10e-5 -32.89798,9.01214 -34.57275,27.03614 -3e-5,8.29433 5.14401,12.44146 15.43213,12.4414 1.91401,6e-5 4.94461,-0.3987 9.09179,-1.19629 7.49669,-1.43548 13.3585,-3.07041 17.58545,-4.90478 4.78508,-2.0735 10.32789,-5.54274 16.62842,-10.40772"
       style="font-size:245px;fill:#3f260d;font-family:Sanskrit 2003"
       id="path3412" />
    <path
       d="m 392.21191,234.45557 -7.65625,9.33105 -6.2207,6.93848 c -1.75452,0.9572 -3.11031,1.43571 -4.06738,1.43554 -1.276,1.7e-4 -4.62561,-3.18993 -10.04883,-9.57031 l -7.53662,-8.61328 0,-4.42627 8.97217,-12.20215 c 2.23311,-3.03039 4.46619,-5.18371 6.69922,-6.45996 2.23311,2.1e-4 8.85257,6.22091 19.85839,18.66211 l 0.23926,2.51221 -0.23926,2.39258"
       style="font-size:245px;fill:#3f260d;font-family:Sanskrit 2003"
       id="path3414" />
  </g>
  <g
     style="font-size:70px;stroke:#3f260d;stroke-width:2;font-family:Sanskrit 2003"
     id="text3323">
    <path
       d="m 364.58105,58.043945 -4.40918,0 0.0342,39.272461 C 360.04652,97.772136 359.9098,98 359.7959,98 c -0.47855,0 -2.14196,-1.401366 -4.99024,-4.204102 -0.52411,-0.638016 -0.78615,-1.367181 -0.78613,-2.1875 l 0,-6.186523 -0.82031,-0.683594 c -2.7344,1.868501 -5.55992,2.802745 -8.47656,2.802735 -1.89129,1e-5 -3.63446,-0.524078 -5.2295,-1.572266 -5.53711,-3.623031 -8.30566,-7.941061 -8.30566,-12.954102 0,-2.71156 1.29882,-4.76234 3.89648,-6.152343 2.09635,-1.116505 4.61425,-1.674772 7.55372,-1.674805 1.91404,3.3e-5 4.23826,0.763378 6.97265,2.290039 2.75714,1.526722 4.26104,2.290067 4.51172,2.290039 l 0,-11.723633 -25.12207,0 0,-5.332031 35.58105,0 0,5.332031 m -10.45898,13.979492 c -0.15953,-0.455702 -1.28746,-0.854465 -3.38379,-1.196289 -1.57228,-0.250623 -2.87111,-0.375949 -3.89648,-0.375976 -1.61786,2.7e-5 -2.83693,0.193712 -3.65723,0.581055 l 1.94824,3.315429 3.72559,5.639649 c 1.04815,-0.250633 2.21026,-0.84308 3.48633,-1.777344 0.66078,-0.478495 1.21905,-0.968404 1.6748,-1.469727 l 0.10254,-4.716797 m -7.45117,8.989258 c -0.38739,-0.797508 -0.97984,-1.90265 -1.77735,-3.315429 -0.0912,-0.159485 -0.29623,-0.489888 -0.61523,-0.991211 l -3.24707,-5.092774 c -3.16733,1.481145 -4.75098,3.759789 -4.75098,6.835938 0.22786,2.415381 1.81152,3.623063 4.75098,3.623047 1.64061,1.6e-5 3.52049,-0.353174 5.63965,-1.059571"
       style="font-size:70px;stroke:#3f260d;stroke-width:2;font-family:Sanskrit 2003"
       id="path3407" />
    <path
       d="m 362.01758,44.987305 -2.1875,2.666015 -1.77735,1.982422 c -0.50129,0.273485 -0.88866,0.410204 -1.16211,0.410156 -0.36457,4.8e-5 -1.3216,-0.911409 -2.87109,-2.734375 l -2.15332,-2.460937 0,-1.264649 2.56348,-3.486328 c 0.63803,-0.865827 1.27605,-1.48106 1.91406,-1.845703 0.63803,6e-5 2.52931,1.777402 5.67383,5.332031 l 0.0684,0.717774 -0.0684,0.683594"
       style="font-size:70px;stroke:#3f260d;stroke-width:2;font-family:Sanskrit 2003"
       id="path3409" />
  </g>
  <g
     style="font-size:70px;fill:#fbf2ea;font-family:Sanskrit 2003"
     id="text3325">
    <path
       d="m 364.58105,58.043945 -4.40918,0 0.0342,39.272461 C 360.04652,97.772136 359.9098,98 359.7959,98 c -0.47855,0 -2.14196,-1.401366 -4.99024,-4.204102 -0.52411,-0.638016 -0.78615,-1.367181 -0.78613,-2.1875 l 0,-6.186523 -0.82031,-0.683594 c -2.7344,1.868501 -5.55992,2.802745 -8.47656,2.802735 -1.89129,1e-5 -3.63446,-0.524078 -5.2295,-1.572266 -5.53711,-3.623031 -8.30566,-7.941061 -8.30566,-12.954102 0,-2.71156 1.29882,-4.76234 3.89648,-6.152343 2.09635,-1.116505 4.61425,-1.674772 7.55372,-1.674805 1.91404,3.3e-5 4.23826,0.763378 6.97265,2.290039 2.75714,1.526722 4.26104,2.290067 4.51172,2.290039 l 0,-11.723633 -25.12207,0 0,-5.332031 35.58105,0 0,5.332031 m -10.45898,13.979492 c -0.15953,-0.455702 -1.28746,-0.854465 -3.38379,-1.196289 -1.57228,-0.250623 -2.87111,-0.375949 -3.89648,-0.375976 -1.61786,2.7e-5 -2.83693,0.193712 -3.65723,0.581055 l 1.94824,3.315429 3.72559,5.639649 c 1.04815,-0.250633 2.21026,-0.84308 3.48633,-1.777344 0.66078,-0.478495 1.21905,-0.968404 1.6748,-1.469727 l 0.10254,-4.716797 m -7.45117,8.989258 c -0.38739,-0.797508 -0.97984,-1.90265 -1.77735,-3.315429 -0.0912,-0.159485 -0.29623,-0.489888 -0.61523,-0.991211 l -3.24707,-5.092774 c -3.16733,1.481145 -4.75098,3.759789 -4.75098,6.835938 0.22786,2.415381 1.81152,3.623063 4.75098,3.623047 1.64061,1.6e-5 3.52049,-0.353174 5.63965,-1.059571"
       style="font-size:70px;fill:#fbf2ea;font-family:Sanskrit 2003"
       id="path3402" />
    <path
       d="m 362.01758,44.987305 -2.1875,2.666015 -1.77735,1.982422 c -0.50129,0.273485 -0.88866,0.410204 -1.16211,0.410156 -0.36457,4.8e-5 -1.3216,-0.911409 -2.87109,-2.734375 l -2.15332,-2.460937 0,-1.264649 2.56348,-3.486328 c 0.63803,-0.865827 1.27605,-1.48106 1.91406,-1.845703 0.63803,6e-5 2.52931,1.777402 5.67383,5.332031 l 0.0684,0.717774 -0.0684,0.683594"
       style="font-size:70px;fill:#fbf2ea;font-family:Sanskrit 2003"
       id="path3404" />
  </g>
  <g
     style="font-size:70px;stroke:#3f260d;stroke-width:2;font-family:Sanskrit 2003"
     id="text3327">
    <path
       d="m 614.94727,205.04395 -3.99903,0 0,38.62304 c -3e-5,0.95703 -0.17093,1.43555 -0.51269,1.43555 -0.43298,0 -1.05961,-0.47852 -1.87989,-1.43555 l -2.56347,-2.11914 c -0.86592,-0.70637 -1.2419,-1.87988 -1.12793,-3.52051 l 0,-12.13379 -12.98828,0 c -0.50132,0.18232 -0.75197,0.72919 -0.75196,1.64063 -10e-6,3.94207 -1.10516,5.9131 -3.31543,5.91309 -1.04819,1e-5 -2.39259,-0.90006 -4.0332,-2.7002 l -2.25586,-2.46094 c -2.30144,-2.50649 -3.45215,-4.30662 -3.45215,-5.40039 0,-1.8001 0.82031,-2.75713 2.46094,-2.87109 l 2.56348,-0.1709 c 0.41014,-0.0228 0.67219,-0.0683 0.78613,-0.13672 l 0.54687,-0.23926 0.27344,-1.60644 0,-7.10938 -0.30762,-2.66601 c -10e-6,-0.70635 -0.33041,-1.26461 -0.99121,-1.67481 l -1.333,-0.13672 c -0.77475,4e-5 -1.61785,0.17094 -2.5293,0.5127 -1.32162,0.50134 -2.27865,0.79756 -2.87109,0.88867 -1.13933,-0.0228 -2.028,-0.90003 -2.66602,-2.63183 l 0,-5.33204 4.16992,0 c 2.73437,5e-5 5.44596,1.61789 8.13477,4.85352 1.89126,2.11918 3.13312,3.82816 3.72558,5.12695 0.29621,0.15954 0.45572,1.81156 0.47852,4.95606 0.0456,3.28127 0.19367,5.0928 0.44433,5.43457 l 13.91114,0 0,-15.03906 -8.88672,0 -4.58008,-5.33204 23.54981,0 0,5.33204"
       style="font-size:70px;stroke:#3f260d;stroke-width:2;font-family:Sanskrit 2003"
       id="path3397" />
    <path
       d="m 612.72559,191.9873 -2.1875,2.66602 -1.77735,1.98242 c -0.50129,0.27349 -0.88866,0.41021 -1.16211,0.41016 -0.36457,5e-5 -1.3216,-0.91141 -2.87109,-2.73438 l -2.15332,-2.46093 0,-1.26465 2.56348,-3.48633 c 0.63803,-0.86583 1.27605,-1.48106 1.91406,-1.8457 0.63803,6e-5 2.5293,1.7774 5.67383,5.33203 l 0.0684,0.71777 -0.0684,0.68359"
       style="font-size:70px;stroke:#3f260d;stroke-width:2;font-family:Sanskrit 2003"
       id="path3399" />
  </g>
  <g
     style="font-size:70px;fill:#fbf2ea;font-family:Sanskrit 2003"
     id="text3329">
    <path
       d="m 614.94727,205.04395 -3.99903,0 0,38.62304 c -3e-5,0.95703 -0.17093,1.43555 -0.51269,1.43555 -0.43298,0 -1.05961,-0.47852 -1.87989,-1.43555 l -2.56347,-2.11914 c -0.86592,-0.70637 -1.2419,-1.87988 -1.12793,-3.52051 l 0,-12.13379 -12.98828,0 c -0.50132,0.18232 -0.75197,0.72919 -0.75196,1.64063 -10e-6,3.94207 -1.10516,5.9131 -3.31543,5.91309 -1.04819,1e-5 -2.39259,-0.90006 -4.0332,-2.7002 l -2.25586,-2.46094 c -2.30144,-2.50649 -3.45215,-4.30662 -3.45215,-5.40039 0,-1.8001 0.82031,-2.75713 2.46094,-2.87109 l 2.56348,-0.1709 c 0.41014,-0.0228 0.67219,-0.0683 0.78613,-0.13672 l 0.54687,-0.23926 0.27344,-1.60644 0,-7.10938 -0.30762,-2.66601 c -10e-6,-0.70635 -0.33041,-1.26461 -0.99121,-1.67481 l -1.333,-0.13672 c -0.77475,4e-5 -1.61785,0.17094 -2.5293,0.5127 -1.32162,0.50134 -2.27865,0.79756 -2.87109,0.88867 -1.13933,-0.0228 -2.028,-0.90003 -2.66602,-2.63183 l 0,-5.33204 4.16992,0 c 2.73437,5e-5 5.44596,1.61789 8.13477,4.85352 1.89126,2.11918 3.13312,3.82816 3.72558,5.12695 0.29621,0.15954 0.45572,1.81156 0.47852,4.95606 0.0456,3.28127 0.19367,5.0928 0.44433,5.43457 l 13.91114,0 0,-15.03906 -8.88672,0 -4.58008,-5.33204 23.54981,0 0,5.33204"
       style="font-size:70px;fill:#fbf2ea;font-family:Sanskrit 2003"
       id="path3392" />
    <path
       d="m 612.72559,191.9873 -2.1875,2.66602 -1.77735,1.98242 c -0.50129,0.27349 -0.88866,0.41021 -1.16211,0.41016 -0.36457,5e-5 -1.3216,-0.91141 -2.87109,-2.73438 l -2.15332,-2.46093 0,-1.26465 2.56348,-3.48633 c 0.63803,-0.86583 1.27605,-1.48106 1.91406,-1.8457 0.63803,6e-5 2.5293,1.7774 5.67383,5.33203 l 0.0684,0.71777 -0.0684,0.68359"
       style="font-size:70px;fill:#fbf2ea;font-family:Sanskrit 2003"
       id="path3394" />
  </g>
  <g
     style="font-size:70px;stroke:#3f260d;stroke-width:2;font-family:Sanskrit 2003"
     id="text3331">
    <path
       d="m 615.18652,471.04395 -4.81933,0 0,38.04199 c 0.0911,1.41276 -0.17094,2.05078 -0.78614,1.91406 -0.56969,0.13672 -1.62926,-0.62663 -3.17871,-2.29004 -1.52672,-1.66341 -2.38121,-2.90527 -2.56347,-3.72559 l 0,-12.06542 -13.77442,0 c -0.79754,0.38738 -1.16212,0.94565 -1.09375,1.6748 l 0.13672,1.64062 0,0.8545 c -1e-5,0.38738 -0.0456,0.78614 -0.13672,1.19629 -10e-6,0.56967 -0.3532,1.04818 -1.05957,1.43554 -0.61524,0.34181 -1.23048,0.51271 -1.8457,0.5127 -1.23048,10e-6 -2.49513,-0.72916 -3.79395,-2.1875 l -3.11035,-3.52051 c -2.028,-1.70897 -3.04199,-3.34959 -3.04199,-4.92187 0,-1.95962 0.99121,-2.93943 2.97363,-2.93946 l 1.29883,0 0.99121,-0.0684 0.99121,-0.34179 0,-15.20996 -8.37402,0 0,-5.33204 41.18652,0 0,5.33204 m -11.14257,15.82519 0,-15.82519 -15.38086,0 0,15.82519 15.38086,0"
       style="font-size:70px;stroke:#3f260d;stroke-width:2;font-family:Sanskrit 2003"
       id="path3387" />
    <path
       d="m 612.04199,457.9873 -2.1875,2.66602 -1.77734,1.98242 c -0.50129,0.27349 -0.88866,0.41021 -1.16211,0.41016 -0.36457,5e-5 -1.3216,-0.91141 -2.87109,-2.73438 l -2.15333,-2.46093 0,-1.26465 2.56348,-3.48633 c 0.63804,-0.86583 1.27606,-1.48106 1.91406,-1.8457 0.63804,6e-5 2.52931,1.7774 5.67383,5.33203 l 0.0684,0.71777 -0.0684,0.68359"
       style="font-size:70px;stroke:#3f260d;stroke-width:2;font-family:Sanskrit 2003"
       id="path3389" />
  </g>
  <g
     style="font-size:70px;fill:#fbf2ea;font-family:Sanskrit 2003"
     id="text3333">
    <path
       d="m 615.18652,471.04395 -4.81933,0 0,38.04199 c 0.0911,1.41276 -0.17094,2.05078 -0.78614,1.91406 -0.56969,0.13672 -1.62926,-0.62663 -3.17871,-2.29004 -1.52672,-1.66341 -2.38121,-2.90527 -2.56347,-3.72559 l 0,-12.06542 -13.77442,0 c -0.79754,0.38738 -1.16212,0.94565 -1.09375,1.6748 l 0.13672,1.64062 0,0.8545 c -1e-5,0.38738 -0.0456,0.78614 -0.13672,1.19629 -10e-6,0.56967 -0.3532,1.04818 -1.05957,1.43554 -0.61524,0.34181 -1.23048,0.51271 -1.8457,0.5127 -1.23048,10e-6 -2.49513,-0.72916 -3.79395,-2.1875 l -3.11035,-3.52051 c -2.028,-1.70897 -3.04199,-3.34959 -3.04199,-4.92187 0,-1.95962 0.99121,-2.93943 2.97363,-2.93946 l 1.29883,0 0.99121,-0.0684 0.99121,-0.34179 0,-15.20996 -8.37402,0 0,-5.33204 41.18652,0 0,5.33204 m -11.14257,15.82519 0,-15.82519 -15.38086,0 0,15.82519 15.38086,0"
       style="font-size:70px;fill:#fbf2ea;font-family:Sanskrit 2003"
       id="path3382" />
    <path
       d="m 612.04199,457.9873 -2.1875,2.66602 -1.77734,1.98242 c -0.50129,0.27349 -0.88866,0.41021 -1.16211,0.41016 -0.36457,5e-5 -1.3216,-0.91141 -2.87109,-2.73438 l -2.15333,-2.46093 0,-1.26465 2.56348,-3.48633 c 0.63804,-0.86583 1.27606,-1.48106 1.91406,-1.8457 0.63804,6e-5 2.52931,1.7774 5.67383,5.33203 l 0.0684,0.71777 -0.0684,0.68359"
       style="font-size:70px;fill:#fbf2ea;font-family:Sanskrit 2003"
       id="path3384" />
  </g>
  <g
     style="font-size:70px;stroke:#3f260d;stroke-width:2;font-family:Sanskrit 2003"
     id="text3335">
    <path
       d="m 365.0332,618.04395 -4.30664,0 0.0342,39.16992 c -3e-5,0.47851 -0.10257,0.74056 -0.30762,0.78613 -0.25068,0 -0.77477,-0.3304 -1.57226,-0.99121 l -3.62305,-3.69141 c -0.59247,-0.59244 -0.97984,-1.13931 -1.16211,-1.64062 l -0.23925,-2.08496 0.13671,-2.5293 0.10254,-2.59766 c 0.0228,-0.66079 -0.15953,-0.99119 -0.54687,-0.99121 -0.22789,2e-5 -0.51272,0.11395 -0.85449,0.3418 -1.77737,1.20769 -4.04462,1.81154 -6.80176,1.81152 -4.99025,2e-5 -9.51336,-3.04197 -13.56934,-9.12597 l -2.25586,-3.38379 c -1.36719,-2.05076 -2.09635,-3.33819 -2.1875,-3.86231 0,-0.63799 0.30762,-1.02536 0.92285,-1.16211 l 2.5293,-0.10254 c 2.5065,-0.0911 4.30663,-0.47848 5.40039,-1.16211 1.5039,-0.88863 2.25585,-2.47229 2.25586,-4.75097 -10e-6,-1.70895 -0.34181,-3.05335 -1.02539,-4.0332 l -11.96289,0 0,-5.33204 39.0332,0 0,5.33204 m -10.66406,0 -13.15918,0 c -1e-5,1.02542 0.17088,2.32425 0.5127,3.89648 l 0.82031,3.8623 0.47851,2.90528 c -10e-6,1.84573 -1.43556,3.39521 -4.30664,4.64844 l -2.87109,0.61523 c -0.6836,0.13674 -1.0254,0.52411 -1.02539,1.16211 -0.0228,1.32164 0.92284,2.48374 2.83691,3.48633 1.64062,0.8659 3.1787,1.29884 4.61426,1.29883 2.89386,10e-6 5.55988,-0.80891 7.99805,-2.42676 2.71156,-1.80011 4.07875,-4.03318 4.10156,-6.69922 l 0,-12.74902"
       style="font-size:70px;stroke:#3f260d;stroke-width:2;font-family:Sanskrit 2003"
       id="path3377" />
    <path
       d="m 362.46973,604.9873 -2.1875,2.66602 -1.77735,1.98242 c -0.50129,0.27349 -0.88866,0.41021 -1.16211,0.41016 -0.36457,5e-5 -1.3216,-0.91141 -2.87109,-2.73438 l -2.15332,-2.46093 0,-1.26465 2.56348,-3.48633 c 0.63803,-0.86583 1.27605,-1.48106 1.91406,-1.8457 0.63803,6e-5 2.5293,1.7774 5.67383,5.33203 l 0.0684,0.71777 -0.0684,0.68359"
       style="font-size:70px;stroke:#3f260d;stroke-width:2;font-family:Sanskrit 2003"
       id="path3379" />
  </g>
  <g
     style="font-size:70px;fill:#fbf2ea;font-family:Sanskrit 2003"
     id="text3337">
    <path
       d="m 365.0332,618.04395 -4.30664,0 0.0342,39.16992 c -3e-5,0.47851 -0.10257,0.74056 -0.30762,0.78613 -0.25068,0 -0.77477,-0.3304 -1.57226,-0.99121 l -3.62305,-3.69141 c -0.59247,-0.59244 -0.97984,-1.13931 -1.16211,-1.64062 l -0.23925,-2.08496 0.13671,-2.5293 0.10254,-2.59766 c 0.0228,-0.66079 -0.15953,-0.99119 -0.54687,-0.99121 -0.22789,2e-5 -0.51272,0.11395 -0.85449,0.3418 -1.77737,1.20769 -4.04462,1.81154 -6.80176,1.81152 -4.99025,2e-5 -9.51336,-3.04197 -13.56934,-9.12597 l -2.25586,-3.38379 c -1.36719,-2.05076 -2.09635,-3.33819 -2.1875,-3.86231 0,-0.63799 0.30762,-1.02536 0.92285,-1.16211 l 2.5293,-0.10254 c 2.5065,-0.0911 4.30663,-0.47848 5.40039,-1.16211 1.5039,-0.88863 2.25585,-2.47229 2.25586,-4.75097 -10e-6,-1.70895 -0.34181,-3.05335 -1.02539,-4.0332 l -11.96289,0 0,-5.33204 39.0332,0 0,5.33204 m -10.66406,0 -13.15918,0 c -1e-5,1.02542 0.17088,2.32425 0.5127,3.89648 l 0.82031,3.8623 0.47851,2.90528 c -10e-6,1.84573 -1.43556,3.39521 -4.30664,4.64844 l -2.87109,0.61523 c -0.6836,0.13674 -1.0254,0.52411 -1.02539,1.16211 -0.0228,1.32164 0.92284,2.48374 2.83691,3.48633 1.64062,0.8659 3.1787,1.29884 4.61426,1.29883 2.89386,10e-6 5.55988,-0.80891 7.99805,-2.42676 2.71156,-1.80011 4.07875,-4.03318 4.10156,-6.69922 l 0,-12.74902"
       style="font-size:70px;fill:#fbf2ea;font-family:Sanskrit 2003"
       id="path3372" />
    <path
       d="m 362.46973,604.9873 -2.1875,2.66602 -1.77735,1.98242 c -0.50129,0.27349 -0.88866,0.41021 -1.16211,0.41016 -0.36457,5e-5 -1.3216,-0.91141 -2.87109,-2.73438 l -2.15332,-2.46093 0,-1.26465 2.56348,-3.48633 c 0.63803,-0.86583 1.27605,-1.48106 1.91406,-1.8457 0.63803,6e-5 2.5293,1.7774 5.67383,5.33203 l 0.0684,0.71777 -0.0684,0.68359"
       style="font-size:70px;fill:#fbf2ea;font-family:Sanskrit 2003"
       id="path3374" />
  </g>
  <g
     style="font-size:70px;stroke:#3f260d;stroke-width:2;font-family:Sanskrit 2003"
     id="text3339">
    <path
       d="m 119.54004,471.04395 -9.16016,0 c -2e-5,0.68363 0.0228,1.37861 0.0684,2.08496 0.0456,0.50134 0.11391,1.41279 0.20508,2.73437 l 0.30762,4.75098 c 0.0456,0.70641 0.0683,1.27607 0.0684,1.70898 -2e-5,4.39781 -1.09377,8.18036 -3.28125,11.34766 -0.88869,1.29884 -1.33303,2.49513 -1.33301,3.58887 -2e-5,0.88868 0.28481,1.64063 0.85449,2.25585 1.70897,1.89129 3.38377,3.3952 5.02442,4.51172 l 5.43457,3.72559 c 1.20765,0.82031 1.81149,1.91406 1.81152,3.28125 -3e-5,1.11653 -0.46715,1.6748 -1.40137,1.6748 -0.59247,0 -1.23049,-0.28483 -1.91406,-0.85449 l -6.04981,-5.02441 -5.91308,-5.19531 c -1.61785,-1.41275 -3.46355,-3.39517 -5.537111,-5.94727 -0.250658,-0.29621 -0.774746,-1.00259 -1.572265,-2.11914 -0.843105,-1.04816 -1.971033,-2.71157 -3.383789,-4.99024 -0.182295,-0.38734 -0.330406,-0.76332 -0.444336,-1.12792 l -0.307617,-1.98243 c -2e-6,-2.55205 0.979814,-3.82809 2.939453,-3.82812 0.638015,3e-5 1.606438,0.29625 2.905273,0.88867 1.298822,0.56969 2.278632,0.85452 2.939452,0.85449 0.54686,3e-5 0.9912,-0.0911 1.33301,-0.27344 0.9798,-1.43551 1.46971,-3.46351 1.46973,-6.08398 -2e-5,-1.52666 -0.11395,-2.90524 -0.3418,-4.13574 -0.0456,-0.66077 -0.15952,-1.276 -0.3418,-1.8457 l -12.91992,0 0,-5.33204 28.54004,0 0,5.33204"
       style="font-size:70px;stroke:#3f260d;stroke-width:2;font-family:Sanskrit 2003"
       id="path3367" />
    <path
       d="m 112.25977,457.9873 -2.1875,2.66602 -1.77735,1.98242 c -0.50129,0.27349 -0.88866,0.41021 -1.16211,0.41016 -0.36457,5e-5 -1.3216,-0.91141 -2.87109,-2.73438 l -2.15332,-2.46093 0,-1.26465 2.56348,-3.48633 c 0.63803,-0.86583 1.27605,-1.48106 1.91406,-1.8457 0.63803,6e-5 2.5293,1.7774 5.67383,5.33203 l 0.0684,0.71777 -0.0684,0.68359"
       style="font-size:70px;stroke:#3f260d;stroke-width:2;font-family:Sanskrit 2003"
       id="path3369" />
  </g>
  <g
     style="font-size:70px;fill:#fbf2ea;font-family:Sanskrit 2003"
     id="text3341">
    <path
       d="m 119.54004,471.04395 -9.16016,0 c -2e-5,0.68363 0.0228,1.37861 0.0684,2.08496 0.0456,0.50134 0.11391,1.41279 0.20508,2.73437 l 0.30762,4.75098 c 0.0456,0.70641 0.0683,1.27607 0.0684,1.70898 -2e-5,4.39781 -1.09377,8.18036 -3.28125,11.34766 -0.88869,1.29884 -1.33303,2.49513 -1.33301,3.58887 -2e-5,0.88868 0.28481,1.64063 0.85449,2.25585 1.70897,1.89129 3.38377,3.3952 5.02442,4.51172 l 5.43457,3.72559 c 1.20765,0.82031 1.81149,1.91406 1.81152,3.28125 -3e-5,1.11653 -0.46715,1.6748 -1.40137,1.6748 -0.59247,0 -1.23049,-0.28483 -1.91406,-0.85449 l -6.04981,-5.02441 -5.91308,-5.19531 c -1.61785,-1.41275 -3.46355,-3.39517 -5.537111,-5.94727 -0.250658,-0.29621 -0.774746,-1.00259 -1.572265,-2.11914 -0.843105,-1.04816 -1.971033,-2.71157 -3.383789,-4.99024 -0.182295,-0.38734 -0.330406,-0.76332 -0.444336,-1.12792 l -0.307617,-1.98243 c -2e-6,-2.55205 0.979814,-3.82809 2.939453,-3.82812 0.638015,3e-5 1.606438,0.29625 2.905273,0.88867 1.298822,0.56969 2.278632,0.85452 2.939452,0.85449 0.54686,3e-5 0.9912,-0.0911 1.33301,-0.27344 0.9798,-1.43551 1.46971,-3.46351 1.46973,-6.08398 -2e-5,-1.52666 -0.11395,-2.90524 -0.3418,-4.13574 -0.0456,-0.66077 -0.15952,-1.276 -0.3418,-1.8457 l -12.91992,0 0,-5.33204 28.54004,0 0,5.33204"
       style="font-size:70px;fill:#fbf2ea;font-family:Sanskrit 2003"
       id="path3362" />
    <path
       d="m 112.25977,457.9873 -2.1875,2.66602 -1.77735,1.98242 c -0.50129,0.27349 -0.88866,0.41021 -1.16211,0.41016 -0.36457,5e-5 -1.3216,-0.91141 -2.87109,-2.73438 l -2.15332,-2.46093 0,-1.26465 2.56348,-3.48633 c 0.63803,-0.86583 1.27605,-1.48106 1.91406,-1.8457 0.63803,6e-5 2.5293,1.7774 5.67383,5.33203 l 0.0684,0.71777 -0.0684,0.68359"
       style="font-size:70px;fill:#fbf2ea;font-family:Sanskrit 2003"
       id="path3364" />
  </g>
  <g
     style="font-size:70px;stroke:#3f260d;stroke-width:2;font-family:Sanskrit 2003"
     id="text3343">
    <path
       d="m 131.06543,205.04395 -10.83496,0 0,10.32226 c 2.14189,0.79756 3.8053,1.80016 4.99023,3.00781 1.13928,1.11657 2.18746,2.7458 3.14453,4.8877 0.95699,2.14195 1.43551,4.16994 1.43555,6.08398 -4e-5,2.46095 -0.72921,4.78517 -2.1875,6.97266 -1.36723,2.028 -3.17875,3.66862 -5.43457,4.92187 -0.68363,0.38738 -1.26468,0.58106 -1.74316,0.58106 -0.43298,0 -0.88871,-0.1709 -1.36719,-0.5127 l -1.57227,-1.36718 -1.19629,-1.29883 c -0.22789,-0.34179 -0.376,-0.75195 -0.44433,-1.23047 -3e-5,-0.52408 0.2734,-1.0026 0.82031,-1.43555 2.93942,-2.25585 4.71676,-3.74836 5.33203,-4.47754 1.84567,-2.11912 2.76852,-4.55727 2.76856,-7.31445 -4e-5,-1.34438 -0.48995,-2.39255 -1.46973,-3.14453 -0.95707,-0.77472 -2.11918,-1.16209 -3.48633,-1.16211 -2.68883,0.29625 -5.08141,1.99384 -7.17773,5.09277 l -3.34961,4.92188 c -0.95706,1e-5 -1.82294,-0.41014 -2.59766,-1.23047 l -1.40136,-1.43555 c -0.75198,-0.54685 -1.12795,-1.29881 -1.12793,-2.25586 -2e-5,-0.52406 0.14809,-1.04815 0.44433,-1.57226 0.2962,-0.52407 0.4671,-0.94562 0.5127,-1.26465 -2e-5,-0.68357 -0.63804,-1.21905 -1.91407,-1.60645 -0.93426,-0.2962 -1.8685,-0.44431 -2.80273,-0.44433 -2.210301,2e-5 -4.112968,0.76337 -5.708008,2.29004 -1.572275,1.52671 -2.358407,3.37241 -2.358398,5.53711 -9e-6,3.09897 1.583649,5.86752 4.750976,8.30566 l 2.93945,1.6748 5.26368,2.59766 c 1.98239,0.97982 2.9736,2.028 2.97363,3.14453 -3e-5,0.56966 -0.41018,0.8545 -1.23047,0.85449 -0.63804,1e-5 -1.34442,-0.14811 -2.11914,-0.44433 l -3.11035,-1.67481 -10.356448,-6.3916 c -4.01042,-3.23566 -6.015627,-7.09796 -6.015625,-11.58691 -2e-6,-2.8255 0.991208,-5.13832 2.973633,-6.93848 1.982415,-1.82289 4.397777,-2.73434 7.246093,-2.73437 2.255846,3e-5 4.352197,0.47854 6.289067,1.43554 1.41274,0.68363 3.07615,1.82295 4.99023,3.41797 1.00258,-1.27601 2.1419,-2.22165 3.41797,-2.83691 l 4.0332,-2.0166 0.0342,-9.67285 -30.41992,0 0,-5.33204 47.06543,0 0,5.33204"
       style="font-size:70px;stroke:#3f260d;stroke-width:2;font-family:Sanskrit 2003"
       id="path3357" />
    <path
       d="m 122.34961,191.9873 -2.1875,2.66602 -1.77734,1.98242 c -0.5013,0.27349 -0.88867,0.41021 -1.16211,0.41016 -0.36458,5e-5 -1.32161,-0.91141 -2.8711,-2.73438 l -2.15332,-2.46093 0,-1.26465 2.56348,-3.48633 c 0.63803,-0.86583 1.27605,-1.48106 1.91406,-1.8457 0.63803,6e-5 2.52931,1.7774 5.67383,5.33203 l 0.0684,0.71777 -0.0684,0.68359"
       style="font-size:70px;stroke:#3f260d;stroke-width:2;font-family:Sanskrit 2003"
       id="path3359" />
  </g>
  <g
     style="font-size:70px;fill:#fbf2ea;font-family:Sanskrit 2003"
     id="text3345">
    <path
       d="m 131.06543,205.04395 -10.83496,0 0,10.32226 c 2.14189,0.79756 3.8053,1.80016 4.99023,3.00781 1.13928,1.11657 2.18746,2.7458 3.14453,4.8877 0.95699,2.14195 1.43551,4.16994 1.43555,6.08398 -4e-5,2.46095 -0.72921,4.78517 -2.1875,6.97266 -1.36723,2.028 -3.17875,3.66862 -5.43457,4.92187 -0.68363,0.38738 -1.26468,0.58106 -1.74316,0.58106 -0.43298,0 -0.88871,-0.1709 -1.36719,-0.5127 l -1.57227,-1.36718 -1.19629,-1.29883 c -0.22789,-0.34179 -0.376,-0.75195 -0.44433,-1.23047 -3e-5,-0.52408 0.2734,-1.0026 0.82031,-1.43555 2.93942,-2.25585 4.71676,-3.74836 5.33203,-4.47754 1.84567,-2.11912 2.76852,-4.55727 2.76856,-7.31445 -4e-5,-1.34438 -0.48995,-2.39255 -1.46973,-3.14453 -0.95707,-0.77472 -2.11918,-1.16209 -3.48633,-1.16211 -2.68883,0.29625 -5.08141,1.99384 -7.17773,5.09277 l -3.34961,4.92188 c -0.95706,1e-5 -1.82294,-0.41014 -2.59766,-1.23047 l -1.40136,-1.43555 c -0.75198,-0.54685 -1.12795,-1.29881 -1.12793,-2.25586 -2e-5,-0.52406 0.14809,-1.04815 0.44433,-1.57226 0.2962,-0.52407 0.4671,-0.94562 0.5127,-1.26465 -2e-5,-0.68357 -0.63804,-1.21905 -1.91407,-1.60645 -0.93426,-0.2962 -1.8685,-0.44431 -2.80273,-0.44433 -2.210301,2e-5 -4.112968,0.76337 -5.708008,2.29004 -1.572275,1.52671 -2.358407,3.37241 -2.358398,5.53711 -9e-6,3.09897 1.583649,5.86752 4.750976,8.30566 l 2.93945,1.6748 5.26368,2.59766 c 1.98239,0.97982 2.9736,2.028 2.97363,3.14453 -3e-5,0.56966 -0.41018,0.8545 -1.23047,0.85449 -0.63804,1e-5 -1.34442,-0.14811 -2.11914,-0.44433 l -3.11035,-1.67481 -10.356448,-6.3916 c -4.01042,-3.23566 -6.015627,-7.09796 -6.015625,-11.58691 -2e-6,-2.8255 0.991208,-5.13832 2.973633,-6.93848 1.982415,-1.82289 4.397777,-2.73434 7.246093,-2.73437 2.255846,3e-5 4.352197,0.47854 6.289067,1.43554 1.41274,0.68363 3.07615,1.82295 4.99023,3.41797 1.00258,-1.27601 2.1419,-2.22165 3.41797,-2.83691 l 4.0332,-2.0166 0.0342,-9.67285 -30.41992,0 0,-5.33204 47.06543,0 0,5.33204"
       style="font-size:70px;fill:#fbf2ea;font-family:Sanskrit 2003"
       id="path3352" />
    <path
       d="m 122.34961,191.9873 -2.1875,2.66602 -1.77734,1.98242 c -0.5013,0.27349 -0.88867,0.41021 -1.16211,0.41016 -0.36458,5e-5 -1.32161,-0.91141 -2.8711,-2.73438 l -2.15332,-2.46093 0,-1.26465 2.56348,-3.48633 c 0.63803,-0.86583 1.27605,-1.48106 1.91406,-1.8457 0.63803,6e-5 2.52931,1.7774 5.67383,5.33203 l 0.0684,0.71777 -0.0684,0.68359"
       style="font-size:70px;fill:#fbf2ea;font-family:Sanskrit 2003"
       id="path3354" />
  </g>
</svg>
