<?xml version="1.0" encoding="UTF-8" standalone="no"?>
<!-- Mūlādhāra-chakra image created by Holger Koch http://www.premaloka.de/kontakt License: public domain -->

<svg
   xmlns:dc="http://purl.org/dc/elements/1.1/"
   xmlns:cc="http://creativecommons.org/ns#"
   xmlns:rdf="http://www.w3.org/1999/02/22-rdf-syntax-ns#"
   xmlns:svg="http://www.w3.org/2000/svg"
   xmlns="http://www.w3.org/2000/svg"
   xmlns:xlink="http://www.w3.org/1999/xlink"
   xmlns:sodipodi="http://sodipodi.sourceforge.net/DTD/sodipodi-0.dtd"
   xmlns:inkscape="http://www.inkscape.org/namespaces/inkscape"
   version="1.1"
   width="700px"
   height="700px"
   id="svg2"
   inkscape:version="0.48.4 r9939"
   sodipodi:docname="chakra1.svg">
  <metadata
     id="metadata55">
    <rdf:RDF>
      <cc:Work
         rdf:about="">
        <dc:format>image/svg+xml</dc:format>
        <dc:type
           rdf:resource="http://purl.org/dc/dcmitype/StillImage" />
        <dc:title>Mūlādhāra Chakra</dc:title>
      </cc:Work>
    </rdf:RDF>
  </metadata>
  <sodipodi:namedview
     pagecolor="#ffffff"
     bordercolor="#666666"
     borderopacity="1"
     objecttolerance="10"
     gridtolerance="10"
     guidetolerance="10"
     inkscape:pageopacity="0"
     inkscape:pageshadow="2"
     inkscape:window-width="640"
     inkscape:window-height="480"
     id="namedview53"
     showgrid="false"
     inkscape:zoom="0.33714286"
     inkscape:cx="350"
     inkscape:cy="350"
     inkscape:window-x="0"
     inkscape:window-y="0"
     inkscape:window-maximized="0"
     inkscape:current-layer="svg2" />
  <title
     id="title4">Mūlādhāra Chakra</title>
  <defs
     id="defs6">
    <filter
       id="blur"
       x="-40%"
       y="-40%"
       width="200%"
       height="200%">
      <feGaussianBlur
         in="SourceGraphic"
         stdDeviation="14"
         id="feGaussianBlur9" />
    </filter>
    <radialGradient
       id="grad1"
       gradientUnits="userSpaceOnUse"
       cx="350"
       cy="350"
       r="350">
      <stop
         offset="70%"
         stop-color="#e99696"
         id="stop12" />
      <stop
         offset="92.5%"
         stop-color="#bd2828"
         id="stop14" />
    </radialGradient>
    <path
       id="petal1"
       stroke-linejoin="round"
       stroke-width="4"
       stroke="#7e1b1b"
       fill="url(#grad1)"
       d="M 176.7588386093 176.7588386093 C 176.7588386093,66.508838609296 350,57.75 350,-52.5 C 350,57.75 523.2411613907,66.508838609296 523.2411613907,176.7588386093 L 350 350 Z" />
  </defs>
  <use
     xlink:href="#petal1"
     transform="rotate(45 350 350)"
     id="use17" />
  <use
     xlink:href="#petal1"
     transform="rotate(135 350 350)"
     id="use19" />
  <use
     xlink:href="#petal1"
     transform="rotate(225 350 350)"
     id="use21" />
  <use
     xlink:href="#petal1"
     transform="rotate(315 350 350)"
     id="use23" />
  <path
     style="fill:#d22d2d;stroke:#7e1b1b;stroke-width:7"
     d="M 595,350 C 595,485.30976 485.30976,595 350,595 214.69024,595 105,485.30976 105,350 105,214.69024 214.69024,105 350,105 c 135.30976,0 245,109.69024 245,245 z"
     id="circle25" />
  <path
     style="fill:#db5757;stroke:#7e1b1b;stroke-width:4"
     d="m 176.75883,176.75883 346.48234,0 0,346.48234 -346.48234,0 z"
     id="rect27" />
  <path
     transform="rotate(180 350 350)"
     style="fill:#d22d2d;stroke:#7e1b1b;stroke-width:4;stroke-linejoin:round"
     d="m 350,213.5 148.52336,257.25 -297.04672,0 z"
     id="polygon29" />
  <g
     style="font-size:245px;fill:#ffffff;stroke:#fbeaea;stroke-width:7;filter:url(#blur);font-family:Sanskrit 2003"
     id="text31">
    <path
       d="m 430.729,305.15381 -37.92236,0 0,36.12793 c 7.49661,2.79144 13.31855,6.30055 17.46582,10.52734 3.98748,3.90797 7.6561,9.61027 11.00586,17.10694 3.34945,7.49681 5.02425,14.59478 5.02441,21.29394 -1.6e-4,8.61333 -2.55224,16.74809 -7.65625,24.4043 -4.7853,7.098 -11.12563,12.84018 -19.02099,17.22656 -2.39271,1.35581 -4.4264,2.0337 -6.10108,2.03369 -1.51542,1e-5 -3.11047,-0.59813 -4.78515,-1.79443 l -5.50293,-4.78516 -4.18701,-4.5459 c -0.79764,-1.19626 -1.31603,-2.63181 -1.55518,-4.30664 -1.1e-4,-1.83428 0.95692,-3.50908 2.87109,-5.02441 10.28797,-7.89547 16.50866,-13.11926 18.66211,-15.67139 6.45983,-7.41694 9.6898,-15.95046 9.68995,-25.60058 -1.5e-4,-4.70533 -1.71483,-8.37395 -5.14405,-11.00586 -3.34974,-2.71151 -7.41712,-4.0673 -12.20215,-4.06739 -9.41092,1.03687 -17.78493,6.97844 -25.12207,17.82471 l -11.72363,17.22656 c -3.34969,6e-5 -6.38029,-1.43549 -9.0918,-4.30664 l -4.90478,-5.02441 c -2.63191,-1.914 -3.94783,-4.54583 -3.94776,-7.89551 -7e-5,-1.83424 0.51833,-3.66855 1.55518,-5.50293 1.03671,-1.83423 1.63486,-3.30965 1.79443,-4.42627 -7e-5,-2.39249 -2.23314,-4.26668 -6.69921,-5.62256 -3.26993,-1.03669 -6.53978,-1.55509 -9.80958,-1.55517 -7.73605,8e-5 -14.39538,2.67179 -19.97802,8.01513 -5.50296,5.3435 -8.25443,11.80346 -8.2544,19.37989 -3e-5,10.8464 5.54277,20.53633 16.62842,29.06982 l 10.28809,5.86182 18.42285,9.09179 c 6.93839,3.42938 10.40763,7.09799 10.40771,11.00586 -8e-5,1.99382 -1.43563,2.99073 -4.30664,2.99073 -2.23315,0 -4.70548,-0.51839 -7.41699,-1.55518 l -10.88623,-5.86182 -36.24756,-22.3706 c -14.03647,-11.32483 -21.05469,-24.84288 -21.05469,-40.5542 0,-9.88924 3.46923,-17.98412 10.40772,-24.28467 6.93845,-6.3801 15.39222,-9.5702 25.36133,-9.57031 7.89546,1.1e-4 15.23269,1.67491 22.01172,5.02441 4.94459,2.39268 10.76652,6.38031 17.46582,11.96289 3.50903,-4.46605 7.49665,-7.77578 11.96289,-9.9292 l 14.11621,-7.0581 0.11963,-33.85498 -106.46973,0 0,-18.66211 164.729,0 0,18.66211"
       style="font-size:245px;fill:#ffffff;stroke:#fbeaea;stroke-width:7;filter:url(#blur);font-family:Sanskrit 2003"
       id="path3083" />
    <path
       d="m 400.22363,259.45557 -7.65625,9.33105 -6.2207,6.93848 c -1.75452,0.9572 -3.11031,1.43571 -4.06738,1.43554 -1.276,1.7e-4 -4.62561,-3.18993 -10.04883,-9.57031 l -7.53662,-8.61328 0,-4.42627 8.97217,-12.20215 c 2.23311,-3.03039 4.46618,-5.18371 6.69921,-6.45996 2.23312,2.1e-4 8.85258,6.22091 19.8584,18.66211 l 0.23926,2.51221 -0.23926,2.39258"
       style="font-size:245px;fill:#ffffff;stroke:#fbeaea;stroke-width:7;filter:url(#blur);font-family:Sanskrit 2003"
       id="path3085" />
  </g>
  <g
     style="font-size:245px;stroke:#f2c0c0;stroke-width:4;font-family:Sanskrit 2003"
     id="text33">
    <path
       d="m 430.729,305.15381 -37.92236,0 0,36.12793 c 7.49661,2.79144 13.31855,6.30055 17.46582,10.52734 3.98748,3.90797 7.6561,9.61027 11.00586,17.10694 3.34945,7.49681 5.02425,14.59478 5.02441,21.29394 -1.6e-4,8.61333 -2.55224,16.74809 -7.65625,24.4043 -4.7853,7.098 -11.12563,12.84018 -19.02099,17.22656 -2.39271,1.35581 -4.4264,2.0337 -6.10108,2.03369 -1.51542,1e-5 -3.11047,-0.59813 -4.78515,-1.79443 l -5.50293,-4.78516 -4.18701,-4.5459 c -0.79764,-1.19626 -1.31603,-2.63181 -1.55518,-4.30664 -1.1e-4,-1.83428 0.95692,-3.50908 2.87109,-5.02441 10.28797,-7.89547 16.50866,-13.11926 18.66211,-15.67139 6.45983,-7.41694 9.6898,-15.95046 9.68995,-25.60058 -1.5e-4,-4.70533 -1.71483,-8.37395 -5.14405,-11.00586 -3.34974,-2.71151 -7.41712,-4.0673 -12.20215,-4.06739 -9.41092,1.03687 -17.78493,6.97844 -25.12207,17.82471 l -11.72363,17.22656 c -3.34969,6e-5 -6.38029,-1.43549 -9.0918,-4.30664 l -4.90478,-5.02441 c -2.63191,-1.914 -3.94783,-4.54583 -3.94776,-7.89551 -7e-5,-1.83424 0.51833,-3.66855 1.55518,-5.50293 1.03671,-1.83423 1.63486,-3.30965 1.79443,-4.42627 -7e-5,-2.39249 -2.23314,-4.26668 -6.69921,-5.62256 -3.26993,-1.03669 -6.53978,-1.55509 -9.80958,-1.55517 -7.73605,8e-5 -14.39538,2.67179 -19.97802,8.01513 -5.50296,5.3435 -8.25443,11.80346 -8.2544,19.37989 -3e-5,10.8464 5.54277,20.53633 16.62842,29.06982 l 10.28809,5.86182 18.42285,9.09179 c 6.93839,3.42938 10.40763,7.09799 10.40771,11.00586 -8e-5,1.99382 -1.43563,2.99073 -4.30664,2.99073 -2.23315,0 -4.70548,-0.51839 -7.41699,-1.55518 l -10.88623,-5.86182 -36.24756,-22.3706 c -14.03647,-11.32483 -21.05469,-24.84288 -21.05469,-40.5542 0,-9.88924 3.46923,-17.98412 10.40772,-24.28467 6.93845,-6.3801 15.39222,-9.5702 25.36133,-9.57031 7.89546,1.1e-4 15.23269,1.67491 22.01172,5.02441 4.94459,2.39268 10.76652,6.38031 17.46582,11.96289 3.50903,-4.46605 7.49665,-7.77578 11.96289,-9.9292 l 14.11621,-7.0581 0.11963,-33.85498 -106.46973,0 0,-18.66211 164.729,0 0,18.66211"
       style="font-size:245px;stroke:#f2c0c0;stroke-width:4;font-family:Sanskrit 2003"
       id="path3078" />
    <path
       d="m 400.22363,259.45557 -7.65625,9.33105 -6.2207,6.93848 c -1.75452,0.9572 -3.11031,1.43571 -4.06738,1.43554 -1.276,1.7e-4 -4.62561,-3.18993 -10.04883,-9.57031 l -7.53662,-8.61328 0,-4.42627 8.97217,-12.20215 c 2.23311,-3.03039 4.46618,-5.18371 6.69921,-6.45996 2.23312,2.1e-4 8.85258,6.22091 19.8584,18.66211 l 0.23926,2.51221 -0.23926,2.39258"
       style="font-size:245px;stroke:#f2c0c0;stroke-width:4;font-family:Sanskrit 2003"
       id="path3080" />
  </g>
  <g
     style="font-size:245px;fill:#3f0d0d;font-family:Sanskrit 2003"
     id="text35">
    <path
       d="m 430.729,305.15381 -37.92236,0 0,36.12793 c 7.49661,2.79144 13.31855,6.30055 17.46582,10.52734 3.98748,3.90797 7.6561,9.61027 11.00586,17.10694 3.34945,7.49681 5.02425,14.59478 5.02441,21.29394 -1.6e-4,8.61333 -2.55224,16.74809 -7.65625,24.4043 -4.7853,7.098 -11.12563,12.84018 -19.02099,17.22656 -2.39271,1.35581 -4.4264,2.0337 -6.10108,2.03369 -1.51542,1e-5 -3.11047,-0.59813 -4.78515,-1.79443 l -5.50293,-4.78516 -4.18701,-4.5459 c -0.79764,-1.19626 -1.31603,-2.63181 -1.55518,-4.30664 -1.1e-4,-1.83428 0.95692,-3.50908 2.87109,-5.02441 10.28797,-7.89547 16.50866,-13.11926 18.66211,-15.67139 6.45983,-7.41694 9.6898,-15.95046 9.68995,-25.60058 -1.5e-4,-4.70533 -1.71483,-8.37395 -5.14405,-11.00586 -3.34974,-2.71151 -7.41712,-4.0673 -12.20215,-4.06739 -9.41092,1.03687 -17.78493,6.97844 -25.12207,17.82471 l -11.72363,17.22656 c -3.34969,6e-5 -6.38029,-1.43549 -9.0918,-4.30664 l -4.90478,-5.02441 c -2.63191,-1.914 -3.94783,-4.54583 -3.94776,-7.89551 -7e-5,-1.83424 0.51833,-3.66855 1.55518,-5.50293 1.03671,-1.83423 1.63486,-3.30965 1.79443,-4.42627 -7e-5,-2.39249 -2.23314,-4.26668 -6.69921,-5.62256 -3.26993,-1.03669 -6.53978,-1.55509 -9.80958,-1.55517 -7.73605,8e-5 -14.39538,2.67179 -19.97802,8.01513 -5.50296,5.3435 -8.25443,11.80346 -8.2544,19.37989 -3e-5,10.8464 5.54277,20.53633 16.62842,29.06982 l 10.28809,5.86182 18.42285,9.09179 c 6.93839,3.42938 10.40763,7.09799 10.40771,11.00586 -8e-5,1.99382 -1.43563,2.99073 -4.30664,2.99073 -2.23315,0 -4.70548,-0.51839 -7.41699,-1.55518 l -10.88623,-5.86182 -36.24756,-22.3706 c -14.03647,-11.32483 -21.05469,-24.84288 -21.05469,-40.5542 0,-9.88924 3.46923,-17.98412 10.40772,-24.28467 6.93845,-6.3801 15.39222,-9.5702 25.36133,-9.57031 7.89546,1.1e-4 15.23269,1.67491 22.01172,5.02441 4.94459,2.39268 10.76652,6.38031 17.46582,11.96289 3.50903,-4.46605 7.49665,-7.77578 11.96289,-9.9292 l 14.11621,-7.0581 0.11963,-33.85498 -106.46973,0 0,-18.66211 164.729,0 0,18.66211"
       style="font-size:245px;fill:#3f0d0d;font-family:Sanskrit 2003"
       id="path3073" />
    <path
       d="m 400.22363,259.45557 -7.65625,9.33105 -6.2207,6.93848 c -1.75452,0.9572 -3.11031,1.43571 -4.06738,1.43554 -1.276,1.7e-4 -4.62561,-3.18993 -10.04883,-9.57031 l -7.53662,-8.61328 0,-4.42627 8.97217,-12.20215 c 2.23311,-3.03039 4.46618,-5.18371 6.69921,-6.45996 2.23312,2.1e-4 8.85258,6.22091 19.8584,18.66211 l 0.23926,2.51221 -0.23926,2.39258"
       style="font-size:245px;fill:#3f0d0d;font-family:Sanskrit 2003"
       id="path3075" />
  </g>
  <g
     style="font-size:70px;stroke:#3f0d0d;stroke-width:2;font-family:Sanskrit 2003"
     id="text37">
    <path
       d="m 578.68359,135.04395 -5.19531,0 0.0342,38.31542 c -3e-5,1.11654 -0.22789,1.67481 -0.68359,1.67481 -0.43297,0 -1.45836,-0.82031 -3.07617,-2.46094 -1.61787,-1.64062 -2.39261,-4.12434 -2.32422,-7.45117 l 0.0684,-3.14453 -0.61524,-0.20508 c -0.38739,0.0912 -0.64944,0.18231 -0.78613,0.27344 l -0.78613,0.47851 c -2.25588,1.07098 -4.44338,1.60646 -6.5625,1.60645 -3.5547,10e-6 -6.56251,-1.48111 -9.02344,-4.44336 -2.71159,-3.28123 -4.06739,-6.3574 -4.06738,-9.22852 -10e-6,-4.1471 2.11913,-6.72197 6.35742,-7.72461 1.36717,-0.31897 3.07616,-0.47848 5.12695,-0.47851 1.70897,3e-5 3.28123,0.44437 4.7168,1.33301 l 5.43457,3.34961 0,-11.89453 -24.30176,0 0,-5.33204 35.68359,0 0,5.33204 m -11.31347,18.86718 0,-5.43457 c -2.2331,-0.75192 -4.53453,-1.1279 -6.9043,-1.12793 -6.10678,3e-5 -9.39942,2.5749 -9.87793,7.72461 -10e-6,2.36981 1.46972,3.55471 4.40918,3.55469 0.54686,2e-5 1.41275,-0.11392 2.59766,-0.3418 2.14191,-0.41014 3.81671,-0.87726 5.02441,-1.40136 1.36717,-0.59243 2.95082,-1.58364 4.75098,-2.97364"
       style="font-size:70px;stroke:#3f0d0d;stroke-width:2;font-family:Sanskrit 2003"
       id="path3068" />
    <path
       d="m 575.06055,121.9873 -2.1875,2.66602 -1.77735,1.98242 c -0.50129,0.27349 -0.88866,0.41021 -1.16211,0.41016 -0.36457,5e-5 -1.3216,-0.91141 -2.87109,-2.73438 l -2.15332,-2.46093 0,-1.26465 2.56348,-3.48633 c 0.63803,-0.86583 1.27605,-1.48106 1.91406,-1.8457 0.63803,6e-5 2.5293,1.7774 5.67383,5.33203 l 0.0684,0.71777 -0.0684,0.68359"
       style="font-size:70px;stroke:#3f0d0d;stroke-width:2;font-family:Sanskrit 2003"
       id="path3070" />
  </g>
  <g
     style="font-size:70px;fill:#fbeaea;font-family:Sanskrit 2003"
     id="text39">
    <path
       d="m 578.68359,135.04395 -5.19531,0 0.0342,38.31542 c -3e-5,1.11654 -0.22789,1.67481 -0.68359,1.67481 -0.43297,0 -1.45836,-0.82031 -3.07617,-2.46094 -1.61787,-1.64062 -2.39261,-4.12434 -2.32422,-7.45117 l 0.0684,-3.14453 -0.61524,-0.20508 c -0.38739,0.0912 -0.64944,0.18231 -0.78613,0.27344 l -0.78613,0.47851 c -2.25588,1.07098 -4.44338,1.60646 -6.5625,1.60645 -3.5547,10e-6 -6.56251,-1.48111 -9.02344,-4.44336 -2.71159,-3.28123 -4.06739,-6.3574 -4.06738,-9.22852 -10e-6,-4.1471 2.11913,-6.72197 6.35742,-7.72461 1.36717,-0.31897 3.07616,-0.47848 5.12695,-0.47851 1.70897,3e-5 3.28123,0.44437 4.7168,1.33301 l 5.43457,3.34961 0,-11.89453 -24.30176,0 0,-5.33204 35.68359,0 0,5.33204 m -11.31347,18.86718 0,-5.43457 c -2.2331,-0.75192 -4.53453,-1.1279 -6.9043,-1.12793 -6.10678,3e-5 -9.39942,2.5749 -9.87793,7.72461 -10e-6,2.36981 1.46972,3.55471 4.40918,3.55469 0.54686,2e-5 1.41275,-0.11392 2.59766,-0.3418 2.14191,-0.41014 3.81671,-0.87726 5.02441,-1.40136 1.36717,-0.59243 2.95082,-1.58364 4.75098,-2.97364"
       style="font-size:70px;fill:#fbeaea;font-family:Sanskrit 2003"
       id="path3063" />
    <path
       d="m 575.06055,121.9873 -2.1875,2.66602 -1.77735,1.98242 c -0.50129,0.27349 -0.88866,0.41021 -1.16211,0.41016 -0.36457,5e-5 -1.3216,-0.91141 -2.87109,-2.73438 l -2.15332,-2.46093 0,-1.26465 2.56348,-3.48633 c 0.63803,-0.86583 1.27605,-1.48106 1.91406,-1.8457 0.63803,6e-5 2.5293,1.7774 5.67383,5.33203 l 0.0684,0.71777 -0.0684,0.68359"
       style="font-size:70px;fill:#fbeaea;font-family:Sanskrit 2003"
       id="path3065" />
  </g>
  <g
     style="font-size:70px;stroke:#3f0d0d;stroke-width:2;font-family:Sanskrit 2003"
     id="text41">
    <path
       d="m 587.125,541.04395 -4.68262,0 0,37.42675 c -4e-5,1.64063 -0.13676,2.48373 -0.41015,2.5293 l -5.33203,-4.61426 c -0.72921,-0.79752 -1.09379,-1.87987 -1.09375,-3.24707 l 0,-32.09472 -18.25196,0 0,5.05859 c 2.59764,0.97985 4.89907,2.58629 6.9043,4.81933 2.25583,2.50654 3.38376,5.04723 3.38379,7.62208 -3e-5,2.30145 -0.99124,4.63706 -2.97363,7.00683 -1.34443,1.59507 -3.08759,3.03061 -5.2295,4.30664 0.84308,1.38999 3.26984,3.32683 7.28028,5.81055 1.54945,0.95703 2.39254,1.69759 2.52929,2.22168 -3e-5,2.27865 -0.74059,3.41797 -2.22168,3.41797 -1.48114,0 -2.77997,-0.54688 -3.89648,-1.64063 -0.82034,-0.79752 -1.50393,-1.54947 -2.05078,-2.25586 l -3.89649,-5.02441 c -0.38738,-0.50129 -0.93426,-0.75195 -1.64062,-0.75195 l -1.09375,0.13671 c -1.09377,0.25066 -2.11916,0.37599 -3.07617,0.37598 -2.43816,10e-6 -4.46616,-1.07095 -6.08399,-3.21289 -0.70638,-0.93423 -1.05957,-2.03937 -1.05957,-3.31543 0,-1.52668 0.46712,-2.72296 1.40137,-3.58887 0.93424,-0.88865 2.1647,-1.33298 3.69141,-1.333 1.59504,2e-5 3.01919,0.54689 4.27246,1.64062 1.09373,0.95705 2.00519,1.50392 2.73437,1.64063 1.4811,-0.86587 2.76854,-2.18749 3.86231,-3.96485 1.11651,-1.77732 1.67478,-3.50909 1.6748,-5.19531 -2e-5,-1.6406 -0.64944,-2.88246 -1.94824,-3.72559 -2.5521,3e-5 -4.65985,0.2165 -6.32324,0.64942 l -8.37403,3.28125 c -0.47852,2e-5 -1.09375,-0.42153 -1.8457,-1.26465 l -2.29004,-2.59766 c -0.5013,-0.56963 -0.75195,-1.08232 -0.75195,-1.53808 0,-0.7975 1.1621,-1.51527 3.48633,-2.15332 l 2.52929,-0.6836 4.95606,-0.85449 0,-4.88769 -12.30469,0 0,-5.33204 48.125,0 0,5.33204"
       style="font-size:70px;stroke:#3f0d0d;stroke-width:2;font-family:Sanskrit 2003"
       id="path3058" />
    <path
       d="m 583.74121,527.9873 -2.1875,2.66602 -1.77734,1.98242 c -0.50129,0.27349 -0.88866,0.41021 -1.16211,0.41016 -0.36457,5e-5 -1.3216,-0.91141 -2.8711,-2.73438 l -2.15332,-2.46093 0,-1.26465 2.56348,-3.48633 c 0.63803,-0.86583 1.27605,-1.48106 1.91406,-1.8457 0.63803,6e-5 2.52931,1.7774 5.67383,5.33203 l 0.0684,0.71777 -0.0684,0.68359"
       style="font-size:70px;stroke:#3f0d0d;stroke-width:2;font-family:Sanskrit 2003"
       id="path3060" />
  </g>
  <g
     style="font-size:70px;fill:#fbeaea;font-family:Sanskrit 2003"
     id="text43">
    <path
       d="m 587.125,541.04395 -4.68262,0 0,37.42675 c -4e-5,1.64063 -0.13676,2.48373 -0.41015,2.5293 l -5.33203,-4.61426 c -0.72921,-0.79752 -1.09379,-1.87987 -1.09375,-3.24707 l 0,-32.09472 -18.25196,0 0,5.05859 c 2.59764,0.97985 4.89907,2.58629 6.9043,4.81933 2.25583,2.50654 3.38376,5.04723 3.38379,7.62208 -3e-5,2.30145 -0.99124,4.63706 -2.97363,7.00683 -1.34443,1.59507 -3.08759,3.03061 -5.2295,4.30664 0.84308,1.38999 3.26984,3.32683 7.28028,5.81055 1.54945,0.95703 2.39254,1.69759 2.52929,2.22168 -3e-5,2.27865 -0.74059,3.41797 -2.22168,3.41797 -1.48114,0 -2.77997,-0.54688 -3.89648,-1.64063 -0.82034,-0.79752 -1.50393,-1.54947 -2.05078,-2.25586 l -3.89649,-5.02441 c -0.38738,-0.50129 -0.93426,-0.75195 -1.64062,-0.75195 l -1.09375,0.13671 c -1.09377,0.25066 -2.11916,0.37599 -3.07617,0.37598 -2.43816,10e-6 -4.46616,-1.07095 -6.08399,-3.21289 -0.70638,-0.93423 -1.05957,-2.03937 -1.05957,-3.31543 0,-1.52668 0.46712,-2.72296 1.40137,-3.58887 0.93424,-0.88865 2.1647,-1.33298 3.69141,-1.333 1.59504,2e-5 3.01919,0.54689 4.27246,1.64062 1.09373,0.95705 2.00519,1.50392 2.73437,1.64063 1.4811,-0.86587 2.76854,-2.18749 3.86231,-3.96485 1.11651,-1.77732 1.67478,-3.50909 1.6748,-5.19531 -2e-5,-1.6406 -0.64944,-2.88246 -1.94824,-3.72559 -2.5521,3e-5 -4.65985,0.2165 -6.32324,0.64942 l -8.37403,3.28125 c -0.47852,2e-5 -1.09375,-0.42153 -1.8457,-1.26465 l -2.29004,-2.59766 c -0.5013,-0.56963 -0.75195,-1.08232 -0.75195,-1.53808 0,-0.7975 1.1621,-1.51527 3.48633,-2.15332 l 2.52929,-0.6836 4.95606,-0.85449 0,-4.88769 -12.30469,0 0,-5.33204 48.125,0 0,5.33204"
       style="font-size:70px;fill:#fbeaea;font-family:Sanskrit 2003"
       id="path3053" />
    <path
       d="m 583.74121,527.9873 -2.1875,2.66602 -1.77734,1.98242 c -0.50129,0.27349 -0.88866,0.41021 -1.16211,0.41016 -0.36457,5e-5 -1.3216,-0.91141 -2.8711,-2.73438 l -2.15332,-2.46093 0,-1.26465 2.56348,-3.48633 c 0.63803,-0.86583 1.27605,-1.48106 1.91406,-1.8457 0.63803,6e-5 2.52931,1.7774 5.67383,5.33203 l 0.0684,0.71777 -0.0684,0.68359"
       style="font-size:70px;fill:#fbeaea;font-family:Sanskrit 2003"
       id="path3055" />
  </g>
  <g
     style="font-size:70px;stroke:#3f0d0d;stroke-width:2;font-family:Sanskrit 2003"
     id="text45">
    <path
       d="m 150.96582,541.04395 -3.82812,0 0,39.06738 c -4e-5,0.61523 -0.15954,0.94564 -0.47852,0.99121 -0.34183,0 -0.92288,-0.38737 -1.74316,-1.16211 -1.77738,-1.6862 -2.85973,-2.83691 -3.24707,-3.45215 -0.56969,-0.88867 -0.85452,-1.97102 -0.8545,-3.24707 l 0,-6.66504 c -0.68361,2e-5 -2.02801,0.1937 -4.0332,0.58106 -0.7064,0.13673 -1.34442,0.20509 -1.91406,0.20507 -3.34963,2e-5 -6.77899,-1.69757 -10.28809,-5.09277 -1.89128,-1.82289 -3.33822,-3.74835 -4.34082,-5.77637 -0.22787,-0.84307 -0.38737,-2.76852 -0.47851,-5.77636 l 0.0342,-9.67285 -3.79395,0 0,-5.33204 34.96582,0 0,5.33204 m -9.77539,12.47558 0,-12.47558 -15.24414,0 0,2.32421 15.24414,10.15137 m 0,3.52051 -15.24414,-10.01465 0,10.56152 c 0.0456,1.39 0.29621,2.36982 0.75195,2.93946 0.52408,0.68361 1.44693,1.02541 2.76856,1.02539 3.19008,2e-5 6.44854,-0.85447 9.77539,-2.56348 l 1.33301,-0.68359 c 0.31898,-0.27342 0.52406,-0.69497 0.61523,-1.26465"
       style="font-size:70px;stroke:#3f0d0d;stroke-width:2;font-family:Sanskrit 2003"
       id="path3048" />
    <path
       d="m 149.05176,527.9873 -2.1875,2.66602 -1.77735,1.98242 c -0.50129,0.27349 -0.88866,0.41021 -1.16211,0.41016 -0.36457,5e-5 -1.3216,-0.91141 -2.87109,-2.73438 l -2.15332,-2.46093 0,-1.26465 2.56348,-3.48633 c 0.63803,-0.86583 1.27605,-1.48106 1.91406,-1.8457 0.63803,6e-5 2.52931,1.7774 5.67383,5.33203 l 0.0684,0.71777 -0.0684,0.68359"
       style="font-size:70px;stroke:#3f0d0d;stroke-width:2;font-family:Sanskrit 2003"
       id="path3050" />
  </g>
  <g
     style="font-size:70px;fill:#fbeaea;font-family:Sanskrit 2003"
     id="text47">
    <path
       d="m 150.96582,541.04395 -3.82812,0 0,39.06738 c -4e-5,0.61523 -0.15954,0.94564 -0.47852,0.99121 -0.34183,0 -0.92288,-0.38737 -1.74316,-1.16211 -1.77738,-1.6862 -2.85973,-2.83691 -3.24707,-3.45215 -0.56969,-0.88867 -0.85452,-1.97102 -0.8545,-3.24707 l 0,-6.66504 c -0.68361,2e-5 -2.02801,0.1937 -4.0332,0.58106 -0.7064,0.13673 -1.34442,0.20509 -1.91406,0.20507 -3.34963,2e-5 -6.77899,-1.69757 -10.28809,-5.09277 -1.89128,-1.82289 -3.33822,-3.74835 -4.34082,-5.77637 -0.22787,-0.84307 -0.38737,-2.76852 -0.47851,-5.77636 l 0.0342,-9.67285 -3.79395,0 0,-5.33204 34.96582,0 0,5.33204 m -9.77539,12.47558 0,-12.47558 -15.24414,0 0,2.32421 15.24414,10.15137 m 0,3.52051 -15.24414,-10.01465 0,10.56152 c 0.0456,1.39 0.29621,2.36982 0.75195,2.93946 0.52408,0.68361 1.44693,1.02541 2.76856,1.02539 3.19008,2e-5 6.44854,-0.85447 9.77539,-2.56348 l 1.33301,-0.68359 c 0.31898,-0.27342 0.52406,-0.69497 0.61523,-1.26465"
       style="font-size:70px;fill:#fbeaea;font-family:Sanskrit 2003"
       id="path3043" />
    <path
       d="m 149.05176,527.9873 -2.1875,2.66602 -1.77735,1.98242 c -0.50129,0.27349 -0.88866,0.41021 -1.16211,0.41016 -0.36457,5e-5 -1.3216,-0.91141 -2.87109,-2.73438 l -2.15332,-2.46093 0,-1.26465 2.56348,-3.48633 c 0.63803,-0.86583 1.27605,-1.48106 1.91406,-1.8457 0.63803,6e-5 2.52931,1.7774 5.67383,5.33203 l 0.0684,0.71777 -0.0684,0.68359"
       style="font-size:70px;fill:#fbeaea;font-family:Sanskrit 2003"
       id="path3045" />
  </g>
  <g
     style="font-size:70px;stroke:#3f0d0d;stroke-width:2;font-family:Sanskrit 2003"
     id="text49">
    <path
       d="m 155.54492,135.00977 -3.65722,0 0.0342,38.14453 c -3e-5,0.38737 -0.0456,0.75195 -0.13671,1.09375 -4e-5,0.36458 -0.14816,0.56966 -0.44434,0.61523 -0.47855,0 -1.19633,-0.54687 -2.15332,-1.64062 -0.84314,-0.75195 -1.4014,-1.28744 -1.6748,-1.60645 -1.20772,-1.32161 -1.80017,-3.12174 -1.77735,-5.40039 l 0.10254,-11.1084 c -1.77738,0.52411 -3.31546,0.76337 -4.61426,0.71778 l -2.70019,-0.10254 c -2.11917,-0.0911 -3.64586,-0.34178 -4.58008,-0.75196 -0.50132,-0.22784 -1.41278,-0.9684 -2.73438,-2.22168 -0.47853,-0.4557 -0.96844,-0.78611 -1.46972,-0.99121 l -1.70899,-0.27344 c -0.29624,0.97985 -0.68361,1.87991 -1.16211,2.7002 l -2.25586,3.93066 -0.71777,1.36719 -0.20508,1.16211 c -10e-6,1.13934 1.17349,2.82553 3.52051,5.05859 l 3.99902,3.11036 c 2.39256,1.86849 3.69139,3.65723 3.89649,5.36621 -2e-5,0.61523 -0.34182,0.92285 -1.02539,0.92285 -1.00263,0 -1.99384,-0.44434 -2.97363,-1.33301 -2.64325,-2.36979 -4.72821,-4.48893 -6.25489,-6.35742 l -5.29785,-6.45996 c -3.8737,-4.71678 -5.81055,-8.64744 -5.81055,-11.79199 0,-2.50649 0.80892,-3.75974 2.42676,-3.75977 0.91146,0.11396 1.73177,0.39879 2.46094,0.85449 0.86588,0.3874 1.56086,0.67223 2.08496,0.85449 0.72916,3e-5 1.40136,-0.54684 2.0166,-1.64062 0.319,-0.75192 0.51269,-1.38994 0.58106,-1.91406 l 0,-8.54492 -11.31348,0 0,-5.29786 43.54492,0 0,5.29786 m -9.70703,0 -16.81641,0 0,14.15039 c 0.52408,0.52411 1.54946,0.80894 3.07618,0.85449 l 4.81933,0.13672 c 3.78253,0.11395 6.75616,-0.50128 8.9209,-1.84571 l 0,-13.29589"
       style="font-size:70px;stroke:#3f0d0d;stroke-width:2;font-family:Sanskrit 2003"
       id="path3038" />
    <path
       d="m 154.10937,121.9873 -2.1875,2.66602 -1.77734,1.98242 c -0.50129,0.27349 -0.88866,0.41021 -1.16211,0.41016 -0.36457,5e-5 -1.3216,-0.91141 -2.87109,-2.73438 l -2.15332,-2.46093 0,-1.26465 2.56347,-3.48633 c 0.63804,-0.86583 1.27606,-1.48106 1.91407,-1.8457 0.63803,6e-5 2.5293,1.7774 5.67382,5.33203 l 0.0684,0.71777 -0.0684,0.68359"
       style="font-size:70px;stroke:#3f0d0d;stroke-width:2;font-family:Sanskrit 2003"
       id="path3040" />
  </g>
  <g
     style="font-size:70px;fill:#fbeaea;font-family:Sanskrit 2003"
     id="text51">
    <path
       d="m 155.54492,135.00977 -3.65722,0 0.0342,38.14453 c -3e-5,0.38737 -0.0456,0.75195 -0.13671,1.09375 -4e-5,0.36458 -0.14816,0.56966 -0.44434,0.61523 -0.47855,0 -1.19633,-0.54687 -2.15332,-1.64062 -0.84314,-0.75195 -1.4014,-1.28744 -1.6748,-1.60645 -1.20772,-1.32161 -1.80017,-3.12174 -1.77735,-5.40039 l 0.10254,-11.1084 c -1.77738,0.52411 -3.31546,0.76337 -4.61426,0.71778 l -2.70019,-0.10254 c -2.11917,-0.0911 -3.64586,-0.34178 -4.58008,-0.75196 -0.50132,-0.22784 -1.41278,-0.9684 -2.73438,-2.22168 -0.47853,-0.4557 -0.96844,-0.78611 -1.46972,-0.99121 l -1.70899,-0.27344 c -0.29624,0.97985 -0.68361,1.87991 -1.16211,2.7002 l -2.25586,3.93066 -0.71777,1.36719 -0.20508,1.16211 c -10e-6,1.13934 1.17349,2.82553 3.52051,5.05859 l 3.99902,3.11036 c 2.39256,1.86849 3.69139,3.65723 3.89649,5.36621 -2e-5,0.61523 -0.34182,0.92285 -1.02539,0.92285 -1.00263,0 -1.99384,-0.44434 -2.97363,-1.33301 -2.64325,-2.36979 -4.72821,-4.48893 -6.25489,-6.35742 l -5.29785,-6.45996 c -3.8737,-4.71678 -5.81055,-8.64744 -5.81055,-11.79199 0,-2.50649 0.80892,-3.75974 2.42676,-3.75977 0.91146,0.11396 1.73177,0.39879 2.46094,0.85449 0.86588,0.3874 1.56086,0.67223 2.08496,0.85449 0.72916,3e-5 1.40136,-0.54684 2.0166,-1.64062 0.319,-0.75192 0.51269,-1.38994 0.58106,-1.91406 l 0,-8.54492 -11.31348,0 0,-5.29786 43.54492,0 0,5.29786 m -9.70703,0 -16.81641,0 0,14.15039 c 0.52408,0.52411 1.54946,0.80894 3.07618,0.85449 l 4.81933,0.13672 c 3.78253,0.11395 6.75616,-0.50128 8.9209,-1.84571 l 0,-13.29589"
       style="font-size:70px;fill:#fbeaea;font-family:Sanskrit 2003"
       id="path3033" />
    <path
       d="m 154.10937,121.9873 -2.1875,2.66602 -1.77734,1.98242 c -0.50129,0.27349 -0.88866,0.41021 -1.16211,0.41016 -0.36457,5e-5 -1.3216,-0.91141 -2.87109,-2.73438 l -2.15332,-2.46093 0,-1.26465 2.56347,-3.48633 c 0.63804,-0.86583 1.27606,-1.48106 1.91407,-1.8457 0.63803,6e-5 2.5293,1.7774 5.67382,5.33203 l 0.0684,0.71777 -0.0684,0.68359"
       style="font-size:70px;fill:#fbeaea;font-family:Sanskrit 2003"
       id="path3035" />
  </g>
</svg>
