<?xml version="1.0" encoding="UTF-8" standalone="no"?>
<!-- Generator: Adobe Illustrator 12.0.0, SVG Export Plug-In . SVG Version: 6.00 Build 51448)  -->

<svg
   version="1.1"
   id="Layer_1"
   width="284.77499"
   height="112.457"
   viewBox="0 0 284.77499 112.457"
   overflow="visible"
   enable-background="new 0 0 298.918 112.457"
   xml:space="preserve"
   sodipodi:docname="Om-mani-padme-hum-mantra.svg"
   inkscape:version="1.1 (c4e8f9e, 2021-05-24)"
   xmlns:inkscape="http://www.inkscape.org/namespaces/inkscape"
   xmlns:sodipodi="http://sodipodi.sourceforge.net/DTD/sodipodi-0.dtd"
   xmlns="http://www.w3.org/2000/svg"
   xmlns:svg="http://www.w3.org/2000/svg"><defs
   id="defs219" /><sodipodi:namedview
   id="namedview217"
   pagecolor="#ffffff"
   bordercolor="#111111"
   borderopacity="1"
   inkscape:pageshadow="0"
   inkscape:pageopacity="0"
   inkscape:pagecheckerboard="1"
   showgrid="false"
   inkscape:zoom="1.5062385"
   inkscape:cx="107.55269"
   inkscape:cy="22.572787"
   inkscape:window-width="1366"
   inkscape:window-height="698"
   inkscape:window-x="0"
   inkscape:window-y="0"
   inkscape:window-maximized="1"
   inkscape:current-layer="g214" />
<g
   id="g214"
   transform="translate(-14.143)">
	
	<g
   id="g12">
		<g
   id="g10">
			<path
   d="m 298.918,104.914 -0.93,-69 h -5.117 c -1.582,0 -2.867,1.381 -2.867,3.084 0,1.701 1.285,3.082 2.867,3.082 0.184,0 0.361,-0.022 0.535,-0.058 z"
   id="path8" />
		</g>
	</g>
	<g
   id="g18">
		<g
   id="g16">
			<polygon
   points="73.414,35.916 65.246,35.916 69.33,42.416 "
   id="polygon14" />
		</g>
	</g>
	<g
   id="g24">
		<g
   id="g22">
			<polygon
   points="124.164,35.832 115.996,35.832 120.08,42.332 "
   id="polygon20" />
		</g>
	</g>
	<g
   id="g30">
		<g
   id="g28">
			<polygon
   points="168.328,35.916 160.164,35.916 164.246,42.416 "
   id="polygon26" />
		</g>
	</g>
	<g
   id="g36">
		<g
   id="g34">
			<polygon
   points="249.91,35.77 241.746,35.77 245.828,42.27 "
   id="polygon32" />
		</g>
	</g>
	<g
   id="g68">
		<g
   id="g46">
			<path
   d="m 43.08,0 c -5.246,0 -9.5,4.254 -9.5,9.5 0,5.246 4.254,9.5 9.5,9.5 5.246,0 9.5,-4.254 9.5,-9.5 0,-5.246 -4.254,-9.5 -9.5,-9.5 z m 4.127,16.645 c -2.074,1.197 -5.598,-1.031 -7.879,-4.977 -2.277,-3.945 -2.445,-8.115 -0.371,-9.312 2.074,-1.195 5.598,1.033 7.879,4.979 2.277,3.946 2.445,8.114 0.371,9.31 z"
   id="path38" />
			<g
   id="g44">
				<path
   d="M 43.08,35.166 C 37.58,26 31.08,21.332 19.414,24.832 c 1.832,-13 20.5,-8.332 23.666,10.334 z"
   id="path40" />
				<path
   d="m 43.83,33.918 c 0,0 -0.752,-15.027 14.416,-15.027 15.168,0 20.334,-5.727 20.334,-5.727 0,0 -3.998,8.207 -18.801,10.385 C 48.111,25.322 45.08,30.975 43.83,33.918 Z"
   id="path42" />
			</g>
		</g>
		<g
   id="g56">
			<g
   id="g52">
				<g
   id="g50">
					<polygon
   points="60.773,75.324 60.621,35.658 55.316,35.658 "
   id="polygon48" />
				</g>
			</g>
			<path
   d="m 52.746,35.658 h 6.334 v 6.666 l -3.236,-0.811 c 0,0.001 -1.766,0.145 -3.098,-5.855 z"
   id="path54" />
		</g>
		<g
   id="g66">
			<path
   d="M 59.621,74.582 C 57.746,63.707 39.1,42.832 39.1,42.832 c 8.854,0 7.146,-7.146 7.146,-7.146 H 27.768 c -0.854,7.104 7.146,7.146 7.146,7.146 l -9,9 c 0,0 0,1.5 0.5,1 1.002,-1.002 4.51,0.541 5.314,1.215 2.963,2.482 1.256,6.732 -2.219,7.51 -2.752,0.617 -5.615,0.432 -7.832,-1.43 -0.635,-0.533 -2.051,-1.836 -2.098,-2.783 -0.002,-0.02 -0.357,-7.191 -0.332,-11.887 h -2.844 l 0.092,10.25 c 3.625,21.125 21.625,11.375 21.625,2.25 0,-9.125 -10,-6.625 -10,-6.625 l 8.625,-6.875 c 1.667,0.625 22.876,30.125 22.876,30.125 z"
   id="path58" />
			<g
   id="g64">
				<g
   id="g62">
					<path
   d="m 14.143,35.832 c 0,3.463 2.234,6.156 2.234,6.156 l 0.031,3.719 h 2.871 l 0.031,-3.719 c 0,0 2.234,-2.693 2.234,-6.156 z"
   id="path60" />
				</g>
			</g>
		</g>
	</g>
	<g
   id="g92">
		<g
   id="g78">
			<g
   id="g74">
				<g
   id="g72">
					<polygon
   points="112.52,75.66 112.367,35.992 107.062,35.992 "
   id="polygon70" />
				</g>
			</g>
			<path
   d="m 104.996,35.992 h 4.584 l -1.619,6.533 c 0,0 -3.631,-1.373 -2.965,-6.533 z"
   id="path76" />
		</g>
		<g
   id="g90">
			<path
   d="M 90.621,35.77 H 79.934 c 0,0 0.312,6.688 3.5,6.688 3.188,0 7.188,0 7.188,0 V 35.77 Z"
   id="path80" />
			<path
   d="m 88.059,35.77 h 10.688 c 0,0 -0.312,6.688 -3.5,6.688 -3.188,0 -7.188,0 -7.188,0 z"
   id="path82" />
			<polyline
   points="90.621,42.457 90.621,35.77 79.934,35.77    "
   id="polyline84" />
			<path
   d="m 88.777,41.738 c 0,0 3.094,1.469 3.094,7.844 0,6.375 1.625,1.125 1.625,1.125 0,0 -0.188,-10.188 -0.625,-10.625 -0.437,-0.437 -4.094,1.656 -4.094,1.656 z"
   id="path86" />
			<path
   d="m 112.52,75.66 c 0,0 -5.398,-29.203 -25.898,-29.203 0,0 -11.125,0.75 -11.125,11.125 0,0 0.875,12.25 10.375,12.25 9.5,0 10.312,-6.438 10.312,-8.562 0,-3.062 -0.938,-5.812 -1.938,-6.812 0,-10e-4 3.977,-0.024 18.274,21.202 z M 86.809,66.457 c -3.658,0 -6.625,-2.965 -6.625,-6.625 0,-3.658 2.967,-6.625 6.625,-6.625 3.658,0 6.625,2.967 6.625,6.625 0,3.66 -2.967,6.625 -6.625,6.625 z"
   id="path88" />
		</g>
	</g>
	<g
   id="g132">
		<path
   d="m 236.414,35.77 c 0,0 -8.332,-17.438 -29.332,-19.938 l -3.168,6.334 c 0,0 18.301,-1.5 32.5,13.604 z"
   id="path94" />
		<g
   id="g118">
			<g
   id="g104">
				<g
   id="g100">
					<g
   id="g98">
						<polygon
   points="238.352,109.996 238.203,70.324 232.898,70.324 "
   id="polygon96" />
					</g>
				</g>
				<path
   d="m 230.828,70.324 h 4.586 l -1.617,6.535 c 0,0 -3.633,-1.371 -2.969,-6.535 z"
   id="path102" />
			</g>
			<g
   id="g116">
				<path
   d="m 217.363,70.902 h -9.805 c 0,0 0.289,6.359 3.215,6.359 2.922,0 6.59,0 6.59,0 z"
   id="path106" />
				<path
   d="m 215.012,70.902 h 9.801 c 0,0 -0.289,6.359 -3.215,6.359 -2.918,0 -6.586,0 -6.586,0 z"
   id="path108" />
				<polyline
   points="217.363,77.262 217.363,70.902 207.559,70.902     "
   id="polyline110" />
				<path
   d="m 215.672,76.582 c 0,0 2.84,1.395 2.84,7.457 0,6.062 1.492,1.07 1.492,1.07 0,0 -0.18,-9.691 -0.578,-10.102 -0.403,-0.421 -3.754,1.575 -3.754,1.575 z"
   id="path112" />
				<path
   d="m 237.441,108.84 c 0,0 -4.949,-27.773 -23.746,-27.773 0,0 -10.199,0.715 -10.199,10.578 0,0 0.801,11.648 9.512,11.648 8.707,0 9.453,-6.121 9.453,-8.141 0,-2.91 -0.863,-5.531 -1.773,-6.477 0,0.001 3.648,-0.019 16.753,20.165 z m -23.574,-8.754 c -3.352,0 -6.074,-2.82 -6.074,-6.301 0,-3.477 2.723,-6.301 6.074,-6.301 3.351,0 6.074,2.824 6.074,6.301 0,3.481 -2.722,6.301 -6.074,6.301 z"
   id="path114" />
			</g>
		</g>
		<g
   id="g130">
			<g
   id="g126">
				<path
   d="m 219.332,36.146 h -10.688 c 0,0 0.312,6.688 3.5,6.688 3.188,0 7.188,0 7.188,0 z"
   id="path120" />
				<path
   d="m 226.727,36.146 h 10.688 c 0,0 -0.312,6.688 -3.5,6.688 -3.188,0 -7.188,0 -7.188,0 z"
   id="path122" />
				<rect
   x="216.082"
   y="36.129002"
   width="13.25"
   height="6.7249999"
   id="rect124" />
			</g>
			<path
   d="m 217.414,40.748 c 0,0 -7.914,7.834 -7.914,9.084 0,1.25 0,6.75 0,6.75 0,0 22.332,-4.75 28.082,10.168 0,0 -2.168,-21.168 -25,-16.668 V 49.25 l 8.082,-8.834 z"
   id="path128" />
		</g>
	</g>
	<g
   id="g154">
		<g
   id="g142">
			<g
   id="g138">
				<g
   id="g136">
					<polygon
   points="199.52,75.66 199.367,35.992 194.062,35.992 "
   id="polygon134" />
				</g>
			</g>
			<path
   d="m 191.996,35.992 h 4.586 l -1.621,6.533 c 0,0 -3.629,-1.373 -2.965,-6.533 z"
   id="path140" />
		</g>
		<g
   id="g152">
			<g
   id="g148">
				<path
   d="m 181,35.896 h -10.688 c 0,0 0.312,6.688 3.5,6.688 3.188,0 7.188,0 7.188,0 z"
   id="path144" />
				<path
   d="m 174.246,35.896 h 10.688 c 0,0 -0.312,6.688 -3.5,6.688 -3.188,0 -7.188,0 -7.188,0 z"
   id="path146" />
			</g>
			<path
   d="m 178.414,40.416 c 0,0 -10.168,7.166 -10.168,13.416 0,6.25 0,7.084 0,7.084 0,0 19.629,-2.928 31.273,14.744 0,0 -7.105,-23.328 -29.355,-21.662 0,0 0.254,-6.164 10.668,-12.582 z"
   id="path150" />
		</g>
	</g>
	<g
   id="g172">
		<path
   d="m 153.58,35.582 c -0.012,-0.021 -12.754,-23.416 -22.834,-23.416 0,0 -9.668,0.426 -9.668,9.666 0,8 12.625,10.293 11.334,0.834 0.055,0.406 -1.09,1.432 -1.334,1.66 -2.16,2.021 -4.889,-0.021 -5.381,-2.34 -0.434,-2.041 0.9,-4.143 2.723,-4.902 2.531,-1.057 5.566,-0.223 7.865,1.061 4.654,2.598 8.588,6.859 12.113,10.783 1.811,2.015 3.879,4.263 5.182,6.654 z"
   id="path156" />
		<g
   id="g170">
			<g
   id="g164">
				<path
   d="m 138.18,35.875 h -9.805 c 0,0 0.289,6.359 3.215,6.359 2.922,0 6.59,0 6.59,0 z"
   id="path158" />
				<path
   d="m 143.914,35.875 h 9.801 c 0,0 -0.289,6.359 -3.215,6.359 -2.918,0 -6.586,0 -6.586,0 z"
   id="path160" />
				<rect
   x="134.621"
   y="35.875"
   width="12.5"
   height="6.3590002"
   id="rect162" />
			</g>
			<path
   d="m 133.246,38.707 c 0,0 4.375,1.062 3.562,14.312 l 2.438,-1.688 c 0,0 -1.256,-11.256 6.25,-13 z"
   id="path166" />
			<path
   d="m 136.889,51.166 c -11.893,0 -7.977,53.834 -7.977,53.834 3.541,-5.832 4.334,-23.793 4.334,-23.793 0,-0.172 0,-0.324 0,-0.5 0,-21.875 4.25,-20 4.25,-20 -1,14.5 8.688,14.312 8.688,14.312 11.98,0 11.438,-11.438 11.438,-11.438 C 157.246,47.332 143.08,50.582 136.889,51.166 Z m 9.447,20.502 c -3.725,0 -6.744,-3.395 -6.744,-7.582 0,-4.193 3.02,-7.588 6.744,-7.588 3.724,0 6.744,3.395 6.744,7.588 0,4.187 -3.019,7.582 -6.744,7.582 z"
   id="path168" />
		</g>
	</g>
	<g
   id="g212">
		<path
   d="m 269.656,7.35 c -4.973,0 -9,4.029 -9,9 0,4.971 4.027,9 9,9 4.965,0 9,-4.029 9,-9 0,-4.971 -4.035,-9 -9,-9 z m 3.906,15.769 c -1.965,1.133 -5.301,-0.979 -7.461,-4.715 -2.16,-3.738 -2.32,-7.689 -0.352,-8.822 1.965,-1.133 5.301,0.979 7.461,4.715 2.161,3.74 2.317,7.689 0.352,8.822 z"
   id="path174" />
		<g
   id="g190">
			<g
   id="g186">
				<path
   d="m 263.246,41.59 c 0,0 -7.668,3.742 -9.418,7.924 0,3.752 0,6.402 0,6.402 0,0 7.961,-1.459 14.086,4.666 0,0 -1.75,-9.75 -11.836,-11.416 0,0 6.238,-6.074 10.418,-7.168 -3.25,-0.408 -3.25,-0.408 -3.25,-0.408 z"
   id="path176" />
				<g
   id="g184">
					<path
   d="m 267.043,35.834 h -10.688 c 0,0 0.312,6.688 3.5,6.688 3.188,0 7.188,0 7.188,0 z"
   id="path178" />
					<path
   d="m 272.078,35.834 h 10.688 c 0,0 -0.312,6.688 -3.5,6.688 -3.188,0 -7.188,0 -7.188,0 z"
   id="path180" />
					<rect
   x="261.164"
   y="35.813999"
   width="15.164"
   height="6.7270002"
   id="rect182" />
				</g>
			</g>
			<path
   d="m 264.746,55.5 c 0,0 1.332,-9.75 11.25,-9.75 3.582,0 16.457,5.789 1.582,22.664 0,0 3.918,-7.914 3.918,-10.748 0,0 1.473,-6.25 -8.75,-6.25 -3.75,0 -5.336,1.002 -8,4.084 z"
   id="path188" />
		</g>
		<path
   d="m 269.652,29.148 c -6.668,0 -12.078,-4.568 -12.324,-10.271 -0.004,0.184 -0.047,0.354 -0.047,0.539 0,7.992 5.539,14.473 12.371,14.473 6.84,0 12.379,-6.48 12.379,-14.473 0,-0.186 -0.043,-0.355 -0.047,-0.539 -0.246,5.703 -5.66,10.271 -12.332,10.271 z"
   id="path192" />
		<g
   id="g208">
			<path
   d="m 285.328,95 c 0,0 -2.211,-11.32 -11.152,-11.684 l -2.598,4.352 c 0,0 8.699,-2.336 13.75,7.332 z"
   id="path194" />
			<g
   id="g202">
				<path
   d="m 270.125,68.418 h -7.406 c 0,0 0.219,4.805 2.43,4.805 2.207,0 4.977,0 4.977,0 v -4.805 z"
   id="path196" />
				<path
   d="m 278.438,68.418 h 7.406 c 0,0 -0.219,4.805 -2.43,4.805 -2.203,0 -4.977,0 -4.977,0 v -4.805 z"
   id="path198" />
				<rect
   x="266.80899"
   y="68.417999"
   width="15.688"
   height="4.8049998"
   id="rect200" />
			</g>
			<path
   d="m 267.996,71.832 c 0,0 -5.812,3.875 -5.375,7.125 0.437,3.25 1.062,5.875 2.125,6.938 l 1.688,-4.5 c 0,0 -4.562,-4.707 3.688,-9 z"
   id="path204" />
			<path
   d="m 277.246,71.801 c -0.965,0 -1.863,0.273 -2.672,0.715 0.477,-0.203 0.984,-0.34 1.516,-0.34 2.711,0 4.906,2.84 4.906,6.344 0,3.504 -2.195,6.344 -4.906,6.344 -0.531,0 -1.035,-0.137 -1.516,-0.34 0.809,0.441 1.707,0.715 2.672,0.715 3.352,0 6.062,-3.008 6.062,-6.719 0,-3.711 -2.71,-6.719 -6.062,-6.719 z"
   id="path206" />
		</g>
		<path
   d="m 252.121,68.832 c 0,0 4.875,3.5 7.5,13.375 2.625,9.875 8.125,26.625 17.5,26.625 0,0 6.188,1.438 6.188,-5.5 0,0 0.438,-4.375 -3.938,-4.375 0,0 -3.375,0.125 -5,3.375 0,0 -2.625,-2.75 -2.625,-4.25 0,0 0.625,-5.5 6.75,-5.5 6.125,0 7.625,6.25 7.625,9.5 0,3.5 -4.25,10.375 -10.875,10.375 -8.75,0 -14,-5.5 -15.75,-15.25 -1.75,-9.75 -5,-24.75 -7.375,-28.375 z"
   id="path210" />
	</g>
</g>
</svg>
