<svg id="TYPS" xmlns="http://www.w3.org/2000/svg" viewBox="0 0 1024 768"><defs><style>.cls-1,.cls-2,.cls-3,.cls-4,.cls-5,.cls-6{fill:none;}.cls-2,.cls-3,.cls-4,.cls-5,.cls-6,.cls-7{stroke:#000;}.cls-2,.cls-3,.cls-4,.cls-5,.cls-7{stroke-miterlimit:10;}.cls-2{stroke-width:8px;}.cls-3{stroke-width:4px;}.cls-4,.cls-6,.cls-7{stroke-width:5px;}.cls-5{stroke-width:2px;}.cls-6{stroke-miterlimit:3;}</style></defs><title>Trident_Yantra_of_Parama_Siva</title><rect class="cls-1" width="1024" height="768"/><polygon class="cls-2" points="141.79 169.9 141.79 594.89 204.6 594.89 204.6 469.27 238.07 469.27 238.07 653.12 425.58 653.12 425.58 685.67 297.67 685.67 297.67 753.52 723.58 753.52 723.58 687.5 597.04 687.5 597.04 654.95 783.64 654.95 783.64 470.19 815.27 470.19 815.27 595.35 882.21 595.35 882.21 169.9 816.19 169.9 816.19 295.52 784.1 295.52 784.1 113.05 598.42 113.05 598.42 78.21 724.04 78.21 724.04 14.48 299.96 14.48 299.96 76.37 426.96 76.37 426.96 109.38 239.44 109.38 239.44 295.52 204.6 295.52 204.6 169.9 141.79 169.9"/><polygon class="cls-2" points="316.24 31.14 708.99 31.14 708.99 64.45 581.84 64.45 581.84 129.25 767.36 129.25 767.36 314.47 833.99 314.47 833.99 190.38 866.7 190.38 866.7 580.99 833.08 580.99 833.08 454.76 767.97 454.76 767.97 639.67 581.23 639.67 581.23 705.08 708.68 705.08 708.68 736.86 315.01 736.86 315.01 705.99 441.86 705.99 441.86 640.28 255.41 640.28 255.41 454.45 189.4 454.45 189.4 580.37 157.3 580.37 157.3 187.63 190.62 187.63 190.62 314.16 255.72 314.16 255.72 129.25 444 129.25 444 62.92 316.85 62.92 316.24 31.14"/><circle class="cls-2" cx="512" cy="384" r="151.53"/><circle class="cls-2" cx="512" cy="384" r="139.6"/><circle cx="512" cy="384" r="4.22"/><circle class="cls-2" cx="512" cy="384" r="60.63"/><path class="cls-2" d="M483.49,437.36c-6.64,37.92,11.73,72.76,28.7,81.2,21.32-10.85,35.84-61.85,26.91-80.28"/><path class="cls-3" d="M503,459.69a44.2,44.2,0,0,0,4-15.34"/><path class="cls-3" d="M521.68,459.69a44.2,44.2,0,0,1-4-15.34"/><line class="cls-3" x1="512.19" y1="463.02" x2="512.19" y2="444.57"/><path class="cls-2" d="M483.74,330.39c-6.64-37.92,11.73-72.76,28.7-81.2C533.76,260,548.28,311,539.35,329.46"/><path class="cls-3" d="M503.24,308.06a44.2,44.2,0,0,1,4,15.34"/><path class="cls-3" d="M521.93,308.06a44.2,44.2,0,0,0-4,15.34"/><line class="cls-3" x1="512.44" y1="304.73" x2="512.44" y2="323.18"/><path class="cls-2" d="M458.58,355.3c-37.92-6.64-72.76,11.73-81.2,28.7,10.85,21.32,61.85,35.84,80.28,26.91"/><path class="cls-3" d="M436.25,374.8a44.2,44.2,0,0,0,15.34,4"/><path class="cls-3" d="M436.25,393.49a44.2,44.2,0,0,1,15.34-4"/><line class="cls-3" x1="432.92" y1="384" x2="451.37" y2="384"/><path class="cls-2" d="M565.56,355.55c37.92-6.64,72.76,11.73,81.2,28.7-10.85,21.32-61.85,35.84-80.28,26.91"/><path class="cls-3" d="M587.89,375a44.2,44.2,0,0,1-15.34,4"/><path class="cls-3" d="M587.89,393.74a44.2,44.2,0,0,0-15.34-4"/><line class="cls-3" x1="591.21" y1="384.25" x2="572.77" y2="384.25"/><path class="cls-2" d="M440.08,413.53c-20.9,21.95-28.2,50.67-23.16,65.68,17.37,5.65,48.48-8,65.22-23.46"/><path class="cls-3" d="M452,431.07a44.2,44.2,0,0,0,13.69-8"/><path class="cls-3" d="M465.25,444.28a44.2,44.2,0,0,1,8-13.69"/><line class="cls-3" x1="456.19" y1="439.93" x2="469.24" y2="426.88"/><path class="cls-2" d="M542,312c21.94-20.84,50.61-28.12,65.6-23.09,5.66,17.39-8.09,48.58-23.53,65.29"/><path class="cls-3" d="M559.44,324a44.2,44.2,0,0,1-8,13.69"/><path class="cls-3" d="M572.65,337.24a44.2,44.2,0,0,0-13.69,8"/><line class="cls-3" x1="568.29" y1="328.18" x2="555.25" y2="341.22"/><path class="cls-2" d="M482.38,311.86c-21.94-20.88-50.65-28.17-65.65-23.14-5.65,17.37,8,48.48,23.46,65.22"/><path class="cls-3" d="M464.88,323.84a44.2,44.2,0,0,0,8,13.69"/><path class="cls-3" d="M451.66,337.06a44.2,44.2,0,0,1,13.69,8"/><line class="cls-3" x1="456.02" y1="328" x2="469.06" y2="341.04"/><path class="cls-2" d="M584,413.79c20.84,21.93,28.11,50.61,23.09,65.59-17.4,5.66-48.61-8.1-65.32-23.55"/><path class="cls-3" d="M571.92,431.24a44.2,44.2,0,0,1-13.69-8"/><path class="cls-3" d="M558.71,444.46a44.2,44.2,0,0,0-8-13.69"/><line class="cls-3" x1="567.76" y1="440.1" x2="554.72" y2="427.06"/><circle class="cls-4" cx="622.48" cy="194.49" r="33.03"/><path class="cls-4" d="M608.73,164c-8.75-12.23-22.18-15.47-29.23-13.11-2.83,8.71,5.43,24.95,12.9,28.37"/><path class="cls-5" d="M595.94,162.18a17.47,17.47,0,0,0,3.16,5.41l1.48,1.48"/><path class="cls-5" d="M590.71,167.4a17.47,17.47,0,0,1,5.41,3.16l1.41,1.41"/><line class="cls-5" x1="592.44" y1="163.82" x2="599.05" y2="170.44"/><path class="cls-4" d="M652.14,207.41c12.23,8.75,15.47,22.18,13.11,29.23-8.71,2.83-24.95-5.43-28.37-12.9"/><path class="cls-5" d="M654,220.2a17.47,17.47,0,0,1-5.41-3.16l-1.48-1.48"/><path class="cls-5" d="M648.74,225.43a17.47,17.47,0,0,0-3.16-5.41l-1.41-1.41"/><line class="cls-5" x1="652.32" y1="223.71" x2="645.71" y2="217.09"/><path class="cls-4" d="M591.75,182.4c-14.83-2.47-26.62,4.74-29.94,11.4C566,202,583.3,207.59,591,204.73"/><path class="cls-5" d="M581.42,190.15a17.47,17.47,0,0,0,6.06,1.59h2.09"/><path class="cls-5" d="M581.42,197.54a17.47,17.47,0,0,1,6.06-1.59h2"/><line class="cls-5" x1="580.1" y1="193.79" x2="589.46" y2="193.79"/><path class="cls-4" d="M653.14,182.4c14.83-2.47,26.62,4.74,29.94,11.4-4.15,8.16-21.48,13.8-29.18,10.94"/><path class="cls-5" d="M663.48,190.15a17.47,17.47,0,0,1-6.06,1.59h-2.09"/><path class="cls-5" d="M663.48,197.54a17.47,17.47,0,0,0-6.06-1.59h-2"/><line class="cls-5" x1="664.79" y1="193.79" x2="655.44" y2="193.79"/><path class="cls-4" d="M611.15,224.39c-2.47,14.83,4.74,26.62,11.4,29.94,8.16-4.15,13.8-21.48,10.94-29.18"/><path class="cls-5" d="M618.91,234.72a17.47,17.47,0,0,0,1.59-6.06v-2.09"/><path class="cls-5" d="M626.3,234.72a17.47,17.47,0,0,1-1.59-6.06v-2"/><line class="cls-5" x1="622.55" y1="236.04" x2="622.55" y2="226.68"/><path class="cls-4" d="M611.15,163c-2.47-14.83,4.74-26.62,11.4-29.94,8.16,4.15,13.8,21.48,10.94,29.18"/><path class="cls-5" d="M618.91,152.66a17.47,17.47,0,0,1,1.59,6.06v2.09"/><path class="cls-5" d="M626.3,152.66a17.47,17.47,0,0,0-1.59,6.06v2"/><line class="cls-5" x1="622.55" y1="151.35" x2="622.55" y2="160.7"/><path class="cls-4" d="M592.76,207.41c-12.23,8.75-15.47,22.18-13.11,29.23,8.71,2.83,24.95-5.43,28.37-12.9"/><path class="cls-5" d="M590.93,220.2a17.47,17.47,0,0,0,5.41-3.16l1.48-1.48"/><path class="cls-5" d="M596.15,225.43a17.47,17.47,0,0,1,3.16-5.41l1.41-1.41"/><line class="cls-5" x1="592.58" y1="223.71" x2="599.19" y2="217.09"/><path class="cls-4" d="M636.16,164c8.75-12.23,22.18-15.47,29.23-13.11,2.83,8.71-5.43,24.95-12.9,28.37"/><path class="cls-5" d="M649,162.18a17.47,17.47,0,0,1-3.16,5.41l-1.48,1.48"/><path class="cls-5" d="M654.18,167.4a17.47,17.47,0,0,0-5.41,3.16L647.36,172"/><line class="cls-5" x1="652.46" y1="163.82" x2="645.84" y2="170.44"/><circle class="cls-4" cx="513.02" cy="130.68" r="34.76"/><path class="cls-4" d="M498.55,98.6c-9.2-12.87-23.34-16.28-30.75-13.8-3,9.16,5.71,26.25,13.57,29.85"/><path class="cls-5" d="M485.09,96.68a18.38,18.38,0,0,0,3.33,5.69l1.55,1.55"/><path class="cls-5" d="M479.59,102.17a18.38,18.38,0,0,1,5.69,3.33l1.49,1.49"/><line class="cls-5" x1="481.41" y1="98.41" x2="488.37" y2="105.37"/><path class="cls-4" d="M544.23,144.27c12.87,9.2,16.28,23.34,13.8,30.75-9.16,3-26.25-5.71-29.85-13.57"/><path class="cls-5" d="M546.15,157.74a18.38,18.38,0,0,1-5.69-3.33l-1.55-1.55"/><path class="cls-5" d="M540.65,163.23a18.38,18.38,0,0,0-3.33-5.69l-1.49-1.49"/><line class="cls-5" x1="544.42" y1="161.42" x2="537.46" y2="154.46"/><path class="cls-4" d="M480.69,118c-15.61-2.59-28,5-31.5,12,4.37,8.59,22.6,14.52,30.7,11.51"/><path class="cls-5" d="M469.81,126.12a18.38,18.38,0,0,0,6.38,1.67h2.2"/><path class="cls-5" d="M469.81,133.89a18.38,18.38,0,0,1,6.38-1.67h2.1"/><line class="cls-5" x1="468.43" y1="129.94" x2="478.27" y2="129.94"/><path class="cls-4" d="M545.28,118c15.61-2.59,28,5,31.5,12-4.37,8.59-22.6,14.52-30.7,11.51"/><path class="cls-5" d="M556.16,126.12a18.38,18.38,0,0,1-6.38,1.67h-2.2"/><path class="cls-5" d="M556.16,133.89a18.38,18.38,0,0,0-6.38-1.67h-2.1"/><line class="cls-5" x1="557.54" y1="129.94" x2="547.7" y2="129.94"/><path class="cls-4" d="M501.1,162.14c-2.59,15.61,5,28,12,31.5,8.59-4.37,14.52-22.6,11.51-30.7"/><path class="cls-5" d="M509.26,173a18.38,18.38,0,0,0,1.67-6.38v-2.2"/><path class="cls-5" d="M517,173a18.38,18.38,0,0,1-1.67-6.38v-2.1"/><line class="cls-5" x1="513.09" y1="174.4" x2="513.09" y2="164.55"/><path class="cls-4" d="M501.1,97.54c-2.59-15.61,5-28,12-31.5,8.59,4.37,14.52,22.6,11.51,30.7"/><path class="cls-5" d="M509.26,86.67A18.38,18.38,0,0,1,510.93,93v2.2"/><path class="cls-5" d="M517,86.67A18.38,18.38,0,0,0,515.36,93v2.1"/><line class="cls-5" x1="513.09" y1="85.28" x2="513.09" y2="95.13"/><path class="cls-4" d="M481.74,144.27c-12.87,9.2-16.28,23.34-13.8,30.75,9.16,3,26.25-5.71,29.85-13.57"/><path class="cls-5" d="M479.82,157.74a18.38,18.38,0,0,0,5.69-3.33l1.55-1.55"/><path class="cls-5" d="M485.32,163.23a18.38,18.38,0,0,1,3.33-5.69l1.49-1.49"/><line class="cls-5" x1="481.55" y1="161.42" x2="488.51" y2="154.46"/><path class="cls-4" d="M527.42,98.6c9.2-12.87,23.34-16.28,30.75-13.8,3,9.16-5.71,26.25-13.57,29.85"/><path class="cls-5" d="M540.88,96.68a18.38,18.38,0,0,1-3.33,5.69L536,103.92"/><path class="cls-5" d="M546.38,102.17a18.38,18.38,0,0,0-5.69,3.33L539.2,107"/><line class="cls-5" x1="544.57" y1="98.41" x2="537.61" y2="105.37"/><circle class="cls-4" cx="402.42" cy="194.49" r="33.03"/><path class="cls-4" d="M388.67,164c-8.75-12.23-22.18-15.47-29.23-13.11-2.83,8.71,5.43,24.95,12.9,28.37"/><path class="cls-5" d="M375.88,162.18a17.47,17.47,0,0,0,3.16,5.41l1.48,1.48"/><path class="cls-5" d="M370.65,167.4a17.47,17.47,0,0,1,5.41,3.16l1.41,1.41"/><line class="cls-5" x1="372.37" y1="163.82" x2="378.99" y2="170.44"/><path class="cls-4" d="M432.08,207.41c12.23,8.75,15.47,22.18,13.11,29.23-8.71,2.83-24.95-5.43-28.37-12.9"/><path class="cls-5" d="M433.9,220.2a17.47,17.47,0,0,1-5.41-3.16L427,215.56"/><path class="cls-5" d="M428.68,225.43a17.47,17.47,0,0,0-3.16-5.41l-1.41-1.41"/><line class="cls-5" x1="432.26" y1="223.71" x2="425.64" y2="217.09"/><path class="cls-4" d="M371.69,182.4c-14.83-2.47-26.62,4.74-29.94,11.4,4.15,8.16,21.48,13.8,29.18,10.94"/><path class="cls-5" d="M361.36,190.15a17.47,17.47,0,0,0,6.06,1.59h2.09"/><path class="cls-5" d="M361.36,197.54a17.47,17.47,0,0,1,6.06-1.59h2"/><line class="cls-5" x1="360.04" y1="193.79" x2="369.4" y2="193.79"/><path class="cls-4" d="M433.08,182.4c14.83-2.47,26.62,4.74,29.94,11.4-4.15,8.16-21.48,13.8-29.18,10.94"/><path class="cls-5" d="M443.42,190.15a17.47,17.47,0,0,1-6.06,1.59h-2.09"/><path class="cls-5" d="M443.42,197.54a17.47,17.47,0,0,0-6.06-1.59h-2"/><line class="cls-5" x1="444.73" y1="193.79" x2="435.38" y2="193.79"/><path class="cls-4" d="M391.09,224.39c-2.47,14.83,4.74,26.62,11.4,29.94,8.16-4.15,13.8-21.48,10.94-29.18"/><path class="cls-5" d="M398.85,234.72a17.47,17.47,0,0,0,1.59-6.06v-2.09"/><path class="cls-5" d="M406.23,234.72a17.47,17.47,0,0,1-1.59-6.06v-2"/><line class="cls-5" x1="402.49" y1="236.04" x2="402.49" y2="226.68"/><path class="cls-4" d="M391.09,163c-2.47-14.83,4.74-26.62,11.4-29.94,8.16,4.15,13.8,21.48,10.94,29.18"/><path class="cls-5" d="M398.85,152.66a17.47,17.47,0,0,1,1.59,6.06v2.09"/><path class="cls-5" d="M406.23,152.66a17.47,17.47,0,0,0-1.59,6.06v2"/><line class="cls-5" x1="402.49" y1="151.35" x2="402.49" y2="160.7"/><path class="cls-4" d="M372.69,207.41c-12.23,8.75-15.47,22.18-13.11,29.23,8.71,2.83,24.95-5.43,28.37-12.9"/><path class="cls-5" d="M370.87,220.2a17.47,17.47,0,0,0,5.41-3.16l1.48-1.48"/><path class="cls-5" d="M376.09,225.43a17.47,17.47,0,0,1,3.16-5.41l1.41-1.41"/><line class="cls-5" x1="372.51" y1="223.71" x2="379.13" y2="217.09"/><path class="cls-4" d="M416.1,164c8.75-12.23,22.18-15.47,29.23-13.11,2.83,8.71-5.43,24.95-12.9,28.37"/><path class="cls-5" d="M428.9,162.18a17.47,17.47,0,0,1-3.16,5.41l-1.48,1.48"/><path class="cls-5" d="M434.12,167.4a17.47,17.47,0,0,0-5.41,3.16L427.3,172"/><line class="cls-5" x1="432.4" y1="163.82" x2="425.78" y2="170.44"/><path d="M600.2,208.22c-9.19,8.52-16.61,25.59-22.81,42.31-1.48,4-6.41,33.64-18.53,43.6-22.76,21.49-39.11-16.61-17.1-20.66l-29.53-143-29.53,143c22,4,5.67,42.15-17.1,20.66-12.12-10-17-39.61-18.53-43.6-6.2-16.72-13.62-33.79-22.81-42.31,0,0-18.3-16.5-22.61-15.28,14.3,15.43,25.83,34.69,27.68,54.1,2.78,20.46,6.52,37.17,11.43,49.85,7.8,19.68,32.55,31.45,55.69,19.86a133.14,133.14,0,0,0,15.77-12.41A133.14,133.14,0,0,0,528,316.75c23.14,11.58,47.89-.18,55.69-19.86,4.91-12.69,8.65-29.4,11.43-49.85,1.85-19.41,13.38-38.66,27.68-54.1C618.5,191.72,600.2,208.22,600.2,208.22Z"/><path class="cls-6" d="M485,562.76c0,10.12.23,13.07,9.86,13.07V687.92L482.44,698l13.75,11.46,15.36,32.09,15.13-31.63L542,698.47l-13.3-10.54-.69-112.55c7.09,0,9.86-2.06,9.86-12.61Z"/><polygon class="cls-7" points="526.68 709.93 511.55 741.56 496.19 709.47 526.68 709.93"/><polygon class="cls-6" points="494.82 687.92 528.74 687.92 528.05 575.37 494.82 575.83 494.82 687.92"/><rect x="480.07" y="532.36" width="63.42" height="33.92"/></svg>