<svg xmlns="http://www.w3.org/2000/svg" viewBox="0 0 512 512" role="img" aria-label="Chakra Flow icon">
  <rect width="512" height="512" rx="96" fill="#08060d"/>
  <circle cx="256" cy="256" r="190" fill="#2b1534"/>
  <circle cx="256" cy="256" r="154" fill="#5e1f4d" opacity="0.9"/>
  <g fill="none" stroke="#f3ecdd" stroke-width="18" stroke-linecap="round" stroke-linejoin="round" opacity="0.92">
    <path d="M256 108c34 50 34 96 0 138-34-42-34-88 0-138Z"/>
    <path d="M256 404c-34-50-34-96 0-138 34 42 34 88 0 138Z"/>
    <path d="M108 256c50-34 96-34 138 0-42 34-88 34-138 0Z"/>
    <path d="M404 256c-50 34-96 34-138 0 42-34 88-34 138 0Z"/>
  </g>
  <circle cx="256" cy="256" r="62" fill="#f3ecdd"/>
  <circle cx="256" cy="256" r="28" fill="#08060d"/>
</svg>
